# MagicaVoxel @ Ephtracy

# group
o 

# material
mtllib wheel_vaz.mtl
usemtl palette

# normals
vn -1 0 0
vn 1 0 0
vn 0 0 1
vn 0 0 -1
vn 0 -1 0
vn 0 1 0

# texcoords
vt 0.962891 0.5
vt 0.982422 0.5
vt 0.994141 0.5

# verts
v -0.3 -0.9 0.3
v -0.3 -0.9 -0.3
v -0.3 -0.8 0.5
v -0.3 -0.8 0.3
v -0.3 -0.8 -0.3
v -0.3 -0.8 -0.5
v -0.3 -0.7 0.7
v -0.3 -0.7 0.5
v -0.3 -0.7 -0.5
v -0.3 -0.7 -0.7
v -0.3 -0.5 0.8
v -0.3 -0.5 0.7
v -0.3 -0.5 -0.7
v -0.3 -0.5 -0.8
v -0.3 -0.3 0.9
v -0.3 -0.3 0.8
v -0.3 -0.3 -0.8
v -0.3 -0.3 -0.9
v -0.3 0.3 0.9
v -0.3 0.3 0.8
v -0.3 0.3 -0.8
v -0.3 0.3 -0.9
v -0.3 0.5 0.8
v -0.3 0.5 0.7
v -0.3 0.5 -0.7
v -0.3 0.5 -0.8
v -0.3 0.7 0.7
v -0.3 0.7 0.5
v -0.3 0.7 -0.5
v -0.3 0.7 -0.7
v -0.3 0.8 0.5
v -0.3 0.8 0.3
v -0.3 0.8 -0.3
v -0.3 0.8 -0.5
v -0.3 0.9 0.3
v -0.3 0.9 -0.3
v 0.2 -0.5 0.3
v 0.2 -0.5 -0.3
v 0.2 -0.4 0.4
v 0.2 -0.4 0.3
v 0.2 -0.4 0.2
v 0.2 -0.4 0.1
v 0.2 -0.4 -0.1
v 0.2 -0.4 -0.2
v 0.2 -0.4 -0.3
v 0.2 -0.4 -0.4
v 0.2 -0.3 0.5
v 0.2 -0.3 0.4
v 0.2 -0.3 0.2
v 0.2 -0.3 0.1
v 0.2 -0.3 -0.1
v 0.2 -0.3 -0.2
v 0.2 -0.3 -0.4
v 0.2 -0.3 -0.5
v 0.2 -0.2 0.4
v 0.2 -0.2 0.3
v 0.2 -0.2 0.2
v 0.2 -0.2 -0.2
v 0.2 -0.2 -0.3
v 0.2 -0.2 -0.4
v 0.2 -0.1 0.4
v 0.2 -0.1 0.3
v 0.2 -0.1 -0.3
v 0.2 -0.1 -0.4
v 0.2 0.1 0.4
v 0.2 0.1 0.3
v 0.2 0.1 -0.3
v 0.2 0.1 -0.4
v 0.2 0.2 0.4
v 0.2 0.2 0.3
v 0.2 0.2 0.2
v 0.2 0.2 -0.2
v 0.2 0.2 -0.3
v 0.2 0.2 -0.4
v 0.2 0.3 0.5
v 0.2 0.3 0.4
v 0.2 0.3 0.2
v 0.2 0.3 0.1
v 0.2 0.3 -0.1
v 0.2 0.3 -0.2
v 0.2 0.3 -0.4
v 0.2 0.3 -0.5
v 0.2 0.4 0.4
v 0.2 0.4 0.3
v 0.2 0.4 0.2
v 0.2 0.4 0.1
v 0.2 0.4 -0.1
v 0.2 0.4 -0.2
v 0.2 0.4 -0.3
v 0.2 0.4 -0.4
v 0.2 0.5 0.3
v 0.2 0.5 -0.3
v 0.3 -0.9 0.3
v 0.3 -0.9 -0.3
v 0.3 -0.8 0.5
v 0.3 -0.8 0.3
v 0.3 -0.8 -0.3
v 0.3 -0.8 -0.5
v 0.3 -0.7 0.7
v 0.3 -0.7 0.5
v 0.3 -0.7 -0.5
v 0.3 -0.7 -0.7
v 0.3 -0.5 0.8
v 0.3 -0.5 0.7
v 0.3 -0.5 0.3
v 0.3 -0.5 -0.3
v 0.3 -0.5 -0.7
v 0.3 -0.5 -0.8
v 0.3 -0.4 0.4
v 0.3 -0.4 0.3
v 0.3 -0.4 -0.3
v 0.3 -0.4 -0.4
v 0.3 -0.3 0.9
v 0.3 -0.3 0.8
v 0.3 -0.3 0.5
v 0.3 -0.3 0.4
v 0.3 -0.3 0.2
v 0.3 -0.3 -0.2
v 0.3 -0.3 -0.4
v 0.3 -0.3 -0.5
v 0.3 -0.3 -0.8
v 0.3 -0.3 -0.9
v 0.3 -0.2 0.3
v 0.3 -0.2 0.2
v 0.3 -0.2 -0.2
v 0.3 -0.2 -0.3
v 0.3 -0.1 0.1
v 0.3 -0.1 -0.1
v 0.3 0.1 0.1
v 0.3 0.1 -0.1
v 0.3 0.2 0.3
v 0.3 0.2 0.2
v 0.3 0.2 -0.2
v 0.3 0.2 -0.3
v 0.3 0.3 0.9
v 0.3 0.3 0.8
v 0.3 0.3 0.5
v 0.3 0.3 0.4
v 0.3 0.3 0.2
v 0.3 0.3 -0.2
v 0.3 0.3 -0.4
v 0.3 0.3 -0.5
v 0.3 0.3 -0.8
v 0.3 0.3 -0.9
v 0.3 0.4 0.4
v 0.3 0.4 0.3
v 0.3 0.4 -0.3
v 0.3 0.4 -0.4
v 0.3 0.5 0.8
v 0.3 0.5 0.7
v 0.3 0.5 0.3
v 0.3 0.5 -0.3
v 0.3 0.5 -0.7
v 0.3 0.5 -0.8
v 0.3 0.7 0.7
v 0.3 0.7 0.5
v 0.3 0.7 -0.5
v 0.3 0.7 -0.7
v 0.3 0.8 0.5
v 0.3 0.8 0.3
v 0.3 0.8 -0.3
v 0.3 0.8 -0.5
v 0.3 0.9 0.3
v 0.3 0.9 -0.3
v -0.3 -0.3 0.9
v -0.3 0.3 0.9
v 0.3 -0.3 0.9
v 0.3 0.3 0.9
v -0.3 -0.5 0.8
v -0.3 -0.3 0.8
v -0.3 0.3 0.8
v -0.3 0.5 0.8
v 0.3 -0.5 0.8
v 0.3 -0.3 0.8
v 0.3 0.3 0.8
v 0.3 0.5 0.8
v -0.3 -0.7 0.7
v -0.3 -0.5 0.7
v -0.3 0.5 0.7
v -0.3 0.7 0.7
v 0.3 -0.7 0.7
v 0.3 -0.5 0.7
v 0.3 0.5 0.7
v 0.3 0.7 0.7
v -0.3 -0.8 0.5
v -0.3 -0.7 0.5
v -0.3 0.7 0.5
v -0.3 0.8 0.5
v 0.3 -0.8 0.5
v 0.3 -0.7 0.5
v 0.3 0.7 0.5
v 0.3 0.8 0.5
v -0.3 -0.9 0.3
v -0.3 -0.8 0.3
v -0.3 0.8 0.3
v -0.3 0.9 0.3
v 0.2 -0.2 0.3
v 0.2 -0.1 0.3
v 0.2 0.1 0.3
v 0.2 0.2 0.3
v 0.3 -0.9 0.3
v 0.3 -0.8 0.3
v 0.3 -0.2 0.3
v 0.3 0.2 0.3
v 0.3 0.8 0.3
v 0.3 0.9 0.3
v 0.2 -0.3 0.2
v 0.2 -0.2 0.2
v 0.2 0.2 0.2
v 0.2 0.3 0.2
v 0.3 -0.3 0.2
v 0.3 -0.2 0.2
v 0.3 0.2 0.2
v 0.3 0.3 0.2
v 0.2 -0.5 -0.3
v 0.2 -0.4 -0.3
v 0.2 0.4 -0.3
v 0.2 0.5 -0.3
v 0.3 -0.5 -0.3
v 0.3 -0.4 -0.3
v 0.3 0.4 -0.3
v 0.3 0.5 -0.3
v 0.2 -0.4 -0.4
v 0.2 -0.3 -0.4
v 0.2 0.3 -0.4
v 0.2 0.4 -0.4
v 0.3 -0.4 -0.4
v 0.3 -0.3 -0.4
v 0.3 0.3 -0.4
v 0.3 0.4 -0.4
v 0.2 -0.3 -0.5
v 0.2 0.3 -0.5
v 0.3 -0.3 -0.5
v 0.3 0.3 -0.5
v 0.2 -0.3 0.5
v 0.2 0.3 0.5
v 0.3 -0.3 0.5
v 0.3 0.3 0.5
v 0.2 -0.4 0.4
v 0.2 -0.3 0.4
v 0.2 0.3 0.4
v 0.2 0.4 0.4
v 0.3 -0.4 0.4
v 0.3 -0.3 0.4
v 0.3 0.3 0.4
v 0.3 0.4 0.4
v 0.2 -0.5 0.3
v 0.2 -0.4 0.3
v 0.2 0.4 0.3
v 0.2 0.5 0.3
v 0.3 -0.5 0.3
v 0.3 -0.4 0.3
v 0.3 0.4 0.3
v 0.3 0.5 0.3
v 0.2 -0.3 -0.2
v 0.2 -0.2 -0.2
v 0.2 0.2 -0.2
v 0.2 0.3 -0.2
v 0.3 -0.3 -0.2
v 0.3 -0.2 -0.2
v 0.3 0.2 -0.2
v 0.3 0.3 -0.2
v -0.3 -0.9 -0.3
v -0.3 -0.8 -0.3
v -0.3 0.8 -0.3
v -0.3 0.9 -0.3
v 0.2 -0.2 -0.3
v 0.2 -0.1 -0.3
v 0.2 0.1 -0.3
v 0.2 0.2 -0.3
v 0.3 -0.9 -0.3
v 0.3 -0.8 -0.3
v 0.3 -0.2 -0.3
v 0.3 0.2 -0.3
v 0.3 0.8 -0.3
v 0.3 0.9 -0.3
v -0.3 -0.8 -0.5
v -0.3 -0.7 -0.5
v -0.3 0.7 -0.5
v -0.3 0.8 -0.5
v 0.3 -0.8 -0.5
v 0.3 -0.7 -0.5
v 0.3 0.7 -0.5
v 0.3 0.8 -0.5
v -0.3 -0.7 -0.7
v -0.3 -0.5 -0.7
v -0.3 0.5 -0.7
v -0.3 0.7 -0.7
v 0.3 -0.7 -0.7
v 0.3 -0.5 -0.7
v 0.3 0.5 -0.7
v 0.3 0.7 -0.7
v -0.3 -0.5 -0.8
v -0.3 -0.3 -0.8
v -0.3 0.3 -0.8
v -0.3 0.5 -0.8
v 0.3 -0.5 -0.8
v 0.3 -0.3 -0.8
v 0.3 0.3 -0.8
v 0.3 0.5 -0.8
v -0.3 -0.3 -0.9
v -0.3 0.3 -0.9
v 0.3 -0.3 -0.9
v 0.3 0.3 -0.9
v -0.3 -0.9 0.3
v 0.3 -0.9 0.3
v -0.3 -0.9 -0.3
v 0.3 -0.9 -0.3
v -0.3 -0.8 0.5
v 0.3 -0.8 0.5
v -0.3 -0.8 0.3
v 0.3 -0.8 0.3
v -0.3 -0.8 -0.3
v 0.3 -0.8 -0.3
v -0.3 -0.8 -0.5
v 0.3 -0.8 -0.5
v -0.3 -0.7 0.7
v 0.3 -0.7 0.7
v -0.3 -0.7 0.5
v 0.3 -0.7 0.5
v -0.3 -0.7 -0.5
v 0.3 -0.7 -0.5
v -0.3 -0.7 -0.7
v 0.3 -0.7 -0.7
v -0.3 -0.5 0.8
v 0.3 -0.5 0.8
v -0.3 -0.5 0.7
v 0.3 -0.5 0.7
v -0.3 -0.5 -0.7
v 0.3 -0.5 -0.7
v -0.3 -0.5 -0.8
v 0.3 -0.5 -0.8
v -0.3 -0.3 0.9
v 0.3 -0.3 0.9
v -0.3 -0.3 0.8
v 0.3 -0.3 0.8
v 0.2 -0.3 0.2
v 0.3 -0.3 0.2
v 0.2 -0.3 0.1
v 0.2 -0.3 -0.1
v 0.2 -0.3 -0.2
v 0.3 -0.3 -0.2
v -0.3 -0.3 -0.8
v 0.3 -0.3 -0.8
v -0.3 -0.3 -0.9
v 0.3 -0.3 -0.9
v 0.2 -0.2 0.3
v 0.3 -0.2 0.3
v 0.2 -0.2 0.2
v 0.3 -0.2 0.2
v 0.2 -0.2 -0.2
v 0.3 -0.2 -0.2
v 0.2 -0.2 -0.3
v 0.3 -0.2 -0.3
v 0.2 0.3 0.5
v 0.3 0.3 0.5
v 0.2 0.3 0.4
v 0.3 0.3 0.4
v 0.2 0.3 -0.4
v 0.3 0.3 -0.4
v 0.2 0.3 -0.5
v 0.3 0.3 -0.5
v 0.2 0.4 0.4
v 0.3 0.4 0.4
v 0.2 0.4 0.3
v 0.3 0.4 0.3
v 0.2 0.4 -0.3
v 0.3 0.4 -0.3
v 0.2 0.4 -0.4
v 0.3 0.4 -0.4
v 0.2 0.5 0.3
v 0.3 0.5 0.3
v 0.2 0.5 -0.3
v 0.3 0.5 -0.3
v 0.2 -0.5 0.3
v 0.3 -0.5 0.3
v 0.2 -0.5 -0.3
v 0.3 -0.5 -0.3
v 0.2 -0.4 0.4
v 0.3 -0.4 0.4
v 0.2 -0.4 0.3
v 0.3 -0.4 0.3
v 0.2 -0.4 -0.3
v 0.3 -0.4 -0.3
v 0.2 -0.4 -0.4
v 0.3 -0.4 -0.4
v 0.2 -0.3 0.5
v 0.3 -0.3 0.5
v 0.2 -0.3 0.4
v 0.3 -0.3 0.4
v 0.2 -0.3 -0.4
v 0.3 -0.3 -0.4
v 0.2 -0.3 -0.5
v 0.3 -0.3 -0.5
v 0.2 0.2 0.3
v 0.3 0.2 0.3
v 0.2 0.2 0.2
v 0.3 0.2 0.2
v 0.2 0.2 -0.2
v 0.3 0.2 -0.2
v 0.2 0.2 -0.3
v 0.3 0.2 -0.3
v -0.3 0.3 0.9
v 0.3 0.3 0.9
v -0.3 0.3 0.8
v 0.3 0.3 0.8
v 0.2 0.3 0.2
v 0.3 0.3 0.2
v 0.2 0.3 0.1
v 0.2 0.3 -0.1
v 0.2 0.3 -0.2
v 0.3 0.3 -0.2
v -0.3 0.3 -0.8
v 0.3 0.3 -0.8
v -0.3 0.3 -0.9
v 0.3 0.3 -0.9
v -0.3 0.5 0.8
v 0.3 0.5 0.8
v -0.3 0.5 0.7
v 0.3 0.5 0.7
v -0.3 0.5 -0.7
v 0.3 0.5 -0.7
v -0.3 0.5 -0.8
v 0.3 0.5 -0.8
v -0.3 0.7 0.7
v 0.3 0.7 0.7
v -0.3 0.7 0.5
v 0.3 0.7 0.5
v -0.3 0.7 -0.5
v 0.3 0.7 -0.5
v -0.3 0.7 -0.7
v 0.3 0.7 -0.7
v -0.3 0.8 0.5
v 0.3 0.8 0.5
v -0.3 0.8 0.3
v 0.3 0.8 0.3
v -0.3 0.8 -0.3
v 0.3 0.8 -0.3
v -0.3 0.8 -0.5
v 0.3 0.8 -0.5
v -0.3 0.9 0.3
v 0.3 0.9 0.3
v -0.3 0.9 -0.3
v 0.3 0.9 -0.3

# faces
f 4/3/1 2/3/1 1/3/1
f 5/3/1 2/3/1 4/3/1
f 8/3/1 4/3/1 3/3/1
f 8/3/1 6/3/1 5/3/1
f 8/3/1 5/3/1 4/3/1
f 9/3/1 6/3/1 8/3/1
f 12/3/1 8/3/1 7/3/1
f 12/3/1 10/3/1 9/3/1
f 12/3/1 9/3/1 8/3/1
f 13/3/1 10/3/1 12/3/1
f 16/3/1 12/3/1 11/3/1
f 16/3/1 14/3/1 13/3/1
f 16/3/1 13/3/1 12/3/1
f 17/3/1 14/3/1 16/3/1
f 19/3/1 16/3/1 15/3/1
f 19/3/1 18/3/1 17/3/1
f 19/3/1 17/3/1 16/3/1
f 20/3/1 18/3/1 19/3/1
f 21/3/1 18/3/1 20/3/1
f 22/3/1 18/3/1 21/3/1
f 23/3/1 21/3/1 20/3/1
f 24/3/1 21/3/1 23/3/1
f 25/3/1 21/3/1 24/3/1
f 26/3/1 21/3/1 25/3/1
f 27/3/1 25/3/1 24/3/1
f 28/3/1 25/3/1 27/3/1
f 29/3/1 25/3/1 28/3/1
f 30/3/1 25/3/1 29/3/1
f 31/3/1 29/3/1 28/3/1
f 32/3/1 29/3/1 31/3/1
f 33/3/1 29/3/1 32/3/1
f 34/3/1 29/3/1 33/3/1
f 35/3/1 33/3/1 32/3/1
f 36/3/1 33/3/1 35/3/1
f 37/1/2 38/1/2 40/1/2
f 40/1/2 38/1/2 41/1/2
f 41/1/2 38/1/2 42/1/2
f 42/1/2 38/1/2 43/1/2
f 43/1/2 38/1/2 44/1/2
f 44/1/2 38/1/2 45/1/2
f 39/1/2 40/1/2 48/1/2
f 40/1/2 41/1/2 48/1/2
f 41/2/2 42/2/2 49/2/2
f 48/1/2 41/1/2 49/1/2
f 42/1/2 43/1/2 50/1/2
f 49/2/2 42/2/2 50/2/2
f 43/2/2 44/2/2 51/2/2
f 50/1/2 43/1/2 51/1/2
f 45/1/2 46/1/2 52/1/2
f 51/2/2 44/2/2 52/2/2
f 44/1/2 45/1/2 52/1/2
f 52/1/2 46/1/2 53/1/2
f 47/1/2 48/1/2 55/1/2
f 48/1/2 49/1/2 55/1/2
f 55/1/2 49/1/2 56/1/2
f 56/1/2 49/1/2 57/1/2
f 53/1/2 54/1/2 58/1/2
f 52/1/2 53/1/2 58/1/2
f 58/1/2 54/1/2 59/1/2
f 59/1/2 54/1/2 60/1/2
f 55/2/2 56/2/2 61/2/2
f 47/1/2 55/1/2 61/1/2
f 61/2/2 56/2/2 62/2/2
f 59/2/2 60/2/2 63/2/2
f 60/1/2 54/1/2 64/1/2
f 63/2/2 60/2/2 64/2/2
f 61/1/2 62/1/2 65/1/2
f 47/1/2 61/1/2 65/1/2
f 65/1/2 62/1/2 66/1/2
f 63/1/2 64/1/2 67/1/2
f 64/1/2 54/1/2 68/1/2
f 67/1/2 64/1/2 68/1/2
f 65/2/2 66/2/2 69/2/2
f 47/1/2 65/1/2 69/1/2
f 69/2/2 66/2/2 70/2/2
f 67/2/2 68/2/2 73/2/2
f 68/1/2 54/1/2 74/1/2
f 73/2/2 68/2/2 74/2/2
f 70/1/2 71/1/2 75/1/2
f 47/1/2 69/1/2 75/1/2
f 69/1/2 70/1/2 75/1/2
f 75/1/2 71/1/2 76/1/2
f 76/1/2 71/1/2 77/1/2
f 72/1/2 73/1/2 80/1/2
f 73/1/2 74/1/2 80/1/2
f 74/1/2 54/1/2 81/1/2
f 80/1/2 74/1/2 81/1/2
f 81/1/2 54/1/2 82/1/2
f 76/1/2 77/1/2 83/1/2
f 83/1/2 77/1/2 84/1/2
f 77/2/2 78/2/2 85/2/2
f 84/1/2 77/1/2 85/1/2
f 78/1/2 79/1/2 86/1/2
f 85/2/2 78/2/2 86/2/2
f 79/2/2 80/2/2 87/2/2
f 86/1/2 79/1/2 87/1/2
f 80/1/2 81/1/2 88/1/2
f 87/2/2 80/2/2 88/2/2
f 88/1/2 81/1/2 89/1/2
f 89/1/2 81/1/2 90/1/2
f 84/1/2 85/1/2 91/1/2
f 85/1/2 86/1/2 91/1/2
f 88/1/2 89/1/2 91/1/2
f 87/1/2 88/1/2 91/1/2
f 86/1/2 87/1/2 91/1/2
f 91/1/2 89/1/2 92/1/2
f 93/3/2 94/3/2 96/3/2
f 96/3/2 94/3/2 97/3/2
f 95/3/2 96/3/2 100/3/2
f 97/3/2 98/3/2 100/3/2
f 96/3/2 97/3/2 100/3/2
f 100/3/2 98/3/2 101/3/2
f 99/3/2 100/3/2 104/3/2
f 101/3/2 102/3/2 104/3/2
f 100/3/2 101/3/2 104/3/2
f 104/3/2 102/3/2 105/3/2
f 105/3/2 102/3/2 106/3/2
f 106/3/2 102/3/2 107/3/2
f 103/3/2 104/3/2 109/3/2
f 104/3/2 105/3/2 109/3/2
f 109/3/2 105/3/2 110/3/2
f 107/3/2 108/3/2 111/3/2
f 106/3/2 107/3/2 111/3/2
f 111/3/2 108/3/2 112/3/2
f 103/3/2 109/3/2 114/3/2
f 114/3/2 109/3/2 115/3/2
f 115/3/2 109/3/2 116/3/2
f 112/3/2 108/3/2 119/3/2
f 119/3/2 108/3/2 120/3/2
f 120/3/2 108/3/2 121/3/2
f 117/1/2 118/1/2 124/1/2
f 124/1/2 118/1/2 125/1/2
f 123/1/2 124/1/2 127/1/2
f 125/1/2 126/1/2 127/1/2
f 124/1/2 125/1/2 127/1/2
f 127/1/2 126/1/2 128/1/2
f 123/1/2 127/1/2 129/1/2
f 127/2/2 128/2/2 129/2/2
f 128/1/2 126/1/2 130/1/2
f 129/2/2 128/2/2 130/2/2
f 123/1/2 129/1/2 131/1/2
f 129/1/2 130/1/2 131/1/2
f 131/1/2 130/1/2 132/1/2
f 130/1/2 126/1/2 133/1/2
f 132/1/2 130/1/2 133/1/2
f 133/1/2 126/1/2 134/1/2
f 113/3/2 114/3/2 135/3/2
f 114/3/2 115/3/2 135/3/2
f 135/3/2 115/3/2 136/3/2
f 136/3/2 115/3/2 137/3/2
f 132/1/2 133/1/2 139/1/2
f 139/1/2 133/1/2 140/1/2
f 120/3/2 121/3/2 142/3/2
f 121/3/2 122/3/2 142/3/2
f 142/3/2 122/3/2 143/3/2
f 143/3/2 122/3/2 144/3/2
f 137/3/2 138/3/2 145/3/2
f 136/3/2 137/3/2 145/3/2
f 142/3/2 143/3/2 148/3/2
f 141/3/2 142/3/2 148/3/2
f 145/3/2 146/3/2 149/3/2
f 136/3/2 145/3/2 149/3/2
f 149/3/2 146/3/2 150/3/2
f 150/3/2 146/3/2 151/3/2
f 147/3/2 148/3/2 152/3/2
f 148/3/2 143/3/2 153/3/2
f 152/3/2 148/3/2 153/3/2
f 153/3/2 143/3/2 154/3/2
f 150/3/2 151/3/2 155/3/2
f 151/3/2 152/3/2 155/3/2
f 152/3/2 153/3/2 155/3/2
f 155/3/2 153/3/2 156/3/2
f 156/3/2 153/3/2 157/3/2
f 157/3/2 153/3/2 158/3/2
f 156/3/2 157/3/2 159/3/2
f 159/3/2 157/3/2 160/3/2
f 160/3/2 157/3/2 161/3/2
f 161/3/2 157/3/2 162/3/2
f 160/3/2 161/3/2 163/3/2
f 163/3/2 161/3/2 164/3/2
f 167/3/3 166/3/3 165/3/3
f 168/3/3 166/3/3 167/3/3
f 173/3/3 170/3/3 169/3/3
f 174/3/3 170/3/3 173/3/3
f 175/3/3 172/3/3 171/3/3
f 176/3/3 172/3/3 175/3/3
f 181/3/3 178/3/3 177/3/3
f 182/3/3 178/3/3 181/3/3
f 183/3/3 180/3/3 179/3/3
f 184/3/3 180/3/3 183/3/3
f 189/3/3 186/3/3 185/3/3
f 190/3/3 186/3/3 189/3/3
f 191/3/3 188/3/3 187/3/3
f 192/3/3 188/3/3 191/3/3
f 201/3/3 194/3/3 193/3/3
f 202/3/3 194/3/3 201/3/3
f 203/1/3 200/1/3 199/1/3
f 203/1/3 198/1/3 197/1/3
f 203/1/3 199/1/3 198/1/3
f 204/1/3 200/1/3 203/1/3
f 205/3/3 196/3/3 195/3/3
f 206/3/3 196/3/3 205/3/3
f 211/1/3 208/1/3 207/1/3
f 212/1/3 208/1/3 211/1/3
f 213/1/3 210/1/3 209/1/3
f 214/1/3 210/1/3 213/1/3
f 219/3/3 216/3/3 215/3/3
f 220/3/3 216/3/3 219/3/3
f 221/3/3 218/3/3 217/3/3
f 222/3/3 218/3/3 221/3/3
f 227/3/3 224/3/3 223/3/3
f 228/3/3 224/3/3 227/3/3
f 229/3/3 226/3/3 225/3/3
f 230/3/3 226/3/3 229/3/3
f 233/3/3 232/3/3 231/3/3
f 234/3/3 232/3/3 233/3/3
f 235/3/4 236/3/4 237/3/4
f 237/3/4 236/3/4 238/3/4
f 239/3/4 240/3/4 243/3/4
f 243/3/4 240/3/4 244/3/4
f 241/3/4 242/3/4 245/3/4
f 245/3/4 242/3/4 246/3/4
f 247/3/4 248/3/4 251/3/4
f 251/3/4 248/3/4 252/3/4
f 249/3/4 250/3/4 253/3/4
f 253/3/4 250/3/4 254/3/4
f 255/1/4 256/1/4 259/1/4
f 259/1/4 256/1/4 260/1/4
f 257/1/4 258/1/4 261/1/4
f 261/1/4 258/1/4 262/1/4
f 263/3/4 264/3/4 271/3/4
f 271/3/4 264/3/4 272/3/4
f 269/1/4 270/1/4 273/1/4
f 267/1/4 268/1/4 273/1/4
f 268/1/4 269/1/4 273/1/4
f 273/1/4 270/1/4 274/1/4
f 265/3/4 266/3/4 275/3/4
f 275/3/4 266/3/4 276/3/4
f 277/3/4 278/3/4 281/3/4
f 281/3/4 278/3/4 282/3/4
f 279/3/4 280/3/4 283/3/4
f 283/3/4 280/3/4 284/3/4
f 285/3/4 286/3/4 289/3/4
f 289/3/4 286/3/4 290/3/4
f 287/3/4 288/3/4 291/3/4
f 291/3/4 288/3/4 292/3/4
f 293/3/4 294/3/4 297/3/4
f 297/3/4 294/3/4 298/3/4
f 295/3/4 296/3/4 299/3/4
f 299/3/4 296/3/4 300/3/4
f 301/3/4 302/3/4 303/3/4
f 303/3/4 302/3/4 304/3/4
f 307/3/5 306/3/5 305/3/5
f 308/3/5 306/3/5 307/3/5
f 311/3/5 310/3/5 309/3/5
f 312/3/5 310/3/5 311/3/5
f 315/3/5 314/3/5 313/3/5
f 316/3/5 314/3/5 315/3/5
f 319/3/5 318/3/5 317/3/5
f 320/3/5 318/3/5 319/3/5
f 323/3/5 322/3/5 321/3/5
f 324/3/5 322/3/5 323/3/5
f 327/3/5 326/3/5 325/3/5
f 328/3/5 326/3/5 327/3/5
f 331/3/5 330/3/5 329/3/5
f 332/3/5 330/3/5 331/3/5
f 335/3/5 334/3/5 333/3/5
f 336/3/5 334/3/5 335/3/5
f 339/1/5 338/1/5 337/1/5
f 340/1/5 338/1/5 339/1/5
f 341/1/5 338/1/5 340/1/5
f 342/1/5 338/1/5 341/1/5
f 345/3/5 344/3/5 343/3/5
f 346/3/5 344/3/5 345/3/5
f 349/1/5 348/1/5 347/1/5
f 350/1/5 348/1/5 349/1/5
f 353/1/5 352/1/5 351/1/5
f 354/1/5 352/1/5 353/1/5
f 357/3/5 356/3/5 355/3/5
f 358/3/5 356/3/5 357/3/5
f 361/3/5 360/3/5 359/3/5
f 362/3/5 360/3/5 361/3/5
f 365/3/5 364/3/5 363/3/5
f 366/3/5 364/3/5 365/3/5
f 369/3/5 368/3/5 367/3/5
f 370/3/5 368/3/5 369/3/5
f 373/3/5 372/3/5 371/3/5
f 374/3/5 372/3/5 373/3/5
f 375/3/6 376/3/6 377/3/6
f 377/3/6 376/3/6 378/3/6
f 379/3/6 380/3/6 381/3/6
f 381/3/6 380/3/6 382/3/6
f 383/3/6 384/3/6 385/3/6
f 385/3/6 384/3/6 386/3/6
f 387/3/6 388/3/6 389/3/6
f 389/3/6 388/3/6 390/3/6
f 391/3/6 392/3/6 393/3/6
f 393/3/6 392/3/6 394/3/6
f 395/1/6 396/1/6 397/1/6
f 397/1/6 396/1/6 398/1/6
f 399/1/6 400/1/6 401/1/6
f 401/1/6 400/1/6 402/1/6
f 403/3/6 404/3/6 405/3/6
f 405/3/6 404/3/6 406/3/6
f 407/1/6 408/1/6 409/1/6
f 409/1/6 408/1/6 410/1/6
f 410/1/6 408/1/6 411/1/6
f 411/1/6 408/1/6 412/1/6
f 413/3/6 414/3/6 415/3/6
f 415/3/6 414/3/6 416/3/6
f 417/3/6 418/3/6 419/3/6
f 419/3/6 418/3/6 420/3/6
f 421/3/6 422/3/6 423/3/6
f 423/3/6 422/3/6 424/3/6
f 425/3/6 426/3/6 427/3/6
f 427/3/6 426/3/6 428/3/6
f 429/3/6 430/3/6 431/3/6
f 431/3/6 430/3/6 432/3/6
f 433/3/6 434/3/6 435/3/6
f 435/3/6 434/3/6 436/3/6
f 437/3/6 438/3/6 439/3/6
f 439/3/6 438/3/6 440/3/6
f 441/3/6 442/3/6 443/3/6
f 443/3/6 442/3/6 444/3/6
