# MagicaVoxel @ Ephtracy

# group
o 

# material
mtllib shotgun.mtl
usemtl palette

# normals
vn -1 0 0
vn 1 0 0
vn 0 0 1
vn 0 0 -1
vn 0 -1 0
vn 0 1 0

# texcoords
vt 0.0683594 0.5
vt 0.986328 0.5
vt 0.990234 0.5

# verts
v 0 2 -0.1
v 0 2 -0.3
v 0 2.4 -0.1
v 0 2.4 -0.3
v 0.1 2.4 -0.1
v 0.1 2.4 -0.3
v 0.1 2.5 -0.1
v 0.1 2.5 -0.3
v 0.2 2.5 -0.1
v 0.2 2.5 -0.3
v 0.2 2.6 -0.1
v 0.2 2.6 -0.3
v 0.3 2.6 0
v 0.3 2.6 -0.1
v 0.3 2.6 -0.3
v 0.3 2.6 -0.4
v 0.3 2.7 -0.1
v 0.3 2.7 -0.3
v 0.3 2.8 0
v 0.3 2.8 -0.4
v 0.2 2 -0.1
v 0.2 2 -0.3
v 0.2 2.2 -0.1
v 0.2 2.2 -0.3
v 0.4 2.2 -0.1
v 0.4 2.2 -0.3
v 0.4 2.4 -0.1
v 0.4 2.4 -0.3
v 0.8 2.4 -0.1
v 0.8 2.4 -0.3
v 0.8 2.6 -0.1
v 0.8 2.6 -0.3
v 2.4 2.6 0
v 2.4 2.6 -0.4
v 2.4 2.8 0
v 2.4 2.8 -0.4
v 0.3 2.6 0
v 0.3 2.8 0
v 0.8 2.6 0
v 0.8 2.8 0
v 2.4 2.6 0
v 2.4 2.8 0
v 0 2 -0.1
v 0 2.4 -0.1
v 0.1 2.4 -0.1
v 0.1 2.5 -0.1
v 0.2 2 -0.1
v 0.2 2.2 -0.1
v 0.2 2.5 -0.1
v 0.2 2.6 -0.1
v 0.3 2.6 -0.1
v 0.4 2.2 -0.1
v 0.4 2.4 -0.1
v 0.8 2.4 -0.1
v 0.8 2.6 -0.1
v 0 2 -0.3
v 0 2.4 -0.3
v 0.1 2.4 -0.3
v 0.1 2.5 -0.3
v 0.2 2 -0.3
v 0.2 2.2 -0.3
v 0.2 2.5 -0.3
v 0.2 2.6 -0.3
v 0.3 2.6 -0.3
v 0.4 2.2 -0.3
v 0.4 2.4 -0.3
v 0.8 2.4 -0.3
v 0.8 2.6 -0.3
v 0.3 2.6 -0.4
v 0.3 2.8 -0.4
v 0.8 2.6 -0.4
v 0.8 2.8 -0.4
v 2.4 2.6 -0.4
v 2.4 2.8 -0.4
v 0 2 -0.1
v 0.2 2 -0.1
v 0 2 -0.3
v 0.2 2 -0.3
v 0.2 2.2 -0.1
v 0.4 2.2 -0.1
v 0.2 2.2 -0.3
v 0.4 2.2 -0.3
v 0.4 2.4 -0.1
v 0.8 2.4 -0.1
v 0.4 2.4 -0.3
v 0.8 2.4 -0.3
v 0.3 2.6 0
v 0.8 2.6 0
v 2.4 2.6 0
v 0.3 2.6 -0.1
v 0.8 2.6 -0.1
v 0.3 2.6 -0.3
v 0.8 2.6 -0.3
v 0.3 2.6 -0.4
v 0.8 2.6 -0.4
v 2.4 2.6 -0.4
v 0 2.4 -0.1
v 0.1 2.4 -0.1
v 0 2.4 -0.3
v 0.1 2.4 -0.3
v 0.1 2.5 -0.1
v 0.2 2.5 -0.1
v 0.1 2.5 -0.3
v 0.2 2.5 -0.3
v 0.2 2.6 -0.1
v 0.3 2.6 -0.1
v 0.2 2.6 -0.3
v 0.3 2.6 -0.3
v 0.3 2.8 0
v 0.8 2.8 0
v 2.4 2.8 0
v 0.3 2.8 -0.4
v 0.8 2.8 -0.4
v 2.4 2.8 -0.4

# faces
f 3/1/1 2/1/1 1/1/1
f 4/1/1 2/1/1 3/1/1
f 7/1/1 6/1/1 5/1/1
f 8/1/1 6/1/1 7/1/1
f 11/1/1 10/1/1 9/1/1
f 12/1/1 10/1/1 11/1/1
f 17/3/1 14/3/1 13/3/1
f 17/1/1 15/1/1 14/1/1
f 18/3/1 16/3/1 15/3/1
f 18/1/1 15/1/1 17/1/1
f 19/3/1 17/3/1 13/3/1
f 19/3/1 18/3/1 17/3/1
f 20/3/1 16/3/1 18/3/1
f 20/3/1 18/3/1 19/3/1
f 21/1/2 22/1/2 23/1/2
f 23/1/2 22/1/2 24/1/2
f 25/1/2 26/1/2 27/1/2
f 27/1/2 26/1/2 28/1/2
f 29/1/2 30/1/2 31/1/2
f 31/1/2 30/1/2 32/1/2
f 33/2/2 34/2/2 35/2/2
f 35/2/2 34/2/2 36/2/2
f 39/3/3 38/3/3 37/3/3
f 40/3/3 38/3/3 39/3/3
f 41/2/3 40/2/3 39/2/3
f 42/2/3 40/2/3 41/2/3
f 45/1/3 44/1/3 43/1/3
f 47/1/3 45/1/3 43/1/3
f 47/1/3 46/1/3 45/1/3
f 48/1/3 46/1/3 47/1/3
f 49/1/3 46/1/3 48/1/3
f 51/1/3 50/1/3 49/1/3
f 51/1/3 49/1/3 48/1/3
f 52/1/3 51/1/3 48/1/3
f 53/1/3 51/1/3 52/1/3
f 54/1/3 51/1/3 53/1/3
f 55/1/3 51/1/3 54/1/3
f 56/1/4 57/1/4 58/1/4
f 56/1/4 58/1/4 60/1/4
f 58/1/4 59/1/4 60/1/4
f 60/1/4 59/1/4 61/1/4
f 61/1/4 59/1/4 62/1/4
f 62/1/4 63/1/4 64/1/4
f 61/1/4 62/1/4 64/1/4
f 61/1/4 64/1/4 65/1/4
f 65/1/4 64/1/4 66/1/4
f 66/1/4 64/1/4 67/1/4
f 67/1/4 64/1/4 68/1/4
f 69/3/4 70/3/4 71/3/4
f 71/3/4 70/3/4 72/3/4
f 71/2/4 72/2/4 73/2/4
f 73/2/4 72/2/4 74/2/4
f 77/1/5 76/1/5 75/1/5
f 78/1/5 76/1/5 77/1/5
f 81/1/5 80/1/5 79/1/5
f 82/1/5 80/1/5 81/1/5
f 85/1/5 84/1/5 83/1/5
f 86/1/5 84/1/5 85/1/5
f 90/3/5 88/3/5 87/3/5
f 91/2/5 89/2/5 88/2/5
f 91/3/5 88/3/5 90/3/5
f 93/2/5 89/2/5 91/2/5
f 94/3/5 93/3/5 92/3/5
f 95/2/5 89/2/5 93/2/5
f 95/3/5 93/3/5 94/3/5
f 96/2/5 89/2/5 95/2/5
f 97/1/6 98/1/6 99/1/6
f 99/1/6 98/1/6 100/1/6
f 101/1/6 102/1/6 103/1/6
f 103/1/6 102/1/6 104/1/6
f 105/1/6 106/1/6 107/1/6
f 107/1/6 106/1/6 108/1/6
f 109/3/6 110/3/6 112/3/6
f 110/2/6 111/2/6 113/2/6
f 112/3/6 110/3/6 113/3/6
f 113/2/6 111/2/6 114/2/6
