# MagicaVoxel @ Ephtracy

# group
o 

# material
mtllib player-5.mtl
usemtl palette

# normals
vn -1 0 0
vn 1 0 0
vn 0 0 1
vn 0 0 -1
vn 0 -1 0
vn 0 1 0

# texcoords
vt 0.810547 0.5
vt 0.822266 0.5
vt 0.826172 0.5
vt 0.990234 0.5

# verts
v -0.5 0 0.3
v -0.5 0 -0.3
v -0.5 0.2 0.3
v -0.5 0.2 -0.1
v -0.5 0.2 -0.3
v -0.5 0.7 0.3
v -0.5 0.7 0.2
v -0.5 0.7 -0.1
v -0.5 0.7 -0.2
v -0.5 0.9 0.2
v -0.5 0.9 0.1
v -0.5 0.9 -0.2
v -0.5 0.9 -0.3
v -0.5 1 0.2
v -0.5 1 0.1
v -0.5 1.1 0.3
v -0.5 1.1 0.2
v -0.5 1.3 0.3
v -0.5 1.3 0.2
v -0.5 1.4 0.2
v -0.5 1.4 0.1
v -0.5 1.5 0.1
v -0.5 1.5 -0.3
v -0.5 1.6 0.3
v -0.5 1.6 -0.3
v 0.1 0 -0.1
v 0.1 0 -0.7
v 0.1 0.2 -0.1
v 0.1 0.2 -0.5
v 0.1 0.2 -0.7
v 0.1 0.6 -2.98023e-008
v 0.1 0.6 -0.1
v 0.1 0.6 -0.4
v 0.1 0.6 -0.5
v 0.1 0.8 0.1
v 0.1 0.8 -2.98023e-008
v 0.1 0.8 -0.3
v 0.1 0.8 -0.4
v 0.1 1 0.1
v 0.1 1 -0.3
v -0.1 0 0.3
v -0.1 0 -0.3
v -0.1 0.2 0.3
v -0.1 0.2 -0.1
v -0.1 0.2 -0.3
v -0.1 0.7 0.3
v -0.1 0.7 0.2
v -0.1 0.7 -0.1
v -0.1 0.7 -0.2
v -0.1 0.9 0.2
v -0.1 0.9 0.1
v -0.1 0.9 -0.2
v -0.1 0.9 -0.3
v -0.1 1 0.1
v -0.1 1 -0.3
v 0.5 0 -0.1
v 0.5 0 -0.7
v 0.5 0.2 -0.1
v 0.5 0.2 -0.5
v 0.5 0.2 -0.7
v 0.5 0.6 -2.98023e-008
v 0.5 0.6 -0.1
v 0.5 0.6 -0.4
v 0.5 0.6 -0.5
v 0.5 0.8 0.1
v 0.5 0.8 -2.98023e-008
v 0.5 0.8 -0.3
v 0.5 0.8 -0.4
v 0.5 1 0.2
v 0.5 1 0.1
v 0.5 1.1 0.3
v 0.5 1.1 0.2
v 0.5 1.6 0.3
v 0.5 1.6 -0.3
v -0.5 0 0.3
v -0.5 0.2 0.3
v -0.5 0.7 0.3
v -0.5 1.1 0.3
v -0.5 1.3 0.3
v -0.5 1.6 0.3
v -0.3 1.3 0.3
v -0.3 1.4 0.3
v -0.1 0 0.3
v -0.1 0.2 0.3
v -0.1 0.7 0.3
v -0.1 1.4 0.3
v -0.1 1.5 0.3
v 0.2 1.5 0.3
v 0.2 1.6 0.3
v 0.5 1.1 0.3
v 0.5 1.6 0.3
v -0.5 0.7 0.2
v -0.5 0.9 0.2
v -0.5 1 0.2
v -0.5 1.1 0.2
v -0.1 0.7 0.2
v -0.1 0.9 0.2
v 0.5 1 0.2
v 0.5 1.1 0.2
v -0.5 0.9 0.1
v -0.5 1 0.1
v -0.1 0.9 0.1
v -0.1 1 0.1
v 0.1 0.8 0.1
v 0.1 1 0.1
v 0.5 0.8 0.1
v 0.5 1 0.1
v 0.1 0.6 -2.98023e-008
v 0.1 0.8 -2.98023e-008
v 0.5 0.6 -2.98023e-008
v 0.5 0.8 -2.98023e-008
v 0.1 0 -0.1
v 0.1 0.2 -0.1
v 0.1 0.6 -0.1
v 0.5 0 -0.1
v 0.5 0.2 -0.1
v 0.5 0.6 -0.1
v -0.5 0.2 -0.1
v -0.5 0.7 -0.1
v -0.1 0.2 -0.1
v -0.1 0.7 -0.1
v -0.5 0.7 -0.2
v -0.5 0.9 -0.2
v -0.1 0.7 -0.2
v -0.1 0.9 -0.2
v -0.5 0 -0.3
v -0.5 0.2 -0.3
v -0.5 0.9 -0.3
v -0.5 1.5 -0.3
v -0.5 1.6 -0.3
v -0.1 0 -0.3
v -0.1 0.2 -0.3
v -0.1 0.9 -0.3
v -0.1 1 -0.3
v -0.1 1.5 -0.3
v -0.1 1.6 -0.3
v 0 1.5 -0.3
v 0 1.6 -0.3
v 0.1 0.8 -0.3
v 0.1 1 -0.3
v 0.5 0.8 -0.3
v 0.5 1.6 -0.3
v 0.1 0.6 -0.4
v 0.1 0.8 -0.4
v 0.5 0.6 -0.4
v 0.5 0.8 -0.4
v 0.1 0.2 -0.5
v 0.1 0.6 -0.5
v 0.5 0.2 -0.5
v 0.5 0.6 -0.5
v 0.1 0 -0.7
v 0.1 0.2 -0.7
v 0.5 0 -0.7
v 0.5 0.2 -0.7
v -0.5 0 0.3
v -0.1 0 0.3
v 0.1 0 -0.1
v 0.5 0 -0.1
v -0.5 0 -0.3
v -0.1 0 -0.3
v 0.1 0 -0.7
v 0.5 0 -0.7
v 0.1 0.6 -2.98023e-008
v 0.5 0.6 -2.98023e-008
v 0.1 0.6 -0.1
v 0.5 0.6 -0.1
v -0.5 0.7 -0.1
v -0.1 0.7 -0.1
v -0.5 0.7 -0.2
v -0.1 0.7 -0.2
v 0.1 0.8 0.1
v 0.5 0.8 0.1
v 0.1 0.8 -2.98023e-008
v 0.5 0.8 -2.98023e-008
v -0.5 0.9 -0.2
v -0.1 0.9 -0.2
v -0.5 0.9 -0.3
v -0.1 0.9 -0.3
v -0.5 1 0.2
v 0.5 1 0.2
v -0.5 1 0.1
v -0.1 1 0.1
v 0.1 1 0.1
v 0.5 1 0.1
v -0.1 1 -0.3
v 0.1 1 -0.3
v -0.5 1.1 0.3
v 0.5 1.1 0.3
v -0.5 1.1 0.2
v 0.5 1.1 0.2
v -0.5 0.2 -0.1
v -0.1 0.2 -0.1
v -0.5 0.2 -0.3
v -0.1 0.2 -0.3
v 0.1 0.2 -0.5
v 0.5 0.2 -0.5
v 0.1 0.2 -0.7
v 0.5 0.2 -0.7
v 0.1 0.6 -0.4
v 0.5 0.6 -0.4
v 0.1 0.6 -0.5
v 0.5 0.6 -0.5
v -0.5 0.7 0.3
v -0.1 0.7 0.3
v -0.5 0.7 0.2
v -0.1 0.7 0.2
v 0.1 0.8 -0.3
v 0.5 0.8 -0.3
v 0.1 0.8 -0.4
v 0.5 0.8 -0.4
v -0.5 0.9 0.2
v -0.1 0.9 0.2
v -0.5 0.9 0.1
v -0.1 0.9 0.1
v -0.5 1.6 0.3
v 0.2 1.6 0.3
v 0.5 1.6 0.3
v 0.1 1.6 0.2
v 0.2 1.6 0.2
v 0 1.6 0.1
v 0.1 1.6 0.1
v -0.1 1.6 -0.2
v 0 1.6 -0.2
v -0.5 1.6 -0.3
v -0.1 1.6 -0.3
v 0 1.6 -0.3
v 0.5 1.6 -0.3

# faces
f 3/4/1 2/4/1 1/4/1
f 4/4/1 2/4/1 3/4/1
f 5/4/1 2/4/1 4/4/1
f 6/1/1 4/1/1 3/1/1
f 7/1/1 4/1/1 6/1/1
f 8/1/1 4/1/1 7/1/1
f 10/1/1 9/1/1 8/1/1
f 10/1/1 8/1/1 7/1/1
f 11/1/1 9/1/1 10/1/1
f 12/1/1 9/1/1 11/1/1
f 15/1/1 13/1/1 12/1/1
f 15/1/1 12/1/1 11/1/1
f 17/1/1 15/1/1 14/1/1
f 18/1/1 17/1/1 16/1/1
f 19/1/1 15/1/1 17/1/1
f 19/1/1 17/1/1 18/1/1
f 20/2/1 19/2/1 18/2/1
f 20/1/1 15/1/1 19/1/1
f 21/1/1 13/1/1 15/1/1
f 21/1/1 15/1/1 20/1/1
f 22/2/1 21/2/1 20/2/1
f 22/1/1 13/1/1 21/1/1
f 23/1/1 13/1/1 22/1/1
f 24/2/1 20/2/1 18/2/1
f 24/2/1 22/2/1 20/2/1
f 24/2/1 23/2/1 22/2/1
f 25/2/1 23/2/1 24/2/1
f 28/4/1 27/4/1 26/4/1
f 29/4/1 27/4/1 28/4/1
f 30/4/1 27/4/1 29/4/1
f 32/1/1 29/1/1 28/1/1
f 33/1/1 29/1/1 32/1/1
f 34/1/1 29/1/1 33/1/1
f 36/1/1 32/1/1 31/1/1
f 36/1/1 33/1/1 32/1/1
f 37/1/1 33/1/1 36/1/1
f 38/1/1 33/1/1 37/1/1
f 39/1/1 36/1/1 35/1/1
f 39/1/1 37/1/1 36/1/1
f 40/1/1 37/1/1 39/1/1
f 41/4/2 42/4/2 43/4/2
f 43/4/2 42/4/2 44/4/2
f 44/4/2 42/4/2 45/4/2
f 43/1/2 44/1/2 46/1/2
f 46/1/2 44/1/2 47/1/2
f 47/1/2 44/1/2 48/1/2
f 48/1/2 49/1/2 50/1/2
f 47/1/2 48/1/2 50/1/2
f 50/1/2 49/1/2 51/1/2
f 51/1/2 49/1/2 52/1/2
f 52/1/2 53/1/2 54/1/2
f 51/1/2 52/1/2 54/1/2
f 54/1/2 53/1/2 55/1/2
f 56/4/2 57/4/2 58/4/2
f 58/4/2 57/4/2 59/4/2
f 59/4/2 57/4/2 60/4/2
f 58/1/2 59/1/2 62/1/2
f 62/1/2 59/1/2 63/1/2
f 63/1/2 59/1/2 64/1/2
f 61/1/2 62/1/2 66/1/2
f 62/1/2 63/1/2 66/1/2
f 66/1/2 63/1/2 67/1/2
f 67/1/2 63/1/2 68/1/2
f 65/1/2 66/1/2 70/1/2
f 66/1/2 67/1/2 70/1/2
f 69/1/2 70/1/2 72/1/2
f 71/1/2 72/1/2 73/1/2
f 70/1/2 67/1/2 74/1/2
f 73/1/2 72/1/2 74/1/2
f 72/1/2 70/1/2 74/1/2
f 81/1/3 79/1/3 78/1/3
f 81/2/3 80/2/3 79/2/3
f 82/2/3 80/2/3 81/2/3
f 83/4/3 76/4/3 75/4/3
f 84/1/3 77/1/3 76/1/3
f 84/4/3 76/4/3 83/4/3
f 85/1/3 77/1/3 84/1/3
f 86/2/3 80/2/3 82/2/3
f 86/1/3 82/1/3 81/1/3
f 87/2/3 80/2/3 86/2/3
f 88/2/3 80/2/3 87/2/3
f 88/1/3 87/1/3 86/1/3
f 89/2/3 80/2/3 88/2/3
f 90/1/3 86/1/3 81/1/3
f 90/1/3 81/1/3 78/1/3
f 90/1/3 89/1/3 88/1/3
f 90/1/3 88/1/3 86/1/3
f 91/1/3 89/1/3 90/1/3
f 96/1/3 93/1/3 92/1/3
f 97/1/3 93/1/3 96/1/3
f 98/1/3 95/1/3 94/1/3
f 99/1/3 95/1/3 98/1/3
f 102/1/3 101/1/3 100/1/3
f 103/1/3 101/1/3 102/1/3
f 106/1/3 105/1/3 104/1/3
f 107/1/3 105/1/3 106/1/3
f 110/1/3 109/1/3 108/1/3
f 111/1/3 109/1/3 110/1/3
f 115/4/3 113/4/3 112/4/3
f 116/1/3 114/1/3 113/1/3
f 116/4/3 113/4/3 115/4/3
f 117/1/3 114/1/3 116/1/3
f 118/1/4 119/1/4 120/1/4
f 120/1/4 119/1/4 121/1/4
f 122/1/4 123/1/4 124/1/4
f 124/1/4 123/1/4 125/1/4
f 126/4/4 127/4/4 131/4/4
f 131/4/4 127/4/4 132/4/4
f 128/1/4 129/1/4 133/1/4
f 133/1/4 129/1/4 134/1/4
f 129/2/4 130/2/4 135/2/4
f 134/1/4 129/1/4 135/1/4
f 135/2/4 130/2/4 136/2/4
f 135/3/4 136/3/4 137/3/4
f 134/1/4 135/1/4 137/1/4
f 137/3/4 136/3/4 138/3/4
f 134/1/4 137/1/4 140/1/4
f 137/1/4 138/1/4 140/1/4
f 139/1/4 140/1/4 141/1/4
f 140/1/4 138/1/4 142/1/4
f 141/1/4 140/1/4 142/1/4
f 143/1/4 144/1/4 145/1/4
f 145/1/4 144/1/4 146/1/4
f 147/1/4 148/1/4 149/1/4
f 149/1/4 148/1/4 150/1/4
f 151/4/4 152/4/4 153/4/4
f 153/4/4 152/4/4 154/4/4
f 159/4/5 156/4/5 155/4/5
f 160/4/5 156/4/5 159/4/5
f 161/4/5 158/4/5 157/4/5
f 162/4/5 158/4/5 161/4/5
f 165/1/5 164/1/5 163/1/5
f 166/1/5 164/1/5 165/1/5
f 169/1/5 168/1/5 167/1/5
f 170/1/5 168/1/5 169/1/5
f 173/1/5 172/1/5 171/1/5
f 174/1/5 172/1/5 173/1/5
f 177/1/5 176/1/5 175/1/5
f 178/1/5 176/1/5 177/1/5
f 181/1/5 180/1/5 179/1/5
f 182/1/5 180/1/5 181/1/5
f 183/1/5 180/1/5 182/1/5
f 184/1/5 180/1/5 183/1/5
f 185/1/5 183/1/5 182/1/5
f 186/1/5 183/1/5 185/1/5
f 189/1/5 188/1/5 187/1/5
f 190/1/5 188/1/5 189/1/5
f 191/4/6 192/4/6 193/4/6
f 193/4/6 192/4/6 194/4/6
f 195/4/6 196/4/6 197/4/6
f 197/4/6 196/4/6 198/4/6
f 199/1/6 200/1/6 201/1/6
f 201/1/6 200/1/6 202/1/6
f 203/1/6 204/1/6 205/1/6
f 205/1/6 204/1/6 206/1/6
f 207/1/6 208/1/6 209/1/6
f 209/1/6 208/1/6 210/1/6
f 211/1/6 212/1/6 213/1/6
f 213/1/6 212/1/6 214/1/6
f 215/2/6 216/2/6 218/2/6
f 216/1/6 217/1/6 219/1/6
f 218/2/6 216/2/6 219/2/6
f 215/2/6 218/2/6 220/2/6
f 218/1/6 219/1/6 221/1/6
f 220/2/6 218/2/6 221/2/6
f 215/2/6 220/2/6 222/2/6
f 220/1/6 221/1/6 223/1/6
f 222/2/6 220/2/6 223/2/6
f 215/2/6 222/2/6 224/2/6
f 222/3/6 223/3/6 225/3/6
f 224/2/6 222/2/6 225/2/6
f 223/1/6 221/1/6 226/1/6
f 225/3/6 223/3/6 226/3/6
f 219/1/6 217/1/6 227/1/6
f 226/1/6 221/1/6 227/1/6
f 221/1/6 219/1/6 227/1/6
