# MagicaVoxel @ Ephtracy

# group
o 

# material
mtllib player-0.mtl
usemtl palette

# normals
vn -1 0 0
vn 1 0 0
vn 0 0 1
vn 0 0 -1
vn 0 -1 0
vn 0 1 0

# texcoords
vt 0.00585938 0.5
vt 0.810547 0.5
vt 0.822266 0.5
vt 0.826172 0.5
vt 0.990234 0.5

# verts
v -0.8 1.7 -0.1
v -0.8 1.7 -0.3
v -0.8 1.9 0.2
v -0.8 1.9 -0.1
v -0.8 2.1 -0.2
v -0.8 2.1 -0.3
v -0.8 2.8 0.2
v -0.8 2.8 -0.2
v -0.7 1.6 -2.98023e-008
v -0.7 1.6 -0.4
v -0.7 1.7 -0.1
v -0.7 1.7 -0.3
v -0.7 1.8 0.2
v -0.7 1.8 -2.98023e-008
v -0.7 1.9 0.2
v -0.7 1.9 -0.1
v -0.7 2.1 -0.2
v -0.7 2.1 -0.3
v -0.7 2.1 -0.4
v -0.7 2.8 0.2
v -0.7 2.8 -0.2
v -0.7 2.9 0.2
v -0.7 2.9 -0.3
v -0.6 1.7 0.1
v -0.6 1.7 -2.98023e-008
v -0.6 1.8 0.1
v -0.6 1.8 -2.98023e-008
v -0.5 0 -0.1
v -0.5 0 -0.7
v -0.5 0.2 -0.1
v -0.5 0.2 -0.5
v -0.5 0.2 -0.7
v -0.5 0.6 -2.98023e-008
v -0.5 0.6 -0.1
v -0.5 0.6 -0.4
v -0.5 0.6 -0.5
v -0.5 0.8 0.1
v -0.5 0.8 -2.98023e-008
v -0.5 0.8 -0.3
v -0.5 0.8 -0.4
v -0.5 1 0.2
v -0.5 1 0.1
v -0.5 1.1 0.3
v -0.5 1.1 0.2
v -0.5 1.3 0.3
v -0.5 1.3 0.2
v -0.5 1.4 0.2
v -0.5 1.4 0.1
v -0.5 1.5 0.1
v -0.5 1.5 -0.3
v -0.5 1.6 -2.98023e-008
v -0.5 1.6 -0.3
v -0.5 1.6 -0.4
v -0.5 1.6 -0.5
v -0.5 1.7 0.1
v -0.5 1.7 -2.98023e-008
v -0.5 1.8 0.2
v -0.5 1.8 0.1
v -0.5 1.9 -0.4
v -0.5 1.9 -0.5
v -0.5 2.9 0.2
v -0.5 2.9 -0.3
v -0.5 3 0.3
v -0.5 3 -0.3
v -0.4 3 0.3
v -0.4 3 -0.3
v -0.4 3.5 -0.3
v -0.4 3.5 -0.4
v -0.4 3.6 0.3
v -0.4 3.6 0.2
v -0.4 3.6 -0.4
v -0.4 3.6 -0.5
v -0.4 3.7 0.2
v -0.4 3.7 -0.5
v -0.3 3.6 0.3
v -0.3 3.6 0.2
v -0.3 3.7 0.2
v -0.3 3.7 -0.5
v -0.3 3.8 0.3
v -0.3 3.8 0.2
v -0.3 3.8 -0.4
v -0.3 3.8 -0.5
v -0.3 3.9 0.2
v -0.3 3.9 -0.4
v -0.2 3.9 0.1
v -0.2 3.9 -0.3
v -0.2 4 0.1
v -0.2 4 -0.3
v 0.1 0 0.3
v 0.1 0 -0.3
v 0.1 0.2 0.3
v 0.1 0.2 -0.1
v 0.1 0.2 -0.3
v 0.1 0.7 0.3
v 0.1 0.7 0.2
v 0.1 0.7 -0.1
v 0.1 0.7 -0.2
v 0.1 0.9 0.2
v 0.1 0.9 0.1
v 0.1 0.9 -0.2
v 0.1 0.9 -0.3
v 0.1 1 0.1
v 0.1 1 -0.3
v 0.2 1.6 -0.3
v 0.2 1.6 -0.5
v 0.2 1.9 -0.3
v 0.2 1.9 -0.5
v 0.3 3.5 -0.3
v 0.3 3.5 -0.4
v 0.3 3.6 -0.3
v 0.3 3.6 -0.4
v 0.5 1.9 -0.3
v 0.5 1.9 -0.4
v 0.5 2.1 -0.3
v 0.5 2.1 -0.4
v -0.5 1.9 -0.3
v -0.5 1.9 -0.4
v -0.5 2.1 -0.3
v -0.5 2.1 -0.4
v -0.3 3.5 -0.3
v -0.3 3.5 -0.4
v -0.3 3.6 -0.3
v -0.3 3.6 -0.4
v -0.2 1.6 -0.3
v -0.2 1.6 -0.5
v -0.2 1.9 -0.3
v -0.2 1.9 -0.5
v -0.1 0 -0.1
v -0.1 0 -0.7
v -0.1 0.2 -0.1
v -0.1 0.2 -0.5
v -0.1 0.2 -0.7
v -0.1 0.6 -2.98023e-008
v -0.1 0.6 -0.1
v -0.1 0.6 -0.4
v -0.1 0.6 -0.5
v -0.1 0.8 0.1
v -0.1 0.8 -2.98023e-008
v -0.1 0.8 -0.3
v -0.1 0.8 -0.4
v -0.1 1 0.1
v -0.1 1 -0.3
v 0.2 3.9 0.1
v 0.2 3.9 -0.3
v 0.2 4 0.1
v 0.2 4 -0.3
v 0.3 3.6 0.3
v 0.3 3.6 0.2
v 0.3 3.7 0.2
v 0.3 3.7 -0.5
v 0.3 3.8 0.3
v 0.3 3.8 0.2
v 0.3 3.8 -0.4
v 0.3 3.8 -0.5
v 0.3 3.9 0.2
v 0.3 3.9 -0.4
v 0.4 3 0.3
v 0.4 3 -0.3
v 0.4 3.5 -0.3
v 0.4 3.5 -0.4
v 0.4 3.6 0.3
v 0.4 3.6 0.2
v 0.4 3.6 -0.4
v 0.4 3.6 -0.5
v 0.4 3.7 0.2
v 0.4 3.7 -0.5
v 0.5 0 0.3
v 0.5 0 -0.3
v 0.5 0.2 0.3
v 0.5 0.2 -0.1
v 0.5 0.2 -0.3
v 0.5 0.7 0.3
v 0.5 0.7 0.2
v 0.5 0.7 -0.1
v 0.5 0.7 -0.2
v 0.5 0.9 0.2
v 0.5 0.9 0.1
v 0.5 0.9 -0.2
v 0.5 0.9 -0.3
v 0.5 1 0.2
v 0.5 1 0.1
v 0.5 1.1 0.3
v 0.5 1.1 0.2
v 0.5 1.6 0.3
v 0.5 1.6 -2.98023e-008
v 0.5 1.6 -0.3
v 0.5 1.6 -0.4
v 0.5 1.6 -0.5
v 0.5 1.7 0.1
v 0.5 1.7 -2.98023e-008
v 0.5 1.8 0.2
v 0.5 1.8 0.1
v 0.5 1.9 -0.4
v 0.5 1.9 -0.5
v 0.5 2.9 0.2
v 0.5 2.9 -0.3
v 0.5 3 0.3
v 0.5 3 -0.3
v 0.6 1.7 0.1
v 0.6 1.7 -2.98023e-008
v 0.6 1.8 0.1
v 0.6 1.8 -2.98023e-008
v 0.7 1.6 -2.98023e-008
v 0.7 1.6 -0.4
v 0.7 1.7 -0.1
v 0.7 1.7 -0.3
v 0.7 1.8 0.2
v 0.7 1.8 -2.98023e-008
v 0.7 1.9 0.2
v 0.7 1.9 -0.1
v 0.7 2.1 -0.2
v 0.7 2.1 -0.3
v 0.7 2.1 -0.4
v 0.7 2.8 0.2
v 0.7 2.8 -0.2
v 0.7 2.9 0.2
v 0.7 2.9 -0.3
v 0.8 1.7 -0.1
v 0.8 1.7 -0.3
v 0.8 1.9 0.2
v 0.8 1.9 -0.1
v 0.8 2.1 -0.2
v 0.8 2.1 -0.3
v 0.8 2.8 0.2
v 0.8 2.8 -0.2
v -0.5 1.1 0.3
v -0.5 1.3 0.3
v -0.5 3 0.3
v -0.4 3 0.3
v -0.4 3.6 0.3
v -0.3 1.3 0.3
v -0.3 1.4 0.3
v -0.3 3.6 0.3
v -0.3 3.8 0.3
v -0.1 1.4 0.3
v -0.1 1.5 0.3
v 0.1 0 0.3
v 0.1 0.2 0.3
v 0.1 0.7 0.3
v 0.2 1.5 0.3
v 0.2 1.6 0.3
v 0.3 3.6 0.3
v 0.3 3.8 0.3
v 0.4 3 0.3
v 0.4 3.6 0.3
v 0.5 0 0.3
v 0.5 0.2 0.3
v 0.5 0.7 0.3
v 0.5 1.1 0.3
v 0.5 1.6 0.3
v 0.5 3 0.3
v -0.8 1.9 0.2
v -0.8 2.8 0.2
v -0.7 1.8 0.2
v -0.7 1.9 0.2
v -0.7 2.8 0.2
v -0.7 2.9 0.2
v -0.5 1 0.2
v -0.5 1.1 0.2
v -0.5 1.8 0.2
v -0.5 2.9 0.2
v -0.4 3.6 0.2
v -0.4 3.7 0.2
v -0.3 3.6 0.2
v -0.3 3.7 0.2
v -0.3 3.8 0.2
v -0.3 3.9 0.2
v 0.1 0.7 0.2
v 0.1 0.9 0.2
v 0.3 3.6 0.2
v 0.3 3.7 0.2
v 0.3 3.8 0.2
v 0.3 3.9 0.2
v 0.4 3.6 0.2
v 0.4 3.7 0.2
v 0.5 0.7 0.2
v 0.5 0.9 0.2
v 0.5 1 0.2
v 0.5 1.1 0.2
v 0.5 1.8 0.2
v 0.5 2.9 0.2
v 0.7 1.8 0.2
v 0.7 1.9 0.2
v 0.7 2.8 0.2
v 0.7 2.9 0.2
v 0.8 1.9 0.2
v 0.8 2.8 0.2
v -0.6 1.7 0.1
v -0.6 1.8 0.1
v -0.5 0.8 0.1
v -0.5 1 0.1
v -0.5 1.7 0.1
v -0.5 1.8 0.1
v -0.2 3.9 0.1
v -0.2 4 0.1
v -0.1 0.8 0.1
v -0.1 1 0.1
v 0.1 0.9 0.1
v 0.1 1 0.1
v 0.2 3.9 0.1
v 0.2 4 0.1
v 0.5 0.9 0.1
v 0.5 1 0.1
v 0.5 1.7 0.1
v 0.5 1.8 0.1
v 0.6 1.7 0.1
v 0.6 1.8 0.1
v -0.7 1.6 -2.98023e-008
v -0.7 1.8 -2.98023e-008
v -0.6 1.7 -2.98023e-008
v -0.6 1.8 -2.98023e-008
v -0.5 0.6 -2.98023e-008
v -0.5 0.8 -2.98023e-008
v -0.5 1.6 -2.98023e-008
v -0.5 1.7 -2.98023e-008
v -0.1 0.6 -2.98023e-008
v -0.1 0.8 -2.98023e-008
v 0.5 1.6 -2.98023e-008
v 0.5 1.7 -2.98023e-008
v 0.6 1.7 -2.98023e-008
v 0.6 1.8 -2.98023e-008
v 0.7 1.6 -2.98023e-008
v 0.7 1.8 -2.98023e-008
v -0.8 1.7 -0.1
v -0.8 1.9 -0.1
v -0.7 1.7 -0.1
v -0.7 1.9 -0.1
v -0.5 0 -0.1
v -0.5 0.2 -0.1
v -0.5 0.6 -0.1
v -0.1 0 -0.1
v -0.1 0.2 -0.1
v -0.1 0.6 -0.1
v 0.7 1.7 -0.1
v 0.7 1.9 -0.1
v 0.8 1.7 -0.1
v 0.8 1.9 -0.1
v 0.1 0.2 -0.1
v 0.1 0.7 -0.1
v 0.5 0.2 -0.1
v 0.5 0.7 -0.1
v -0.8 2.1 -0.2
v -0.8 2.8 -0.2
v -0.7 2.1 -0.2
v -0.7 2.8 -0.2
v 0.1 0.7 -0.2
v 0.1 0.9 -0.2
v 0.5 0.7 -0.2
v 0.5 0.9 -0.2
v 0.7 2.1 -0.2
v 0.7 2.8 -0.2
v 0.8 2.1 -0.2
v 0.8 2.8 -0.2
v -0.8 1.7 -0.3
v -0.8 2.1 -0.3
v -0.7 1.7 -0.3
v -0.7 2.1 -0.3
v -0.7 2.9 -0.3
v -0.5 0.8 -0.3
v -0.5 1.5 -0.3
v -0.5 1.6 -0.3
v -0.5 1.9 -0.3
v -0.5 2.1 -0.3
v -0.5 2.8 -0.3
v -0.5 2.9 -0.3
v -0.5 3 -0.3
v -0.4 1.9 -0.3
v -0.4 2.8 -0.3
v -0.4 3 -0.3
v -0.4 3.5 -0.3
v -0.3 3.1 -0.3
v -0.3 3.5 -0.3
v -0.3 3.6 -0.3
v -0.2 1.6 -0.3
v -0.2 1.9 -0.3
v -0.2 3.9 -0.3
v -0.2 4 -0.3
v -0.1 0.8 -0.3
v -0.1 1 -0.3
v -0.1 1.5 -0.3
v -0.1 2.9 -0.3
v 0 1.5 -0.3
v 0 1.6 -0.3
v 0 2.9 -0.3
v 0.1 0 -0.3
v 0.1 0.2 -0.3
v 0.1 0.9 -0.3
v 0.1 1 -0.3
v 0.2 1.6 -0.3
v 0.2 1.9 -0.3
v 0.2 3.9 -0.3
v 0.2 4 -0.3
v 0.3 3.1 -0.3
v 0.3 3.5 -0.3
v 0.3 3.6 -0.3
v 0.4 1.9 -0.3
v 0.4 2.8 -0.3
v 0.4 3 -0.3
v 0.4 3.5 -0.3
v 0.5 0 -0.3
v 0.5 0.2 -0.3
v 0.5 0.9 -0.3
v 0.5 1.6 -0.3
v 0.5 1.9 -0.3
v 0.5 2.1 -0.3
v 0.5 2.8 -0.3
v 0.5 2.9 -0.3
v 0.5 3 -0.3
v 0.7 1.7 -0.3
v 0.7 2.1 -0.3
v 0.7 2.9 -0.3
v 0.8 1.7 -0.3
v 0.8 2.1 -0.3
v -0.7 1.6 -0.4
v -0.7 2.1 -0.4
v -0.5 0.6 -0.4
v -0.5 0.8 -0.4
v -0.5 1.6 -0.4
v -0.5 1.9 -0.4
v -0.5 2.1 -0.4
v -0.4 3.5 -0.4
v -0.4 3.6 -0.4
v -0.3 3.5 -0.4
v -0.3 3.6 -0.4
v -0.3 3.8 -0.4
v -0.3 3.9 -0.4
v -0.1 0.6 -0.4
v -0.1 0.8 -0.4
v 0.3 3.5 -0.4
v 0.3 3.6 -0.4
v 0.3 3.8 -0.4
v 0.3 3.9 -0.4
v 0.4 3.5 -0.4
v 0.4 3.6 -0.4
v 0.5 1.6 -0.4
v 0.5 1.9 -0.4
v 0.5 2.1 -0.4
v 0.7 1.6 -0.4
v 0.7 2.1 -0.4
v -0.5 0.2 -0.5
v -0.5 0.6 -0.5
v -0.5 1.6 -0.5
v -0.5 1.9 -0.5
v -0.4 3.6 -0.5
v -0.4 3.7 -0.5
v -0.3 3.7 -0.5
v -0.3 3.8 -0.5
v -0.2 1.6 -0.5
v -0.2 1.9 -0.5
v -0.1 0.2 -0.5
v -0.1 0.6 -0.5
v 0.2 1.6 -0.5
v 0.2 1.9 -0.5
v 0.3 3.7 -0.5
v 0.3 3.8 -0.5
v 0.4 3.6 -0.5
v 0.4 3.7 -0.5
v 0.5 1.6 -0.5
v 0.5 1.9 -0.5
v -0.5 0 -0.7
v -0.5 0.2 -0.7
v -0.1 0 -0.7
v -0.1 0.2 -0.7
v 0.1 0 0.3
v 0.5 0 0.3
v -0.5 0 -0.1
v -0.1 0 -0.1
v 0.1 0 -0.3
v 0.5 0 -0.3
v -0.5 0 -0.7
v -0.1 0 -0.7
v -0.5 0.6 -2.98023e-008
v -0.1 0.6 -2.98023e-008
v -0.5 0.6 -0.1
v -0.1 0.6 -0.1
v 0.1 0.7 -0.1
v 0.5 0.7 -0.1
v 0.1 0.7 -0.2
v 0.5 0.7 -0.2
v -0.5 0.8 0.1
v -0.1 0.8 0.1
v -0.5 0.8 -2.98023e-008
v -0.1 0.8 -2.98023e-008
v 0.1 0.9 -0.2
v 0.5 0.9 -0.2
v 0.1 0.9 -0.3
v 0.5 0.9 -0.3
v -0.5 1 0.2
v 0.5 1 0.2
v -0.5 1 0.1
v -0.1 1 0.1
v 0.1 1 0.1
v 0.5 1 0.1
v -0.1 1 -0.3
v 0.1 1 -0.3
v -0.5 1.1 0.3
v 0.5 1.1 0.3
v -0.5 1.1 0.2
v 0.5 1.1 0.2
v -0.7 1.6 -2.98023e-008
v -0.5 1.6 -2.98023e-008
v 0.5 1.6 -2.98023e-008
v 0.7 1.6 -2.98023e-008
v -0.5 1.6 -0.3
v -0.2 1.6 -0.3
v 0.2 1.6 -0.3
v 0.5 1.6 -0.3
v -0.7 1.6 -0.4
v -0.5 1.6 -0.4
v 0.5 1.6 -0.4
v 0.7 1.6 -0.4
v -0.5 1.6 -0.5
v -0.2 1.6 -0.5
v 0.2 1.6 -0.5
v 0.5 1.6 -0.5
v -0.6 1.7 0.1
v -0.5 1.7 0.1
v 0.5 1.7 0.1
v 0.6 1.7 0.1
v -0.6 1.7 -2.98023e-008
v -0.5 1.7 -2.98023e-008
v 0.5 1.7 -2.98023e-008
v 0.6 1.7 -2.98023e-008
v -0.8 1.7 -0.1
v -0.7 1.7 -0.1
v 0.7 1.7 -0.1
v 0.8 1.7 -0.1
v -0.8 1.7 -0.3
v -0.7 1.7 -0.3
v 0.7 1.7 -0.3
v 0.8 1.7 -0.3
v -0.7 1.8 0.2
v -0.5 1.8 0.2
v 0.5 1.8 0.2
v 0.7 1.8 0.2
v -0.6 1.8 0.1
v -0.5 1.8 0.1
v 0.5 1.8 0.1
v 0.6 1.8 0.1
v -0.7 1.8 -2.98023e-008
v -0.6 1.8 -2.98023e-008
v 0.6 1.8 -2.98023e-008
v 0.7 1.8 -2.98023e-008
v -0.8 1.9 0.2
v -0.7 1.9 0.2
v 0.7 1.9 0.2
v 0.8 1.9 0.2
v -0.8 1.9 -0.1
v -0.7 1.9 -0.1
v 0.7 1.9 -0.1
v 0.8 1.9 -0.1
v -0.4 3.5 -0.3
v -0.3 3.5 -0.3
v 0.3 3.5 -0.3
v 0.4 3.5 -0.3
v -0.4 3.5 -0.4
v -0.3 3.5 -0.4
v 0.3 3.5 -0.4
v 0.4 3.5 -0.4
v -0.3 3.6 -0.3
v 0.3 3.6 -0.3
v -0.4 3.6 -0.4
v -0.3 3.6 -0.4
v 0.3 3.6 -0.4
v 0.4 3.6 -0.4
v -0.4 3.6 -0.5
v 0.4 3.6 -0.5
v 0.1 0.2 -0.1
v 0.5 0.2 -0.1
v 0.1 0.2 -0.3
v 0.5 0.2 -0.3
v -0.5 0.2 -0.5
v -0.1 0.2 -0.5
v -0.5 0.2 -0.7
v -0.1 0.2 -0.7
v -0.5 0.6 -0.4
v -0.1 0.6 -0.4
v -0.5 0.6 -0.5
v -0.1 0.6 -0.5
v 0.1 0.7 0.3
v 0.5 0.7 0.3
v 0.1 0.7 0.2
v 0.5 0.7 0.2
v -0.5 0.8 -0.3
v -0.1 0.8 -0.3
v -0.5 0.8 -0.4
v -0.1 0.8 -0.4
v 0.1 0.9 0.2
v 0.5 0.9 0.2
v 0.1 0.9 0.1
v 0.5 0.9 0.1
v -0.5 1.9 -0.3
v -0.4 1.9 -0.3
v -0.2 1.9 -0.3
v 0.2 1.9 -0.3
v 0.4 1.9 -0.3
v 0.5 1.9 -0.3
v -0.5 1.9 -0.4
v 0.5 1.9 -0.4
v -0.5 1.9 -0.5
v -0.2 1.9 -0.5
v 0.2 1.9 -0.5
v 0.5 1.9 -0.5
v -0.8 2.1 -0.2
v -0.7 2.1 -0.2
v 0.7 2.1 -0.2
v 0.8 2.1 -0.2
v -0.8 2.1 -0.3
v -0.7 2.1 -0.3
v -0.5 2.1 -0.3
v 0.5 2.1 -0.3
v 0.7 2.1 -0.3
v 0.8 2.1 -0.3
v -0.7 2.1 -0.4
v -0.5 2.1 -0.4
v 0.5 2.1 -0.4
v 0.7 2.1 -0.4
v -0.8 2.8 0.2
v -0.7 2.8 0.2
v 0.7 2.8 0.2
v 0.8 2.8 0.2
v -0.8 2.8 -0.2
v -0.7 2.8 -0.2
v 0.7 2.8 -0.2
v 0.8 2.8 -0.2
v -0.7 2.9 0.2
v -0.5 2.9 0.2
v 0.5 2.9 0.2
v 0.7 2.9 0.2
v -0.7 2.9 -0.3
v -0.5 2.9 -0.3
v 0.5 2.9 -0.3
v 0.7 2.9 -0.3
v -0.5 3 0.3
v -0.4 3 0.3
v 0.4 3 0.3
v 0.5 3 0.3
v -0.5 3 -0.3
v -0.4 3 -0.3
v 0.4 3 -0.3
v 0.5 3 -0.3
v -0.4 3.6 0.3
v -0.3 3.6 0.3
v 0.3 3.6 0.3
v 0.4 3.6 0.3
v -0.4 3.6 0.2
v -0.3 3.6 0.2
v 0.3 3.6 0.2
v 0.4 3.6 0.2
v -0.4 3.7 0.2
v -0.3 3.7 0.2
v 0.3 3.7 0.2
v 0.4 3.7 0.2
v -0.4 3.7 -0.5
v -0.3 3.7 -0.5
v 0.3 3.7 -0.5
v 0.4 3.7 -0.5
v -0.3 3.8 0.3
v 0.3 3.8 0.3
v -0.3 3.8 0.2
v 0.3 3.8 0.2
v -0.3 3.8 -0.4
v 0.3 3.8 -0.4
v -0.3 3.8 -0.5
v 0.3 3.8 -0.5
v -0.3 3.9 0.2
v 0.3 3.9 0.2
v -0.2 3.9 0.1
v 0.2 3.9 0.1
v -0.2 3.9 -0.3
v 0.2 3.9 -0.3
v -0.3 3.9 -0.4
v 0.3 3.9 -0.4
v -0.2 4 0.1
v 0.2 4 0.1
v -0.2 4 -0.3
v 0.2 4 -0.3

# faces
f 4/3/1 2/3/1 1/3/1
f 5/3/1 2/3/1 4/3/1
f 5/3/1 4/3/1 3/3/1
f 6/3/1 2/3/1 5/3/1
f 7/3/1 5/3/1 3/3/1
f 8/3/1 5/3/1 7/3/1
f 11/3/1 10/3/1 9/3/1
f 12/3/1 10/3/1 11/3/1
f 14/3/1 11/3/1 9/3/1
f 15/3/1 14/3/1 13/3/1
f 16/3/1 11/3/1 14/3/1
f 16/3/1 14/3/1 15/3/1
f 18/3/1 10/3/1 12/3/1
f 19/3/1 10/3/1 18/3/1
f 21/3/1 18/3/1 17/3/1
f 22/3/1 21/3/1 20/3/1
f 23/3/1 18/3/1 21/3/1
f 23/3/1 21/3/1 22/3/1
f 26/3/1 25/3/1 24/3/1
f 27/3/1 25/3/1 26/3/1
f 30/5/1 29/5/1 28/5/1
f 31/5/1 29/5/1 30/5/1
f 32/5/1 29/5/1 31/5/1
f 34/2/1 31/2/1 30/2/1
f 35/2/1 31/2/1 34/2/1
f 36/2/1 31/2/1 35/2/1
f 38/2/1 34/2/1 33/2/1
f 38/2/1 35/2/1 34/2/1
f 39/2/1 35/2/1 38/2/1
f 40/2/1 35/2/1 39/2/1
f 42/2/1 38/2/1 37/2/1
f 42/2/1 39/2/1 38/2/1
f 44/2/1 42/2/1 41/2/1
f 45/2/1 44/2/1 43/2/1
f 46/2/1 42/2/1 44/2/1
f 46/2/1 44/2/1 45/2/1
f 47/3/1 46/3/1 45/3/1
f 47/2/1 42/2/1 46/2/1
f 48/2/1 39/2/1 42/2/1
f 48/2/1 42/2/1 47/2/1
f 49/3/1 48/3/1 47/3/1
f 49/2/1 39/2/1 48/2/1
f 50/2/1 39/2/1 49/2/1
f 51/3/1 50/3/1 49/3/1
f 52/3/1 50/3/1 51/3/1
f 55/3/1 51/3/1 49/3/1
f 55/3/1 49/3/1 47/3/1
f 56/3/1 51/3/1 55/3/1
f 57/3/1 47/3/1 45/3/1
f 57/3/1 55/3/1 47/3/1
f 58/3/1 55/3/1 57/3/1
f 59/1/1 54/1/1 53/1/1
f 60/1/1 54/1/1 59/1/1
f 61/3/1 57/3/1 45/3/1
f 63/3/1 61/3/1 45/3/1
f 63/3/1 62/3/1 61/3/1
f 64/3/1 62/3/1 63/3/1
f 67/3/1 66/3/1 65/3/1
f 69/3/1 67/3/1 65/3/1
f 69/3/1 68/3/1 67/3/1
f 70/3/1 68/3/1 69/3/1
f 71/3/1 68/3/1 70/3/1
f 73/3/1 72/3/1 71/3/1
f 73/3/1 71/3/1 70/3/1
f 74/3/1 72/3/1 73/3/1
f 77/3/1 76/3/1 75/3/1
f 79/3/1 77/3/1 75/3/1
f 79/3/1 78/3/1 77/3/1
f 80/3/1 78/3/1 79/3/1
f 81/3/1 78/3/1 80/3/1
f 82/3/1 78/3/1 81/3/1
f 83/3/1 81/3/1 80/3/1
f 84/3/1 81/3/1 83/3/1
f 87/3/1 86/3/1 85/3/1
f 88/3/1 86/3/1 87/3/1
f 91/5/1 90/5/1 89/5/1
f 92/5/1 90/5/1 91/5/1
f 93/5/1 90/5/1 92/5/1
f 94/2/1 92/2/1 91/2/1
f 95/2/1 92/2/1 94/2/1
f 96/2/1 92/2/1 95/2/1
f 98/2/1 97/2/1 96/2/1
f 98/2/1 96/2/1 95/2/1
f 99/2/1 97/2/1 98/2/1
f 100/2/1 97/2/1 99/2/1
f 102/2/1 101/2/1 100/2/1
f 102/2/1 100/2/1 99/2/1
f 103/2/1 101/2/1 102/2/1
f 106/1/1 105/1/1 104/1/1
f 107/1/1 105/1/1 106/1/1
f 110/3/1 109/3/1 108/3/1
f 111/3/1 109/3/1 110/3/1
f 114/3/1 113/3/1 112/3/1
f 115/3/1 113/3/1 114/3/1
f 116/3/2 117/3/2 118/3/2
f 118/3/2 117/3/2 119/3/2
f 120/3/2 121/3/2 122/3/2
f 122/3/2 121/3/2 123/3/2
f 124/1/2 125/1/2 126/1/2
f 126/1/2 125/1/2 127/1/2
f 128/5/2 129/5/2 130/5/2
f 130/5/2 129/5/2 131/5/2
f 131/5/2 129/5/2 132/5/2
f 130/2/2 131/2/2 134/2/2
f 134/2/2 131/2/2 135/2/2
f 135/2/2 131/2/2 136/2/2
f 133/2/2 134/2/2 138/2/2
f 134/2/2 135/2/2 138/2/2
f 138/2/2 135/2/2 139/2/2
f 139/2/2 135/2/2 140/2/2
f 137/2/2 138/2/2 141/2/2
f 138/2/2 139/2/2 141/2/2
f 141/2/2 139/2/2 142/2/2
f 143/3/2 144/3/2 145/3/2
f 145/3/2 144/3/2 146/3/2
f 147/3/2 148/3/2 149/3/2
f 147/3/2 149/3/2 151/3/2
f 149/3/2 150/3/2 151/3/2
f 151/3/2 150/3/2 152/3/2
f 152/3/2 150/3/2 153/3/2
f 153/3/2 150/3/2 154/3/2
f 152/3/2 153/3/2 155/3/2
f 155/3/2 153/3/2 156/3/2
f 157/3/2 158/3/2 159/3/2
f 157/3/2 159/3/2 161/3/2
f 159/3/2 160/3/2 161/3/2
f 161/3/2 160/3/2 162/3/2
f 162/3/2 160/3/2 163/3/2
f 163/3/2 164/3/2 165/3/2
f 162/3/2 163/3/2 165/3/2
f 165/3/2 164/3/2 166/3/2
f 167/5/2 168/5/2 169/5/2
f 169/5/2 168/5/2 170/5/2
f 170/5/2 168/5/2 171/5/2
f 169/2/2 170/2/2 172/2/2
f 172/2/2 170/2/2 173/2/2
f 173/2/2 170/2/2 174/2/2
f 174/2/2 175/2/2 176/2/2
f 173/2/2 174/2/2 176/2/2
f 176/2/2 175/2/2 177/2/2
f 177/2/2 175/2/2 178/2/2
f 178/2/2 179/2/2 181/2/2
f 177/2/2 178/2/2 181/2/2
f 180/2/2 181/2/2 183/2/2
f 182/2/2 183/2/2 184/2/2
f 181/2/2 179/2/2 185/2/2
f 184/2/2 183/2/2 185/2/2
f 183/2/2 181/2/2 185/2/2
f 185/2/2 179/2/2 186/2/2
f 184/3/2 185/3/2 189/3/2
f 189/3/2 185/3/2 190/3/2
f 184/3/2 189/3/2 191/3/2
f 191/3/2 189/3/2 192/3/2
f 187/1/2 188/1/2 193/1/2
f 193/1/2 188/1/2 194/1/2
f 184/3/2 191/3/2 195/3/2
f 184/3/2 195/3/2 197/3/2
f 195/3/2 196/3/2 197/3/2
f 197/3/2 196/3/2 198/3/2
f 199/3/2 200/3/2 201/3/2
f 201/3/2 200/3/2 202/3/2
f 203/3/2 204/3/2 205/3/2
f 205/3/2 204/3/2 206/3/2
f 203/3/2 205/3/2 208/3/2
f 207/3/2 208/3/2 209/3/2
f 208/3/2 205/3/2 210/3/2
f 209/3/2 208/3/2 210/3/2
f 206/3/2 204/3/2 212/3/2
f 212/3/2 204/3/2 213/3/2
f 211/3/2 212/3/2 215/3/2
f 214/3/2 215/3/2 216/3/2
f 215/3/2 212/3/2 217/3/2
f 216/3/2 215/3/2 217/3/2
f 218/3/2 219/3/2 221/3/2
f 221/3/2 219/3/2 222/3/2
f 220/3/2 221/3/2 222/3/2
f 222/3/2 219/3/2 223/3/2
f 220/3/2 222/3/2 224/3/2
f 224/3/2 222/3/2 225/3/2
f 229/3/3 228/3/3 227/3/3
f 231/2/3 227/2/3 226/2/3
f 231/3/3 230/3/3 229/3/3
f 231/3/3 229/3/3 227/3/3
f 232/3/3 230/3/3 231/3/3
f 233/3/3 230/3/3 232/3/3
f 235/2/3 232/2/3 231/2/3
f 235/3/3 234/3/3 233/3/3
f 235/3/3 233/3/3 232/3/3
f 236/3/3 234/3/3 235/3/3
f 240/2/3 236/2/3 235/2/3
f 240/3/3 234/3/3 236/3/3
f 241/3/3 234/3/3 240/3/3
f 242/3/3 234/3/3 241/3/3
f 243/3/3 234/3/3 242/3/3
f 244/3/3 242/3/3 241/3/3
f 245/3/3 242/3/3 244/3/3
f 246/5/3 238/5/3 237/5/3
f 247/2/3 239/2/3 238/2/3
f 247/5/3 238/5/3 246/5/3
f 248/2/3 239/2/3 247/2/3
f 249/2/3 231/2/3 226/2/3
f 249/2/3 235/2/3 231/2/3
f 249/2/3 240/2/3 235/2/3
f 249/2/3 241/2/3 240/2/3
f 250/3/3 244/3/3 241/3/3
f 250/2/3 241/2/3 249/2/3
f 251/3/3 244/3/3 250/3/3
f 255/3/3 253/3/3 252/3/3
f 256/3/3 253/3/3 255/3/3
f 260/3/3 255/3/3 254/3/3
f 260/3/3 256/3/3 255/3/3
f 260/3/3 257/3/3 256/3/3
f 261/3/3 257/3/3 260/3/3
f 264/3/3 263/3/3 262/3/3
f 265/3/3 263/3/3 264/3/3
f 272/3/3 267/3/3 266/3/3
f 273/3/3 267/3/3 272/3/3
f 274/3/3 271/3/3 270/3/3
f 275/3/3 271/3/3 274/3/3
f 276/2/3 269/2/3 268/2/3
f 277/2/3 269/2/3 276/2/3
f 278/2/3 259/2/3 258/2/3
f 279/2/3 259/2/3 278/2/3
f 282/3/3 281/3/3 280/3/3
f 283/3/3 281/3/3 282/3/3
f 284/3/3 281/3/3 283/3/3
f 285/3/3 281/3/3 284/3/3
f 286/3/3 284/3/3 283/3/3
f 287/3/3 284/3/3 286/3/3
f 292/3/3 289/3/3 288/3/3
f 293/3/3 289/3/3 292/3/3
f 296/2/3 291/2/3 290/2/3
f 297/2/3 291/2/3 296/2/3
f 300/3/3 295/3/3 294/3/3
f 301/3/3 295/3/3 300/3/3
f 302/2/3 299/2/3 298/2/3
f 303/2/3 299/2/3 302/2/3
f 306/3/3 305/3/3 304/3/3
f 307/3/3 305/3/3 306/3/3
f 310/3/3 309/3/3 308/3/3
f 311/3/3 309/3/3 310/3/3
f 314/3/3 310/3/3 308/3/3
f 315/3/3 310/3/3 314/3/3
f 316/2/3 313/2/3 312/2/3
f 317/2/3 313/2/3 316/2/3
f 320/3/3 319/3/3 318/3/3
f 322/3/3 320/3/3 318/3/3
f 322/3/3 321/3/3 320/3/3
f 323/3/3 321/3/3 322/3/3
f 326/3/3 325/3/3 324/3/3
f 327/3/3 325/3/3 326/3/3
f 331/5/3 329/5/3 328/5/3
f 332/2/3 330/2/3 329/2/3
f 332/5/3 329/5/3 331/5/3
f 333/2/3 330/2/3 332/2/3
f 336/3/3 335/3/3 334/3/3
f 337/3/3 335/3/3 336/3/3
f 338/2/4 339/2/4 340/2/4
f 340/2/4 339/2/4 341/2/4
f 342/3/4 343/3/4 344/3/4
f 344/3/4 343/3/4 345/3/4
f 346/2/4 347/2/4 348/2/4
f 348/2/4 347/2/4 349/2/4
f 350/3/4 351/3/4 352/3/4
f 352/3/4 351/3/4 353/3/4
f 354/3/4 355/3/4 356/3/4
f 356/3/4 355/3/4 357/3/4
f 357/3/4 358/3/4 363/3/4
f 363/3/4 358/3/4 364/3/4
f 364/3/4 358/3/4 365/3/4
f 362/4/4 363/4/4 367/4/4
f 363/4/4 364/4/4 367/4/4
f 365/3/4 366/3/4 368/3/4
f 367/4/4 364/4/4 368/4/4
f 364/3/4 365/3/4 368/3/4
f 368/3/4 366/3/4 369/3/4
f 367/3/4 368/3/4 371/3/4
f 369/3/4 370/3/4 371/3/4
f 368/3/4 369/3/4 371/3/4
f 371/3/4 370/3/4 372/3/4
f 360/3/4 361/3/4 374/3/4
f 367/3/4 371/3/4 375/3/4
f 359/2/4 360/2/4 378/2/4
f 378/2/4 360/2/4 379/2/4
f 360/3/4 374/3/4 380/3/4
f 379/2/4 360/2/4 380/2/4
f 374/3/4 375/3/4 380/3/4
f 375/3/4 371/3/4 381/3/4
f 380/3/4 375/3/4 381/3/4
f 379/2/4 380/2/4 382/2/4
f 380/4/4 381/4/4 382/4/4
f 382/4/4 381/4/4 383/4/4
f 381/3/4 371/3/4 384/3/4
f 383/4/4 381/4/4 384/4/4
f 382/2/4 383/2/4 388/2/4
f 379/2/4 382/2/4 388/2/4
f 383/3/4 384/3/4 389/3/4
f 387/2/4 388/2/4 389/2/4
f 388/2/4 383/2/4 389/2/4
f 389/3/4 384/3/4 390/3/4
f 376/3/4 377/3/4 391/3/4
f 391/3/4 377/3/4 392/3/4
f 372/1/4 373/1/4 393/1/4
f 390/3/4 384/3/4 393/3/4
f 371/1/4 372/1/4 393/1/4
f 384/3/4 371/3/4 393/3/4
f 393/1/4 373/1/4 394/1/4
f 394/1/4 373/1/4 395/1/4
f 390/3/4 393/3/4 396/3/4
f 393/3/4 394/3/4 396/3/4
f 396/3/4 394/3/4 397/3/4
f 397/3/4 394/3/4 398/3/4
f 398/3/4 394/3/4 399/3/4
f 385/5/4 386/5/4 400/5/4
f 400/5/4 386/5/4 401/5/4
f 387/2/4 389/2/4 402/2/4
f 402/2/4 389/2/4 403/2/4
f 396/4/4 397/4/4 404/4/4
f 404/4/4 397/4/4 405/4/4
f 397/3/4 398/3/4 406/3/4
f 405/4/4 397/4/4 406/4/4
f 406/3/4 398/3/4 407/3/4
f 407/3/4 398/3/4 408/3/4
f 406/3/4 407/3/4 410/3/4
f 405/3/4 406/3/4 410/3/4
f 410/3/4 407/3/4 411/3/4
f 409/3/4 410/3/4 412/3/4
f 412/3/4 410/3/4 413/3/4
f 414/3/4 415/3/4 418/3/4
f 418/3/4 415/3/4 419/3/4
f 419/3/4 415/3/4 420/3/4
f 421/3/4 422/3/4 423/3/4
f 423/3/4 422/3/4 424/3/4
f 416/2/4 417/2/4 427/2/4
f 427/2/4 417/2/4 428/2/4
f 425/3/4 426/3/4 431/3/4
f 431/3/4 426/3/4 432/3/4
f 429/3/4 430/3/4 433/3/4
f 433/3/4 430/3/4 434/3/4
f 435/3/4 436/3/4 438/3/4
f 436/3/4 437/3/4 438/3/4
f 438/3/4 437/3/4 439/3/4
f 444/3/4 445/3/4 446/3/4
f 442/1/4 443/1/4 448/1/4
f 448/1/4 443/1/4 449/1/4
f 440/2/4 441/2/4 450/2/4
f 450/2/4 441/2/4 451/2/4
f 446/3/4 447/3/4 454/3/4
f 444/3/4 446/3/4 454/3/4
f 454/3/4 447/3/4 455/3/4
f 444/3/4 454/3/4 456/3/4
f 456/3/4 454/3/4 457/3/4
f 452/1/4 453/1/4 458/1/4
f 458/1/4 453/1/4 459/1/4
f 460/5/4 461/5/4 462/5/4
f 462/5/4 461/5/4 463/5/4
f 468/5/5 465/5/5 464/5/5
f 469/5/5 465/5/5 468/5/5
f 470/5/5 467/5/5 466/5/5
f 471/5/5 467/5/5 470/5/5
f 474/2/5 473/2/5 472/2/5
f 475/2/5 473/2/5 474/2/5
f 478/2/5 477/2/5 476/2/5
f 479/2/5 477/2/5 478/2/5
f 482/2/5 481/2/5 480/2/5
f 483/2/5 481/2/5 482/2/5
f 486/2/5 485/2/5 484/2/5
f 487/2/5 485/2/5 486/2/5
f 490/2/5 489/2/5 488/2/5
f 491/2/5 489/2/5 490/2/5
f 492/2/5 489/2/5 491/2/5
f 493/2/5 489/2/5 492/2/5
f 494/2/5 492/2/5 491/2/5
f 495/2/5 492/2/5 494/2/5
f 498/2/5 497/2/5 496/2/5
f 499/2/5 497/2/5 498/2/5
f 504/3/5 501/3/5 500/3/5
f 507/3/5 503/3/5 502/3/5
f 508/3/5 504/3/5 500/3/5
f 509/1/5 505/1/5 504/1/5
f 509/3/5 504/3/5 508/3/5
f 510/1/5 507/1/5 506/1/5
f 510/3/5 503/3/5 507/3/5
f 511/3/5 503/3/5 510/3/5
f 512/1/5 505/1/5 509/1/5
f 513/1/5 505/1/5 512/1/5
f 514/1/5 510/1/5 506/1/5
f 515/1/5 510/1/5 514/1/5
f 520/3/5 517/3/5 516/3/5
f 521/3/5 517/3/5 520/3/5
f 522/3/5 519/3/5 518/3/5
f 523/3/5 519/3/5 522/3/5
f 528/3/5 525/3/5 524/3/5
f 529/3/5 525/3/5 528/3/5
f 530/3/5 527/3/5 526/3/5
f 531/3/5 527/3/5 530/3/5
f 536/3/5 533/3/5 532/3/5
f 537/3/5 533/3/5 536/3/5
f 538/3/5 535/3/5 534/3/5
f 539/3/5 535/3/5 538/3/5
f 540/3/5 536/3/5 532/3/5
f 541/3/5 536/3/5 540/3/5
f 542/3/5 535/3/5 539/3/5
f 543/3/5 535/3/5 542/3/5
f 548/3/5 545/3/5 544/3/5
f 549/3/5 545/3/5 548/3/5
f 550/3/5 547/3/5 546/3/5
f 551/3/5 547/3/5 550/3/5
f 556/3/5 553/3/5 552/3/5
f 557/3/5 553/3/5 556/3/5
f 558/3/5 555/3/5 554/3/5
f 559/3/5 555/3/5 558/3/5
f 563/3/5 561/3/5 560/3/5
f 564/3/5 561/3/5 563/3/5
f 566/3/5 563/3/5 562/3/5
f 566/3/5 565/3/5 564/3/5
f 566/3/5 564/3/5 563/3/5
f 567/3/5 565/3/5 566/3/5
f 568/5/6 569/5/6 570/5/6
f 570/5/6 569/5/6 571/5/6
f 572/5/6 573/5/6 574/5/6
f 574/5/6 573/5/6 575/5/6
f 576/2/6 577/2/6 578/2/6
f 578/2/6 577/2/6 579/2/6
f 580/2/6 581/2/6 582/2/6
f 582/2/6 581/2/6 583/2/6
f 584/2/6 585/2/6 586/2/6
f 586/2/6 585/2/6 587/2/6
f 588/2/6 589/2/6 590/2/6
f 590/2/6 589/2/6 591/2/6
f 592/1/6 593/1/6 598/1/6
f 593/1/6 594/1/6 598/1/6
f 596/1/6 597/1/6 599/1/6
f 595/1/6 596/1/6 599/1/6
f 598/1/6 594/1/6 600/1/6
f 600/1/6 594/1/6 601/1/6
f 595/1/6 599/1/6 602/1/6
f 602/1/6 599/1/6 603/1/6
f 604/3/6 605/3/6 608/3/6
f 608/3/6 605/3/6 609/3/6
f 606/3/6 607/3/6 612/3/6
f 612/3/6 607/3/6 613/3/6
f 609/3/6 610/3/6 614/3/6
f 614/3/6 610/3/6 615/3/6
f 611/3/6 612/3/6 616/3/6
f 616/3/6 612/3/6 617/3/6
f 618/3/6 619/3/6 622/3/6
f 622/3/6 619/3/6 623/3/6
f 620/3/6 621/3/6 624/3/6
f 624/3/6 621/3/6 625/3/6
f 626/3/6 627/3/6 630/3/6
f 630/3/6 627/3/6 631/3/6
f 628/3/6 629/3/6 632/3/6
f 632/3/6 629/3/6 633/3/6
f 634/3/6 635/3/6 638/3/6
f 638/3/6 635/3/6 639/3/6
f 636/3/6 637/3/6 640/3/6
f 640/3/6 637/3/6 641/3/6
f 642/3/6 643/3/6 646/3/6
f 646/3/6 643/3/6 647/3/6
f 644/3/6 645/3/6 648/3/6
f 648/3/6 645/3/6 649/3/6
f 650/3/6 651/3/6 654/3/6
f 654/3/6 651/3/6 655/3/6
f 652/3/6 653/3/6 656/3/6
f 656/3/6 653/3/6 657/3/6
f 658/3/6 659/3/6 660/3/6
f 660/3/6 659/3/6 661/3/6
f 662/3/6 663/3/6 664/3/6
f 664/3/6 663/3/6 665/3/6
f 666/3/6 667/3/6 668/3/6
f 668/3/6 667/3/6 669/3/6
f 666/3/6 668/3/6 670/3/6
f 669/3/6 667/3/6 671/3/6
f 666/3/6 670/3/6 672/3/6
f 670/3/6 671/3/6 672/3/6
f 671/3/6 667/3/6 673/3/6
f 672/3/6 671/3/6 673/3/6
f 674/3/6 675/3/6 676/3/6
f 676/3/6 675/3/6 677/3/6
