# MagicaVoxel @ Ephtracy

# group
o 

# material
mtllib player-7.mtl
usemtl palette

# normals
vn -1 0 0
vn 1 0 0
vn 0 0 1
vn 0 0 -1
vn 0 -1 0
vn 0 1 0

# texcoords
vt 0.00585938 0.5
vt 0.822266 0.5
vt 0.826172 0.5
vt 0.990234 0.5

# verts
v -0.8 1.7 -0.1
v -0.8 1.7 -0.3
v -0.8 1.9 0.2
v -0.8 1.9 -0.1
v -0.8 2.1 -0.2
v -0.8 2.1 -0.3
v -0.8 2.8 0.2
v -0.8 2.8 -0.2
v -0.7 1.6 -2.98023e-008
v -0.7 1.6 -0.4
v -0.7 1.7 -0.1
v -0.7 1.7 -0.3
v -0.7 1.8 0.2
v -0.7 1.8 -2.98023e-008
v -0.7 1.9 0.2
v -0.7 1.9 -0.1
v -0.7 2.1 -0.2
v -0.7 2.1 -0.3
v -0.7 2.1 -0.4
v -0.7 2.8 0.2
v -0.7 2.8 -0.2
v -0.7 2.9 0.2
v -0.7 2.9 -0.3
v -0.6 1.7 0.1
v -0.6 1.7 -2.98023e-008
v -0.6 1.8 0.1
v -0.6 1.8 -2.98023e-008
v -0.5 1.6 0.3
v -0.5 1.6 -2.98023e-008
v -0.5 1.6 -0.4
v -0.5 1.6 -0.5
v -0.5 1.7 0.1
v -0.5 1.7 -2.98023e-008
v -0.5 1.8 0.2
v -0.5 1.8 0.1
v -0.5 1.9 -0.4
v -0.5 1.9 -0.5
v -0.5 2.9 0.2
v -0.5 2.9 -0.3
v -0.5 3 0.3
v -0.5 3 -0.3
v -0.4 3 0.3
v -0.4 3 -0.3
v -0.4 3.5 -0.3
v -0.4 3.5 -0.4
v -0.4 3.6 0.3
v -0.4 3.6 0.2
v -0.4 3.6 -0.4
v -0.4 3.6 -0.5
v -0.4 3.7 0.2
v -0.4 3.7 -0.5
v -0.3 3.6 0.3
v -0.3 3.6 0.2
v -0.3 3.7 0.2
v -0.3 3.7 -0.5
v -0.3 3.8 0.3
v -0.3 3.8 0.2
v -0.3 3.8 -0.4
v -0.3 3.8 -0.5
v -0.3 3.9 0.2
v -0.3 3.9 -0.4
v -0.2 3.9 0.1
v -0.2 3.9 -0.3
v -0.2 4 0.1
v -0.2 4 -0.3
v 0.2 1.6 -0.3
v 0.2 1.6 -0.5
v 0.2 1.9 -0.3
v 0.2 1.9 -0.5
v 0.3 3.5 -0.3
v 0.3 3.5 -0.4
v 0.3 3.6 -0.3
v 0.3 3.6 -0.4
v 0.5 1.9 -0.3
v 0.5 1.9 -0.4
v 0.5 2.1 -0.3
v 0.5 2.1 -0.4
v -0.5 1.9 -0.3
v -0.5 1.9 -0.4
v -0.5 2.1 -0.3
v -0.5 2.1 -0.4
v -0.3 3.5 -0.3
v -0.3 3.5 -0.4
v -0.3 3.6 -0.3
v -0.3 3.6 -0.4
v -0.2 1.6 -0.3
v -0.2 1.6 -0.5
v -0.2 1.9 -0.3
v -0.2 1.9 -0.5
v 0.2 3.9 0.1
v 0.2 3.9 -0.3
v 0.2 4 0.1
v 0.2 4 -0.3
v 0.3 3.6 0.3
v 0.3 3.6 0.2
v 0.3 3.7 0.2
v 0.3 3.7 -0.5
v 0.3 3.8 0.3
v 0.3 3.8 0.2
v 0.3 3.8 -0.4
v 0.3 3.8 -0.5
v 0.3 3.9 0.2
v 0.3 3.9 -0.4
v 0.4 3 0.3
v 0.4 3 -0.3
v 0.4 3.5 -0.3
v 0.4 3.5 -0.4
v 0.4 3.6 0.3
v 0.4 3.6 0.2
v 0.4 3.6 -0.4
v 0.4 3.6 -0.5
v 0.4 3.7 0.2
v 0.4 3.7 -0.5
v 0.5 1.6 0.3
v 0.5 1.6 -2.98023e-008
v 0.5 1.6 -0.4
v 0.5 1.6 -0.5
v 0.5 1.7 0.1
v 0.5 1.7 -2.98023e-008
v 0.5 1.8 0.2
v 0.5 1.8 0.1
v 0.5 1.9 -0.4
v 0.5 1.9 -0.5
v 0.5 2.9 0.2
v 0.5 2.9 -0.3
v 0.5 3 0.3
v 0.5 3 -0.3
v 0.6 1.7 0.1
v 0.6 1.7 -2.98023e-008
v 0.6 1.8 0.1
v 0.6 1.8 -2.98023e-008
v 0.7 1.6 -2.98023e-008
v 0.7 1.6 -0.4
v 0.7 1.7 -0.1
v 0.7 1.7 -0.3
v 0.7 1.8 0.2
v 0.7 1.8 -2.98023e-008
v 0.7 1.9 0.2
v 0.7 1.9 -0.1
v 0.7 2.1 -0.2
v 0.7 2.1 -0.3
v 0.7 2.1 -0.4
v 0.7 2.8 0.2
v 0.7 2.8 -0.2
v 0.7 2.9 0.2
v 0.7 2.9 -0.3
v 0.8 1.7 -0.1
v 0.8 1.7 -0.3
v 0.8 1.9 0.2
v 0.8 1.9 -0.1
v 0.8 2.1 -0.2
v 0.8 2.1 -0.3
v 0.8 2.8 0.2
v 0.8 2.8 -0.2
v -0.5 1.6 0.3
v -0.5 3 0.3
v -0.4 3 0.3
v -0.4 3.6 0.3
v -0.3 3.6 0.3
v -0.3 3.8 0.3
v 0.3 3.6 0.3
v 0.3 3.8 0.3
v 0.4 3 0.3
v 0.4 3.6 0.3
v 0.5 1.6 0.3
v 0.5 3 0.3
v -0.8 1.9 0.2
v -0.8 2.8 0.2
v -0.7 1.8 0.2
v -0.7 1.9 0.2
v -0.7 2.8 0.2
v -0.7 2.9 0.2
v -0.5 1.8 0.2
v -0.5 2.9 0.2
v -0.4 3.6 0.2
v -0.4 3.7 0.2
v -0.3 3.6 0.2
v -0.3 3.7 0.2
v -0.3 3.8 0.2
v -0.3 3.9 0.2
v 0.3 3.6 0.2
v 0.3 3.7 0.2
v 0.3 3.8 0.2
v 0.3 3.9 0.2
v 0.4 3.6 0.2
v 0.4 3.7 0.2
v 0.5 1.8 0.2
v 0.5 2.9 0.2
v 0.7 1.8 0.2
v 0.7 1.9 0.2
v 0.7 2.8 0.2
v 0.7 2.9 0.2
v 0.8 1.9 0.2
v 0.8 2.8 0.2
v -0.6 1.7 0.1
v -0.6 1.8 0.1
v -0.5 1.7 0.1
v -0.5 1.8 0.1
v -0.2 3.9 0.1
v -0.2 4 0.1
v 0.2 3.9 0.1
v 0.2 4 0.1
v 0.5 1.7 0.1
v 0.5 1.8 0.1
v 0.6 1.7 0.1
v 0.6 1.8 0.1
v -0.7 1.6 -2.98023e-008
v -0.7 1.8 -2.98023e-008
v -0.6 1.7 -2.98023e-008
v -0.6 1.8 -2.98023e-008
v -0.5 1.6 -2.98023e-008
v -0.5 1.7 -2.98023e-008
v 0.5 1.6 -2.98023e-008
v 0.5 1.7 -2.98023e-008
v 0.6 1.7 -2.98023e-008
v 0.6 1.8 -2.98023e-008
v 0.7 1.6 -2.98023e-008
v 0.7 1.8 -2.98023e-008
v -0.8 1.7 -0.1
v -0.8 1.9 -0.1
v -0.7 1.7 -0.1
v -0.7 1.9 -0.1
v 0.7 1.7 -0.1
v 0.7 1.9 -0.1
v 0.8 1.7 -0.1
v 0.8 1.9 -0.1
v -0.8 2.1 -0.2
v -0.8 2.8 -0.2
v -0.7 2.1 -0.2
v -0.7 2.8 -0.2
v 0.7 2.1 -0.2
v 0.7 2.8 -0.2
v 0.8 2.1 -0.2
v 0.8 2.8 -0.2
v -0.8 1.7 -0.3
v -0.8 2.1 -0.3
v -0.7 1.7 -0.3
v -0.7 2.1 -0.3
v -0.7 2.9 -0.3
v -0.5 1.9 -0.3
v -0.5 2.1 -0.3
v -0.5 2.8 -0.3
v -0.5 2.9 -0.3
v -0.5 3 -0.3
v -0.4 1.9 -0.3
v -0.4 2.8 -0.3
v -0.4 3 -0.3
v -0.4 3.5 -0.3
v -0.3 3.1 -0.3
v -0.3 3.5 -0.3
v -0.3 3.6 -0.3
v -0.2 1.6 -0.3
v -0.2 1.9 -0.3
v -0.2 3.9 -0.3
v -0.2 4 -0.3
v -0.1 1.6 -0.3
v -0.1 2.9 -0.3
v 0 1.6 -0.3
v 0 2.9 -0.3
v 0.2 1.6 -0.3
v 0.2 1.9 -0.3
v 0.2 3.9 -0.3
v 0.2 4 -0.3
v 0.3 3.1 -0.3
v 0.3 3.5 -0.3
v 0.3 3.6 -0.3
v 0.4 1.9 -0.3
v 0.4 2.8 -0.3
v 0.4 3 -0.3
v 0.4 3.5 -0.3
v 0.5 1.9 -0.3
v 0.5 2.1 -0.3
v 0.5 2.8 -0.3
v 0.5 2.9 -0.3
v 0.5 3 -0.3
v 0.7 1.7 -0.3
v 0.7 2.1 -0.3
v 0.7 2.9 -0.3
v 0.8 1.7 -0.3
v 0.8 2.1 -0.3
v -0.7 1.6 -0.4
v -0.7 2.1 -0.4
v -0.5 1.6 -0.4
v -0.5 1.9 -0.4
v -0.5 2.1 -0.4
v -0.4 3.5 -0.4
v -0.4 3.6 -0.4
v -0.3 3.5 -0.4
v -0.3 3.6 -0.4
v -0.3 3.8 -0.4
v -0.3 3.9 -0.4
v 0.3 3.5 -0.4
v 0.3 3.6 -0.4
v 0.3 3.8 -0.4
v 0.3 3.9 -0.4
v 0.4 3.5 -0.4
v 0.4 3.6 -0.4
v 0.5 1.6 -0.4
v 0.5 1.9 -0.4
v 0.5 2.1 -0.4
v 0.7 1.6 -0.4
v 0.7 2.1 -0.4
v -0.5 1.6 -0.5
v -0.5 1.9 -0.5
v -0.4 3.6 -0.5
v -0.4 3.7 -0.5
v -0.3 3.7 -0.5
v -0.3 3.8 -0.5
v -0.2 1.6 -0.5
v -0.2 1.9 -0.5
v 0.2 1.6 -0.5
v 0.2 1.9 -0.5
v 0.3 3.7 -0.5
v 0.3 3.8 -0.5
v 0.4 3.6 -0.5
v 0.4 3.7 -0.5
v 0.5 1.6 -0.5
v 0.5 1.9 -0.5
v -0.5 1.6 0.3
v 0.5 1.6 0.3
v -0.7 1.6 -2.98023e-008
v -0.5 1.6 -2.98023e-008
v 0.5 1.6 -2.98023e-008
v 0.7 1.6 -2.98023e-008
v -0.1 1.6 -0.2
v 0 1.6 -0.2
v -0.5 1.6 -0.3
v -0.2 1.6 -0.3
v -0.1 1.6 -0.3
v 0 1.6 -0.3
v 0.2 1.6 -0.3
v 0.5 1.6 -0.3
v -0.7 1.6 -0.4
v -0.5 1.6 -0.4
v 0.5 1.6 -0.4
v 0.7 1.6 -0.4
v -0.5 1.6 -0.5
v -0.2 1.6 -0.5
v 0.2 1.6 -0.5
v 0.5 1.6 -0.5
v -0.6 1.7 0.1
v -0.5 1.7 0.1
v 0.5 1.7 0.1
v 0.6 1.7 0.1
v -0.6 1.7 -2.98023e-008
v -0.5 1.7 -2.98023e-008
v 0.5 1.7 -2.98023e-008
v 0.6 1.7 -2.98023e-008
v -0.8 1.7 -0.1
v -0.7 1.7 -0.1
v 0.7 1.7 -0.1
v 0.8 1.7 -0.1
v -0.8 1.7 -0.3
v -0.7 1.7 -0.3
v 0.7 1.7 -0.3
v 0.8 1.7 -0.3
v -0.7 1.8 0.2
v -0.5 1.8 0.2
v 0.5 1.8 0.2
v 0.7 1.8 0.2
v -0.6 1.8 0.1
v -0.5 1.8 0.1
v 0.5 1.8 0.1
v 0.6 1.8 0.1
v -0.7 1.8 -2.98023e-008
v -0.6 1.8 -2.98023e-008
v 0.6 1.8 -2.98023e-008
v 0.7 1.8 -2.98023e-008
v -0.8 1.9 0.2
v -0.7 1.9 0.2
v 0.7 1.9 0.2
v 0.8 1.9 0.2
v -0.8 1.9 -0.1
v -0.7 1.9 -0.1
v 0.7 1.9 -0.1
v 0.8 1.9 -0.1
v -0.4 3.5 -0.3
v -0.3 3.5 -0.3
v 0.3 3.5 -0.3
v 0.4 3.5 -0.3
v -0.4 3.5 -0.4
v -0.3 3.5 -0.4
v 0.3 3.5 -0.4
v 0.4 3.5 -0.4
v -0.3 3.6 -0.3
v 0.3 3.6 -0.3
v -0.4 3.6 -0.4
v -0.3 3.6 -0.4
v 0.3 3.6 -0.4
v 0.4 3.6 -0.4
v -0.4 3.6 -0.5
v 0.4 3.6 -0.5
v -0.5 1.9 -0.3
v -0.4 1.9 -0.3
v -0.2 1.9 -0.3
v 0.2 1.9 -0.3
v 0.4 1.9 -0.3
v 0.5 1.9 -0.3
v -0.5 1.9 -0.4
v 0.5 1.9 -0.4
v -0.5 1.9 -0.5
v -0.2 1.9 -0.5
v 0.2 1.9 -0.5
v 0.5 1.9 -0.5
v -0.8 2.1 -0.2
v -0.7 2.1 -0.2
v 0.7 2.1 -0.2
v 0.8 2.1 -0.2
v -0.8 2.1 -0.3
v -0.7 2.1 -0.3
v -0.5 2.1 -0.3
v 0.5 2.1 -0.3
v 0.7 2.1 -0.3
v 0.8 2.1 -0.3
v -0.7 2.1 -0.4
v -0.5 2.1 -0.4
v 0.5 2.1 -0.4
v 0.7 2.1 -0.4
v -0.8 2.8 0.2
v -0.7 2.8 0.2
v 0.7 2.8 0.2
v 0.8 2.8 0.2
v -0.8 2.8 -0.2
v -0.7 2.8 -0.2
v 0.7 2.8 -0.2
v 0.8 2.8 -0.2
v -0.7 2.9 0.2
v -0.5 2.9 0.2
v 0.5 2.9 0.2
v 0.7 2.9 0.2
v -0.7 2.9 -0.3
v -0.5 2.9 -0.3
v 0.5 2.9 -0.3
v 0.7 2.9 -0.3
v -0.5 3 0.3
v -0.4 3 0.3
v 0.4 3 0.3
v 0.5 3 0.3
v -0.5 3 -0.3
v -0.4 3 -0.3
v 0.4 3 -0.3
v 0.5 3 -0.3
v -0.4 3.6 0.3
v -0.3 3.6 0.3
v 0.3 3.6 0.3
v 0.4 3.6 0.3
v -0.4 3.6 0.2
v -0.3 3.6 0.2
v 0.3 3.6 0.2
v 0.4 3.6 0.2
v -0.4 3.7 0.2
v -0.3 3.7 0.2
v 0.3 3.7 0.2
v 0.4 3.7 0.2
v -0.4 3.7 -0.5
v -0.3 3.7 -0.5
v 0.3 3.7 -0.5
v 0.4 3.7 -0.5
v -0.3 3.8 0.3
v 0.3 3.8 0.3
v -0.3 3.8 0.2
v 0.3 3.8 0.2
v -0.3 3.8 -0.4
v 0.3 3.8 -0.4
v -0.3 3.8 -0.5
v 0.3 3.8 -0.5
v -0.3 3.9 0.2
v 0.3 3.9 0.2
v -0.2 3.9 0.1
v 0.2 3.9 0.1
v -0.2 3.9 -0.3
v 0.2 3.9 -0.3
v -0.3 3.9 -0.4
v 0.3 3.9 -0.4
v -0.2 4 0.1
v 0.2 4 0.1
v -0.2 4 -0.3
v 0.2 4 -0.3

# faces
f 4/2/1 2/2/1 1/2/1
f 5/2/1 2/2/1 4/2/1
f 5/2/1 4/2/1 3/2/1
f 6/2/1 2/2/1 5/2/1
f 7/2/1 5/2/1 3/2/1
f 8/2/1 5/2/1 7/2/1
f 11/2/1 10/2/1 9/2/1
f 12/2/1 10/2/1 11/2/1
f 14/2/1 11/2/1 9/2/1
f 15/2/1 14/2/1 13/2/1
f 16/2/1 11/2/1 14/2/1
f 16/2/1 14/2/1 15/2/1
f 18/2/1 10/2/1 12/2/1
f 19/2/1 10/2/1 18/2/1
f 21/2/1 18/2/1 17/2/1
f 22/2/1 21/2/1 20/2/1
f 23/2/1 18/2/1 21/2/1
f 23/2/1 21/2/1 22/2/1
f 26/2/1 25/2/1 24/2/1
f 27/2/1 25/2/1 26/2/1
f 32/2/1 29/2/1 28/2/1
f 33/2/1 29/2/1 32/2/1
f 34/2/1 32/2/1 28/2/1
f 35/2/1 32/2/1 34/2/1
f 36/1/1 31/1/1 30/1/1
f 37/1/1 31/1/1 36/1/1
f 38/2/1 34/2/1 28/2/1
f 40/2/1 38/2/1 28/2/1
f 40/2/1 39/2/1 38/2/1
f 41/2/1 39/2/1 40/2/1
f 44/2/1 43/2/1 42/2/1
f 46/2/1 44/2/1 42/2/1
f 46/2/1 45/2/1 44/2/1
f 47/2/1 45/2/1 46/2/1
f 48/2/1 45/2/1 47/2/1
f 50/2/1 49/2/1 48/2/1
f 50/2/1 48/2/1 47/2/1
f 51/2/1 49/2/1 50/2/1
f 54/2/1 53/2/1 52/2/1
f 56/2/1 54/2/1 52/2/1
f 56/2/1 55/2/1 54/2/1
f 57/2/1 55/2/1 56/2/1
f 58/2/1 55/2/1 57/2/1
f 59/2/1 55/2/1 58/2/1
f 60/2/1 58/2/1 57/2/1
f 61/2/1 58/2/1 60/2/1
f 64/2/1 63/2/1 62/2/1
f 65/2/1 63/2/1 64/2/1
f 68/1/1 67/1/1 66/1/1
f 69/1/1 67/1/1 68/1/1
f 72/2/1 71/2/1 70/2/1
f 73/2/1 71/2/1 72/2/1
f 76/2/1 75/2/1 74/2/1
f 77/2/1 75/2/1 76/2/1
f 78/2/2 79/2/2 80/2/2
f 80/2/2 79/2/2 81/2/2
f 82/2/2 83/2/2 84/2/2
f 84/2/2 83/2/2 85/2/2
f 86/1/2 87/1/2 88/1/2
f 88/1/2 87/1/2 89/1/2
f 90/2/2 91/2/2 92/2/2
f 92/2/2 91/2/2 93/2/2
f 94/2/2 95/2/2 96/2/2
f 94/2/2 96/2/2 98/2/2
f 96/2/2 97/2/2 98/2/2
f 98/2/2 97/2/2 99/2/2
f 99/2/2 97/2/2 100/2/2
f 100/2/2 97/2/2 101/2/2
f 99/2/2 100/2/2 102/2/2
f 102/2/2 100/2/2 103/2/2
f 104/2/2 105/2/2 106/2/2
f 104/2/2 106/2/2 108/2/2
f 106/2/2 107/2/2 108/2/2
f 108/2/2 107/2/2 109/2/2
f 109/2/2 107/2/2 110/2/2
f 110/2/2 111/2/2 112/2/2
f 109/2/2 110/2/2 112/2/2
f 112/2/2 111/2/2 113/2/2
f 114/2/2 115/2/2 118/2/2
f 118/2/2 115/2/2 119/2/2
f 114/2/2 118/2/2 120/2/2
f 120/2/2 118/2/2 121/2/2
f 116/1/2 117/1/2 122/1/2
f 122/1/2 117/1/2 123/1/2
f 114/2/2 120/2/2 124/2/2
f 114/2/2 124/2/2 126/2/2
f 124/2/2 125/2/2 126/2/2
f 126/2/2 125/2/2 127/2/2
f 128/2/2 129/2/2 130/2/2
f 130/2/2 129/2/2 131/2/2
f 132/2/2 133/2/2 134/2/2
f 134/2/2 133/2/2 135/2/2
f 132/2/2 134/2/2 137/2/2
f 136/2/2 137/2/2 138/2/2
f 137/2/2 134/2/2 139/2/2
f 138/2/2 137/2/2 139/2/2
f 135/2/2 133/2/2 141/2/2
f 141/2/2 133/2/2 142/2/2
f 140/2/2 141/2/2 144/2/2
f 143/2/2 144/2/2 145/2/2
f 144/2/2 141/2/2 146/2/2
f 145/2/2 144/2/2 146/2/2
f 147/2/2 148/2/2 150/2/2
f 150/2/2 148/2/2 151/2/2
f 149/2/2 150/2/2 151/2/2
f 151/2/2 148/2/2 152/2/2
f 149/2/2 151/2/2 153/2/2
f 153/2/2 151/2/2 154/2/2
f 157/2/3 156/2/3 155/2/3
f 159/2/3 158/2/3 157/2/3
f 161/2/3 159/2/3 157/2/3
f 161/2/3 160/2/3 159/2/3
f 162/2/3 160/2/3 161/2/3
f 163/2/3 157/2/3 155/2/3
f 163/2/3 161/2/3 157/2/3
f 164/2/3 161/2/3 163/2/3
f 165/2/3 163/2/3 155/2/3
f 166/2/3 163/2/3 165/2/3
f 170/2/3 168/2/3 167/2/3
f 171/2/3 168/2/3 170/2/3
f 173/2/3 170/2/3 169/2/3
f 173/2/3 172/2/3 171/2/3
f 173/2/3 171/2/3 170/2/3
f 174/2/3 172/2/3 173/2/3
f 177/2/3 176/2/3 175/2/3
f 178/2/3 176/2/3 177/2/3
f 183/2/3 180/2/3 179/2/3
f 184/2/3 180/2/3 183/2/3
f 185/2/3 182/2/3 181/2/3
f 186/2/3 182/2/3 185/2/3
f 189/2/3 188/2/3 187/2/3
f 190/2/3 188/2/3 189/2/3
f 191/2/3 188/2/3 190/2/3
f 192/2/3 188/2/3 191/2/3
f 193/2/3 191/2/3 190/2/3
f 194/2/3 191/2/3 193/2/3
f 197/2/3 196/2/3 195/2/3
f 198/2/3 196/2/3 197/2/3
f 201/2/3 200/2/3 199/2/3
f 202/2/3 200/2/3 201/2/3
f 205/2/3 204/2/3 203/2/3
f 206/2/3 204/2/3 205/2/3
f 209/2/3 208/2/3 207/2/3
f 210/2/3 208/2/3 209/2/3
f 211/2/3 209/2/3 207/2/3
f 212/2/3 209/2/3 211/2/3
f 215/2/3 214/2/3 213/2/3
f 217/2/3 215/2/3 213/2/3
f 217/2/3 216/2/3 215/2/3
f 218/2/3 216/2/3 217/2/3
f 221/2/3 220/2/3 219/2/3
f 222/2/3 220/2/3 221/2/3
f 225/2/3 224/2/3 223/2/3
f 226/2/3 224/2/3 225/2/3
f 227/2/4 228/2/4 229/2/4
f 229/2/4 228/2/4 230/2/4
f 231/2/4 232/2/4 233/2/4
f 233/2/4 232/2/4 234/2/4
f 235/2/4 236/2/4 237/2/4
f 237/2/4 236/2/4 238/2/4
f 238/2/4 239/2/4 241/2/4
f 241/2/4 239/2/4 242/2/4
f 242/2/4 239/2/4 243/2/4
f 240/3/4 241/3/4 245/3/4
f 241/3/4 242/3/4 245/3/4
f 243/2/4 244/2/4 246/2/4
f 245/3/4 242/3/4 246/3/4
f 242/2/4 243/2/4 246/2/4
f 246/2/4 244/2/4 247/2/4
f 245/2/4 246/2/4 249/2/4
f 247/2/4 248/2/4 249/2/4
f 246/2/4 247/2/4 249/2/4
f 249/2/4 248/2/4 250/2/4
f 245/2/4 249/2/4 253/2/4
f 252/2/4 253/2/4 256/2/4
f 253/2/4 249/2/4 257/2/4
f 256/2/4 253/2/4 257/2/4
f 256/3/4 257/3/4 258/3/4
f 257/2/4 249/2/4 259/2/4
f 258/3/4 257/3/4 259/3/4
f 258/2/4 259/2/4 260/2/4
f 260/2/4 259/2/4 261/2/4
f 254/2/4 255/2/4 262/2/4
f 262/2/4 255/2/4 263/2/4
f 250/1/4 251/1/4 264/1/4
f 249/1/4 250/1/4 264/1/4
f 261/2/4 259/2/4 264/2/4
f 259/2/4 249/2/4 264/2/4
f 264/1/4 251/1/4 265/1/4
f 265/1/4 251/1/4 266/1/4
f 261/2/4 264/2/4 267/2/4
f 264/2/4 265/2/4 267/2/4
f 267/2/4 265/2/4 268/2/4
f 268/2/4 265/2/4 269/2/4
f 269/2/4 265/2/4 270/2/4
f 267/3/4 268/3/4 271/3/4
f 271/3/4 268/3/4 272/3/4
f 268/2/4 269/2/4 273/2/4
f 272/3/4 268/3/4 273/3/4
f 273/2/4 269/2/4 274/2/4
f 274/2/4 269/2/4 275/2/4
f 272/2/4 273/2/4 277/2/4
f 273/2/4 274/2/4 277/2/4
f 277/2/4 274/2/4 278/2/4
f 276/2/4 277/2/4 279/2/4
f 279/2/4 277/2/4 280/2/4
f 281/2/4 282/2/4 283/2/4
f 283/2/4 282/2/4 284/2/4
f 284/2/4 282/2/4 285/2/4
f 286/2/4 287/2/4 288/2/4
f 288/2/4 287/2/4 289/2/4
f 290/2/4 291/2/4 294/2/4
f 294/2/4 291/2/4 295/2/4
f 292/2/4 293/2/4 296/2/4
f 296/2/4 293/2/4 297/2/4
f 298/2/4 299/2/4 301/2/4
f 299/2/4 300/2/4 301/2/4
f 301/2/4 300/2/4 302/2/4
f 305/2/4 306/2/4 307/2/4
f 303/1/4 304/1/4 309/1/4
f 309/1/4 304/1/4 310/1/4
f 307/2/4 308/2/4 313/2/4
f 305/2/4 307/2/4 313/2/4
f 313/2/4 308/2/4 314/2/4
f 305/2/4 313/2/4 315/2/4
f 315/2/4 313/2/4 316/2/4
f 311/1/4 312/1/4 317/1/4
f 317/1/4 312/1/4 318/1/4
f 322/2/5 320/2/5 319/2/5
f 323/2/5 320/2/5 322/2/5
f 325/2/5 322/2/5 321/2/5
f 325/2/5 324/2/5 323/2/5
f 325/2/5 323/2/5 322/2/5
f 326/2/5 324/2/5 325/2/5
f 327/2/5 325/2/5 321/2/5
f 328/2/5 325/2/5 327/2/5
f 329/3/5 326/3/5 325/3/5
f 329/2/5 325/2/5 328/2/5
f 330/2/5 324/2/5 326/2/5
f 330/3/5 326/3/5 329/3/5
f 331/2/5 324/2/5 330/2/5
f 332/2/5 324/2/5 331/2/5
f 333/2/5 327/2/5 321/2/5
f 334/1/5 328/1/5 327/1/5
f 334/2/5 327/2/5 333/2/5
f 335/2/5 324/2/5 332/2/5
f 335/1/5 332/1/5 331/1/5
f 336/2/5 324/2/5 335/2/5
f 337/1/5 328/1/5 334/1/5
f 338/1/5 328/1/5 337/1/5
f 339/1/5 335/1/5 331/1/5
f 340/1/5 335/1/5 339/1/5
f 345/2/5 342/2/5 341/2/5
f 346/2/5 342/2/5 345/2/5
f 347/2/5 344/2/5 343/2/5
f 348/2/5 344/2/5 347/2/5
f 353/2/5 350/2/5 349/2/5
f 354/2/5 350/2/5 353/2/5
f 355/2/5 352/2/5 351/2/5
f 356/2/5 352/2/5 355/2/5
f 361/2/5 358/2/5 357/2/5
f 362/2/5 358/2/5 361/2/5
f 363/2/5 360/2/5 359/2/5
f 364/2/5 360/2/5 363/2/5
f 365/2/5 361/2/5 357/2/5
f 366/2/5 361/2/5 365/2/5
f 367/2/5 360/2/5 364/2/5
f 368/2/5 360/2/5 367/2/5
f 373/2/5 370/2/5 369/2/5
f 374/2/5 370/2/5 373/2/5
f 375/2/5 372/2/5 371/2/5
f 376/2/5 372/2/5 375/2/5
f 381/2/5 378/2/5 377/2/5
f 382/2/5 378/2/5 381/2/5
f 383/2/5 380/2/5 379/2/5
f 384/2/5 380/2/5 383/2/5
f 388/2/5 386/2/5 385/2/5
f 389/2/5 386/2/5 388/2/5
f 391/2/5 388/2/5 387/2/5
f 391/2/5 390/2/5 389/2/5
f 391/2/5 389/2/5 388/2/5
f 392/2/5 390/2/5 391/2/5
f 393/1/6 394/1/6 399/1/6
f 394/1/6 395/1/6 399/1/6
f 397/1/6 398/1/6 400/1/6
f 396/1/6 397/1/6 400/1/6
f 399/1/6 395/1/6 401/1/6
f 401/1/6 395/1/6 402/1/6
f 396/1/6 400/1/6 403/1/6
f 403/1/6 400/1/6 404/1/6
f 405/2/6 406/2/6 409/2/6
f 409/2/6 406/2/6 410/2/6
f 407/2/6 408/2/6 413/2/6
f 413/2/6 408/2/6 414/2/6
f 410/2/6 411/2/6 415/2/6
f 415/2/6 411/2/6 416/2/6
f 412/2/6 413/2/6 417/2/6
f 417/2/6 413/2/6 418/2/6
f 419/2/6 420/2/6 423/2/6
f 423/2/6 420/2/6 424/2/6
f 421/2/6 422/2/6 425/2/6
f 425/2/6 422/2/6 426/2/6
f 427/2/6 428/2/6 431/2/6
f 431/2/6 428/2/6 432/2/6
f 429/2/6 430/2/6 433/2/6
f 433/2/6 430/2/6 434/2/6
f 435/2/6 436/2/6 439/2/6
f 439/2/6 436/2/6 440/2/6
f 437/2/6 438/2/6 441/2/6
f 441/2/6 438/2/6 442/2/6
f 443/2/6 444/2/6 447/2/6
f 447/2/6 444/2/6 448/2/6
f 445/2/6 446/2/6 449/2/6
f 449/2/6 446/2/6 450/2/6
f 451/2/6 452/2/6 455/2/6
f 455/2/6 452/2/6 456/2/6
f 453/2/6 454/2/6 457/2/6
f 457/2/6 454/2/6 458/2/6
f 459/2/6 460/2/6 461/2/6
f 461/2/6 460/2/6 462/2/6
f 463/2/6 464/2/6 465/2/6
f 465/2/6 464/2/6 466/2/6
f 467/2/6 468/2/6 469/2/6
f 469/2/6 468/2/6 470/2/6
f 467/2/6 469/2/6 471/2/6
f 470/2/6 468/2/6 472/2/6
f 467/2/6 471/2/6 473/2/6
f 471/2/6 472/2/6 473/2/6
f 472/2/6 468/2/6 474/2/6
f 473/2/6 472/2/6 474/2/6
f 475/2/6 476/2/6 477/2/6
f 477/2/6 476/2/6 478/2/6
