# MagicaVoxel @ Ephtracy

# group
o 

# material
mtllib roads-7.mtl
usemtl palette

# normals
vn -1 0 0
vn 1 0 0
vn 0 0 1
vn 0 0 -1
vn 0 -1 0
vn 0 1 0

# texcoords
vt 0.962891 0.5
vt 0.982422 0.5
vt 0.986328 0.5
vt 0.990234 0.5

# verts
v -6.3 0 6.3
v -6.3 0 -6.3
v -6.3 0.2 6.3
v -6.3 0.2 -6.3
v -6.3 0.4 6.3
v -6.3 0.4 -6.3
v 3.9 0.2 6.3
v 3.9 0.2 -6.3
v 3.9 0.4 6.3
v 3.9 0.4 -6.3
v -3.9 0.2 6.3
v -3.9 0.2 -6.3
v -3.9 0.4 6.3
v -3.9 0.4 -6.3
v 6.3 0 6.3
v 6.3 0 -6.3
v 6.3 0.2 6.3
v 6.3 0.2 -6.3
v 6.3 0.4 6.3
v 6.3 0.4 -6.3
v -6.3 0 6.3
v -6.3 0.2 6.3
v -6.3 0.4 6.3
v -4.2 0.1 6.3
v -4.2 0.2 6.3
v -4.2 0.4 6.3
v -3.9 0.1 6.3
v -3.9 0.2 6.3
v -3.9 0.4 6.3
v -0.0999999 0.1 6.3
v -0.0999999 0.2 6.3
v 0.0999999 0.1 6.3
v 0.0999999 0.2 6.3
v 3.9 0.1 6.3
v 3.9 0.2 6.3
v 3.9 0.4 6.3
v 4.2 0.1 6.3
v 4.2 0.2 6.3
v 4.2 0.4 6.3
v 6.3 0 6.3
v 6.3 0.2 6.3
v 6.3 0.4 6.3
v -6.3 0 -6.3
v -6.3 0.2 -6.3
v -6.3 0.4 -6.3
v -4.2 0.1 -6.3
v -4.2 0.2 -6.3
v -4.2 0.4 -6.3
v -3.9 0.1 -6.3
v -3.9 0.2 -6.3
v -3.9 0.4 -6.3
v -0.0999999 0.1 -6.3
v -0.0999999 0.2 -6.3
v 0.0999999 0.1 -6.3
v 0.0999999 0.2 -6.3
v 3.9 0.1 -6.3
v 3.9 0.2 -6.3
v 3.9 0.4 -6.3
v 4.2 0.1 -6.3
v 4.2 0.2 -6.3
v 4.2 0.4 -6.3
v 6.3 0 -6.3
v 6.3 0.2 -6.3
v 6.3 0.4 -6.3
v -6.3 0 6.3
v 6.3 0 6.3
v -6.3 0 -6.3
v 6.3 0 -6.3
v -3.9 0.2 6.3
v -0.0999999 0.2 6.3
v 0.0999999 0.2 6.3
v 3.9 0.2 6.3
v -0.0999999 0.2 5.4
v 0.0999999 0.2 5.4
v -0.0999999 0.2 3.8
v 0.0999999 0.2 3.8
v -0.0999999 0.2 2.2
v 0.0999999 0.2 2.2
v -0.0999999 0.2 0.6
v 0.0999999 0.2 0.6
v -0.0999999 0.2 -1
v 0.0999999 0.2 -1
v -0.0999999 0.2 -2.6
v 0.0999999 0.2 -2.6
v -0.0999999 0.2 -4.2
v 0.0999999 0.2 -4.2
v -0.0999999 0.2 -5.7
v 0.0999999 0.2 -5.7
v -3.9 0.2 -6.3
v -0.0999999 0.2 -6.3
v 0.0999999 0.2 -6.3
v 3.9 0.2 -6.3
v -6.3 0.4 6.3
v -4.2 0.4 6.3
v -3.9 0.4 6.3
v 3.9 0.4 6.3
v 4.2 0.4 6.3
v 6.3 0.4 6.3
v -6.3 0.4 -6.3
v -4.2 0.4 -6.3
v -3.9 0.4 -6.3
v 3.9 0.4 -6.3
v 4.2 0.4 -6.3
v 6.3 0.4 -6.3

# faces
f 3/4/1 2/4/1 1/4/1
f 4/4/1 2/4/1 3/4/1
f 5/3/1 4/3/1 3/3/1
f 6/3/1 4/3/1 5/3/1
f 9/2/1 8/2/1 7/2/1
f 10/2/1 8/2/1 9/2/1
f 11/2/2 12/2/2 13/2/2
f 13/2/2 12/2/2 14/2/2
f 15/4/2 16/4/2 17/4/2
f 17/4/2 16/4/2 18/4/2
f 17/3/2 18/3/2 19/3/2
f 19/3/2 18/3/2 20/3/2
f 24/4/3 22/4/3 21/4/3
f 25/3/3 23/3/3 22/3/3
f 25/4/3 22/4/3 24/4/3
f 26/3/3 23/3/3 25/3/3
f 27/4/3 24/4/3 21/4/3
f 27/2/3 25/2/3 24/2/3
f 27/2/3 26/2/3 25/2/3
f 28/2/3 26/2/3 27/2/3
f 29/2/3 26/2/3 28/2/3
f 30/4/3 27/4/3 21/4/3
f 30/4/3 28/4/3 27/4/3
f 31/4/3 28/4/3 30/4/3
f 32/4/3 30/4/3 21/4/3
f 32/1/3 31/1/3 30/1/3
f 33/1/3 31/1/3 32/1/3
f 34/4/3 32/4/3 21/4/3
f 34/4/3 33/4/3 32/4/3
f 35/4/3 33/4/3 34/4/3
f 37/2/3 35/2/3 34/2/3
f 37/2/3 36/2/3 35/2/3
f 37/4/3 34/4/3 21/4/3
f 38/2/3 36/2/3 37/2/3
f 39/2/3 36/2/3 38/2/3
f 40/4/3 37/4/3 21/4/3
f 40/4/3 38/4/3 37/4/3
f 41/3/3 39/3/3 38/3/3
f 41/4/3 38/4/3 40/4/3
f 42/3/3 39/3/3 41/3/3
f 43/4/4 44/4/4 46/4/4
f 44/3/4 45/3/4 47/3/4
f 46/4/4 44/4/4 47/4/4
f 47/3/4 45/3/4 48/3/4
f 43/4/4 46/4/4 49/4/4
f 46/2/4 47/2/4 49/2/4
f 47/2/4 48/2/4 49/2/4
f 49/2/4 48/2/4 50/2/4
f 50/2/4 48/2/4 51/2/4
f 43/4/4 49/4/4 52/4/4
f 49/4/4 50/4/4 52/4/4
f 52/4/4 50/4/4 53/4/4
f 43/4/4 52/4/4 54/4/4
f 52/1/4 53/1/4 54/1/4
f 54/1/4 53/1/4 55/1/4
f 43/4/4 54/4/4 56/4/4
f 54/4/4 55/4/4 56/4/4
f 56/4/4 55/4/4 57/4/4
f 56/2/4 57/2/4 59/2/4
f 57/2/4 58/2/4 59/2/4
f 43/4/4 56/4/4 59/4/4
f 59/2/4 58/2/4 60/2/4
f 60/2/4 58/2/4 61/2/4
f 43/4/4 59/4/4 62/4/4
f 59/4/4 60/4/4 62/4/4
f 60/3/4 61/3/4 63/3/4
f 62/4/4 60/4/4 63/4/4
f 63/3/4 61/3/4 64/3/4
f 67/4/5 66/4/5 65/4/5
f 68/4/5 66/4/5 67/4/5
f 69/4/6 70/4/6 73/4/6
f 70/1/6 71/1/6 73/1/6
f 71/4/6 72/4/6 74/4/6
f 73/1/6 71/1/6 74/1/6
f 69/4/6 73/4/6 75/4/6
f 73/4/6 74/4/6 75/4/6
f 74/4/6 72/4/6 76/4/6
f 75/4/6 74/4/6 76/4/6
f 69/4/6 75/4/6 77/4/6
f 75/1/6 76/1/6 77/1/6
f 76/4/6 72/4/6 78/4/6
f 77/1/6 76/1/6 78/1/6
f 69/4/6 77/4/6 79/4/6
f 77/4/6 78/4/6 79/4/6
f 78/4/6 72/4/6 80/4/6
f 79/4/6 78/4/6 80/4/6
f 69/4/6 79/4/6 81/4/6
f 79/1/6 80/1/6 81/1/6
f 80/4/6 72/4/6 82/4/6
f 81/1/6 80/1/6 82/1/6
f 69/4/6 81/4/6 83/4/6
f 81/4/6 82/4/6 83/4/6
f 82/4/6 72/4/6 84/4/6
f 83/4/6 82/4/6 84/4/6
f 69/4/6 83/4/6 85/4/6
f 83/1/6 84/1/6 85/1/6
f 84/4/6 72/4/6 86/4/6
f 85/1/6 84/1/6 86/1/6
f 69/4/6 85/4/6 87/4/6
f 85/4/6 86/4/6 87/4/6
f 86/4/6 72/4/6 88/4/6
f 87/4/6 86/4/6 88/4/6
f 69/4/6 87/4/6 89/4/6
f 87/1/6 88/1/6 90/1/6
f 89/4/6 87/4/6 90/4/6
f 88/4/6 72/4/6 91/4/6
f 90/1/6 88/1/6 91/1/6
f 91/4/6 72/4/6 92/4/6
f 93/3/6 94/3/6 99/3/6
f 94/2/6 95/2/6 100/2/6
f 99/3/6 94/3/6 100/3/6
f 100/2/6 95/2/6 101/2/6
f 96/2/6 97/2/6 102/2/6
f 97/3/6 98/3/6 103/3/6
f 102/2/6 97/2/6 103/2/6
f 103/3/6 98/3/6 104/3/6
