# MagicaVoxel @ Ephtracy

# group
o 

# material
mtllib roads-6.mtl
usemtl palette

# normals
vn -1 0 0
vn 1 0 0
vn 0 0 1
vn 0 0 -1
vn 0 -1 0
vn 0 1 0

# texcoords
vt 0.962891 0.5
vt 0.982422 0.5
vt 0.986328 0.5
vt 0.990234 0.5

# verts
v -6.3 0 6.3
v -6.3 0 -6.3
v -6.3 0.1 0.0999999
v -6.3 0.1 -0.0999999
v -6.3 0.2 6.3
v -6.3 0.2 4.1
v -6.3 0.2 3.9
v -6.3 0.2 0.0999999
v -6.3 0.2 -0.0999999
v -6.3 0.2 -3.9
v -6.3 0.2 -4.1
v -6.3 0.2 -6.3
v -6.3 0.3 4.2
v -6.3 0.3 4.1
v -6.3 0.3 -4.1
v -6.3 0.3 -4.2
v -6.3 0.4 6.3
v -6.3 0.4 4.2
v -6.3 0.4 3.9
v -6.3 0.4 -3.9
v -6.3 0.4 -4.2
v -6.3 0.4 -6.3
v 3.9 0.2 6.3
v 3.9 0.2 5.6
v 3.9 0.2 5.4
v 3.9 0.2 -6.3
v 3.9 0.4 6.3
v 3.9 0.4 -6.3
v -5.8 0.2 4
v -5.8 0.2 3.9
v -5.8 0.2 -3.9
v -5.8 0.2 -4
v -5.8 0.4 4
v -5.8 0.4 3.9
v -5.8 0.4 -3.9
v -5.8 0.4 -4
v -5.4 0.2 4.1
v -5.4 0.2 4
v -5.4 0.2 -4
v -5.4 0.2 -4.1
v -5.4 0.4 4.1
v -5.4 0.4 4
v -5.4 0.4 -4
v -5.4 0.4 -4.1
v -5.2 0.2 4.2
v -5.2 0.2 4.1
v -5.2 0.2 -4.1
v -5.2 0.2 -4.2
v -5.2 0.4 4.2
v -5.2 0.4 4.1
v -5.2 0.4 -4.1
v -5.2 0.4 -4.2
v -5 0.2 4.3
v -5 0.2 4.2
v -5 0.2 -4.2
v -5 0.2 -4.3
v -5 0.4 4.3
v -5 0.4 4.2
v -5 0.4 -4.2
v -5 0.4 -4.3
v -4.9 0.2 4.4
v -4.9 0.2 4.3
v -4.9 0.2 -4.3
v -4.9 0.2 -4.4
v -4.9 0.4 4.4
v -4.9 0.4 4.3
v -4.9 0.4 -4.3
v -4.9 0.4 -4.4
v -4.7 0.2 4.5
v -4.7 0.2 4.4
v -4.7 0.2 -4.4
v -4.7 0.2 -4.5
v -4.7 0.4 4.5
v -4.7 0.4 4.4
v -4.7 0.4 -4.4
v -4.7 0.4 -4.5
v -4.6 0.2 4.6
v -4.6 0.2 4.5
v -4.6 0.2 -4.5
v -4.6 0.2 -4.6
v -4.6 0.4 4.6
v -4.6 0.4 4.5
v -4.6 0.4 -4.5
v -4.6 0.4 -4.6
v -4.5 0.2 4.7
v -4.5 0.2 4.6
v -4.5 0.2 -4.6
v -4.5 0.2 -4.7
v -4.5 0.4 4.7
v -4.5 0.4 4.6
v -4.5 0.4 -4.6
v -4.5 0.4 -4.7
v -4.4 0.2 4.9
v -4.4 0.2 4.7
v -4.4 0.2 -4.7
v -4.4 0.2 -4.9
v -4.4 0.4 4.9
v -4.4 0.4 4.7
v -4.4 0.4 -4.7
v -4.4 0.4 -4.9
v -4.3 0.2 5
v -4.3 0.2 4.9
v -4.3 0.2 -4.9
v -4.3 0.2 -5
v -4.3 0.4 5
v -4.3 0.4 4.9
v -4.3 0.4 -4.9
v -4.3 0.4 -5
v -4.2 0.2 5.2
v -4.2 0.2 5
v -4.2 0.2 -5
v -4.2 0.2 -5.2
v -4.2 0.4 5.2
v -4.2 0.4 5
v -4.2 0.4 -5
v -4.2 0.4 -5.2
v -4.1 0.2 5.4
v -4.1 0.2 5.2
v -4.1 0.2 -5.2
v -4.1 0.2 -5.4
v -4.1 0.4 5.4
v -4.1 0.4 5.2
v -4.1 0.4 -5.2
v -4.1 0.4 -5.4
v -4 0.2 5.8
v -4 0.2 5.4
v -4 0.2 -5.4
v -4 0.2 -5.8
v -4 0.4 5.8
v -4 0.4 5.4
v -4 0.4 -5.4
v -4 0.4 -5.8
v -3.9 0.2 6.3
v -3.9 0.2 5.8
v -3.9 0.2 -5.8
v -3.9 0.2 -6.3
v -3.9 0.4 6.3
v -3.9 0.4 5.8
v -3.9 0.4 -5.8
v -3.9 0.4 -6.3
v 6.3 0 6.3
v 6.3 0 -6.3
v 6.3 0.2 6.3
v 6.3 0.2 -6.3
v 6.3 0.4 6.3
v 6.3 0.4 -6.3
v -6.3 0 6.3
v -6.3 0.2 6.3
v -6.3 0.4 6.3
v -5.9 0.2 6.3
v -5.9 0.3 6.3
v -4.2 0.3 6.3
v -4.2 0.4 6.3
v -3.9 0.2 6.3
v -3.9 0.4 6.3
v -0.0999999 0.1 6.3
v -0.0999999 0.2 6.3
v 0.0999999 0.1 6.3
v 0.0999999 0.2 6.3
v 3.9 0.1 6.3
v 3.9 0.2 6.3
v 3.9 0.4 6.3
v 4.2 0.1 6.3
v 4.2 0.2 6.3
v 4.2 0.4 6.3
v 6.3 0 6.3
v 6.3 0.2 6.3
v 6.3 0.4 6.3
v -6.3 0.2 -3.9
v -6.3 0.4 -3.9
v -5.8 0.2 -3.9
v -5.8 0.4 -3.9
v -5.8 0.2 -4
v -5.8 0.4 -4
v -5.4 0.2 -4
v -5.4 0.4 -4
v -5.4 0.2 -4.1
v -5.4 0.4 -4.1
v -5.2 0.2 -4.1
v -5.2 0.4 -4.1
v -5.2 0.2 -4.2
v -5.2 0.4 -4.2
v -5 0.2 -4.2
v -5 0.4 -4.2
v -5 0.2 -4.3
v -5 0.4 -4.3
v -4.9 0.2 -4.3
v -4.9 0.4 -4.3
v -4.9 0.2 -4.4
v -4.9 0.4 -4.4
v -4.7 0.2 -4.4
v -4.7 0.4 -4.4
v -4.7 0.2 -4.5
v -4.7 0.4 -4.5
v -4.6 0.2 -4.5
v -4.6 0.4 -4.5
v -4.6 0.2 -4.6
v -4.6 0.4 -4.6
v -4.5 0.2 -4.6
v -4.5 0.4 -4.6
v -4.5 0.2 -4.7
v -4.5 0.4 -4.7
v -4.4 0.2 -4.7
v -4.4 0.4 -4.7
v -4.4 0.2 -4.9
v -4.4 0.4 -4.9
v -4.3 0.2 -4.9
v -4.3 0.4 -4.9
v -4.3 0.2 -5
v -4.3 0.4 -5
v -4.2 0.2 -5
v -4.2 0.4 -5
v -4.2 0.2 -5.2
v -4.2 0.4 -5.2
v -4.1 0.2 -5.2
v -4.1 0.4 -5.2
v -4.1 0.2 -5.4
v -4.1 0.4 -5.4
v -4 0.2 -5.4
v -4 0.4 -5.4
v -4 0.2 -5.8
v -4 0.4 -5.8
v -3.9 0.2 -5.8
v -3.9 0.4 -5.8
v -4 0.2 5.8
v -4 0.4 5.8
v -3.9 0.2 5.8
v -3.9 0.4 5.8
v -4.1 0.2 5.4
v -4.1 0.4 5.4
v -4 0.2 5.4
v -4 0.4 5.4
v -4.2 0.2 5.2
v -4.2 0.4 5.2
v -4.1 0.2 5.2
v -4.1 0.4 5.2
v -4.3 0.2 5
v -4.3 0.4 5
v -4.2 0.2 5
v -4.2 0.4 5
v -4.4 0.2 4.9
v -4.4 0.4 4.9
v -4.3 0.2 4.9
v -4.3 0.4 4.9
v -4.5 0.2 4.7
v -4.5 0.4 4.7
v -4.4 0.2 4.7
v -4.4 0.4 4.7
v -4.6 0.2 4.6
v -4.6 0.4 4.6
v -4.5 0.2 4.6
v -4.5 0.4 4.6
v -4.7 0.2 4.5
v -4.7 0.4 4.5
v -4.6 0.2 4.5
v -4.6 0.4 4.5
v -4.9 0.2 4.4
v -4.9 0.4 4.4
v -4.7 0.2 4.4
v -4.7 0.4 4.4
v -5 0.2 4.3
v -5 0.4 4.3
v -4.9 0.2 4.3
v -4.9 0.4 4.3
v -5.2 0.2 4.2
v -5.2 0.4 4.2
v -5 0.2 4.2
v -5 0.4 4.2
v -5.4 0.2 4.1
v -5.4 0.4 4.1
v -5.2 0.2 4.1
v -5.2 0.4 4.1
v -5.8 0.2 4
v -5.8 0.4 4
v -5.4 0.2 4
v -5.4 0.4 4
v -6.3 0.2 3.9
v -6.3 0.4 3.9
v -5.8 0.2 3.9
v -5.8 0.4 3.9
v -6.3 0 -6.3
v -6.3 0.2 -6.3
v -6.3 0.4 -6.3
v -4.2 0.2 -6.3
v -4.2 0.4 -6.3
v -3.9 0.2 -6.3
v -3.9 0.4 -6.3
v -0.0999999 0.1 -6.3
v -0.0999999 0.2 -6.3
v 0.0999999 0.1 -6.3
v 0.0999999 0.2 -6.3
v 3.9 0.1 -6.3
v 3.9 0.2 -6.3
v 3.9 0.4 -6.3
v 4.2 0.1 -6.3
v 4.2 0.2 -6.3
v 4.2 0.4 -6.3
v 6.3 0 -6.3
v 6.3 0.2 -6.3
v 6.3 0.4 -6.3
v -6.3 0 6.3
v 6.3 0 6.3
v -6.3 0 -6.3
v 6.3 0 -6.3
v -3.9 0.2 6.3
v -0.0999999 0.2 6.3
v 0.0999999 0.2 6.3
v 3.9 0.2 6.3
v -4 0.2 5.8
v -3.9 0.2 5.8
v 0.0999999 0.2 5.6
v 3.9 0.2 5.6
v -4.1 0.2 5.4
v -4 0.2 5.4
v -0.0999999 0.2 5.4
v 3.9 0.2 5.4
v -4.2 0.2 5.2
v -4.1 0.2 5.2
v -4.3 0.2 5
v -4.2 0.2 5
v -4.4 0.2 4.9
v -4.3 0.2 4.9
v -4.5 0.2 4.7
v -4.4 0.2 4.7
v -4.6 0.2 4.6
v -4.5 0.2 4.6
v -4.7 0.2 4.5
v -4.6 0.2 4.5
v -4.9 0.2 4.4
v -4.7 0.2 4.4
v -5 0.2 4.3
v -4.9 0.2 4.3
v -5.2 0.2 4.2
v -5 0.2 4.2
v -5.4 0.2 4.1
v -5.2 0.2 4.1
v -5.8 0.2 4
v -5.4 0.2 4
v -6.3 0.2 3.9
v -5.8 0.2 3.9
v -5.7 0.2 3.9
v -5.5 0.2 3.9
v -6.3 0.2 0.0999999
v -5.7 0.2 0.0999999
v -6.3 0.2 -0.0999999
v -5.5 0.2 -0.0999999
v -6.3 0.2 -3.9
v -5.8 0.2 -3.9
v -5.8 0.2 -4
v -5.4 0.2 -4
v -5.4 0.2 -4.1
v -5.2 0.2 -4.1
v -5.2 0.2 -4.2
v -5 0.2 -4.2
v -5 0.2 -4.3
v -4.9 0.2 -4.3
v -4.9 0.2 -4.4
v -4.7 0.2 -4.4
v -4.7 0.2 -4.5
v -4.6 0.2 -4.5
v -4.6 0.2 -4.6
v -4.5 0.2 -4.6
v -4.5 0.2 -4.7
v -4.4 0.2 -4.7
v -4.4 0.2 -4.9
v -4.3 0.2 -4.9
v -4.3 0.2 -5
v -4.2 0.2 -5
v -4.2 0.2 -5.2
v -4.1 0.2 -5.2
v -4.1 0.2 -5.4
v -4 0.2 -5.4
v -3.9 0.2 -5.4
v 0.0999999 0.2 -5.4
v -3.9 0.2 -5.6
v -0.0999999 0.2 -5.6
v -4 0.2 -5.8
v -3.9 0.2 -5.8
v -3.9 0.2 -6.3
v -0.0999999 0.2 -6.3
v 0.0999999 0.2 -6.3
v 3.9 0.2 -6.3
v -6.3 0.4 6.3
v -4.2 0.4 6.3
v -3.9 0.4 6.3
v 3.9 0.4 6.3
v 4.2 0.4 6.3
v 6.3 0.4 6.3
v -4.3 0.4 5.8
v -4.2 0.4 5.8
v -4 0.4 5.8
v -3.9 0.4 5.8
v -4.4 0.4 5.5
v -4.3 0.4 5.5
v -4.1 0.4 5.4
v -4 0.4 5.4
v -4.5 0.4 5.3
v -4.4 0.4 5.3
v -4.2 0.4 5.2
v -4.1 0.4 5.2
v -4.6 0.4 5.1
v -4.5 0.4 5.1
v -4.7 0.4 5
v -4.6 0.4 5
v -4.3 0.4 5
v -4.2 0.4 5
v -4.8 0.4 4.9
v -4.7 0.4 4.9
v -4.4 0.4 4.9
v -4.3 0.4 4.9
v -4.9 0.4 4.8
v -4.8 0.4 4.8
v -5 0.4 4.7
v -4.9 0.4 4.7
v -4.5 0.4 4.7
v -4.4 0.4 4.7
v -5.1 0.4 4.6
v -5 0.4 4.6
v -4.6 0.4 4.6
v -4.5 0.4 4.6
v -5.3 0.4 4.5
v -5.1 0.4 4.5
v -4.7 0.4 4.5
v -4.6 0.4 4.5
v -5.5 0.4 4.4
v -5.3 0.4 4.4
v -4.9 0.4 4.4
v -4.7 0.4 4.4
v -5.8 0.4 4.3
v -5.5 0.4 4.3
v -5 0.4 4.3
v -4.9 0.4 4.3
v -6.3 0.4 4.2
v -5.8 0.4 4.2
v -5.2 0.4 4.2
v -5 0.4 4.2
v -5.4 0.4 4.1
v -5.2 0.4 4.1
v -5.8 0.4 4
v -5.4 0.4 4
v -6.3 0.4 3.9
v -5.8 0.4 3.9
v -6.3 0.4 -3.9
v -5.8 0.4 -3.9
v -5.8 0.4 -4
v -5.4 0.4 -4
v -5.4 0.4 -4.1
v -5.2 0.4 -4.1
v -6.3 0.4 -4.2
v -5.8 0.4 -4.2
v -5.2 0.4 -4.2
v -5 0.4 -4.2
v -5.8 0.4 -4.3
v -5.5 0.4 -4.3
v -5 0.4 -4.3
v -4.9 0.4 -4.3
v -5.5 0.4 -4.4
v -5.3 0.4 -4.4
v -4.9 0.4 -4.4
v -4.7 0.4 -4.4
v -5.3 0.4 -4.5
v -5.1 0.4 -4.5
v -4.7 0.4 -4.5
v -4.6 0.4 -4.5
v -5.1 0.4 -4.6
v -5 0.4 -4.6
v -4.6 0.4 -4.6
v -4.5 0.4 -4.6
v -5 0.4 -4.7
v -4.9 0.4 -4.7
v -4.5 0.4 -4.7
v -4.4 0.4 -4.7
v -4.9 0.4 -4.8
v -4.8 0.4 -4.8
v -4.8 0.4 -4.9
v -4.7 0.4 -4.9
v -4.4 0.4 -4.9
v -4.3 0.4 -4.9
v -4.7 0.4 -5
v -4.6 0.4 -5
v -4.3 0.4 -5
v -4.2 0.4 -5
v -4.6 0.4 -5.1
v -4.5 0.4 -5.1
v -4.2 0.4 -5.2
v -4.1 0.4 -5.2
v -4.5 0.4 -5.3
v -4.4 0.4 -5.3
v -4.1 0.4 -5.4
v -4 0.4 -5.4
v -4.4 0.4 -5.5
v -4.3 0.4 -5.5
v -4.3 0.4 -5.8
v -4.2 0.4 -5.8
v -4 0.4 -5.8
v -3.9 0.4 -5.8
v -6.3 0.4 -6.3
v -4.2 0.4 -6.3
v -3.9 0.4 -6.3
v 3.9 0.4 -6.3
v 4.2 0.4 -6.3
v 6.3 0.4 -6.3

# faces
f 3/4/1 2/4/1 1/4/1
f 4/4/1 2/4/1 3/4/1
f 5/4/1 3/4/1 1/4/1
f 6/4/1 3/4/1 5/4/1
f 7/4/1 3/4/1 6/4/1
f 8/1/1 4/1/1 3/1/1
f 8/4/1 3/4/1 7/4/1
f 9/4/1 2/4/1 4/4/1
f 9/1/1 4/1/1 8/1/1
f 10/4/1 2/4/1 9/4/1
f 11/4/1 2/4/1 10/4/1
f 12/4/1 2/4/1 11/4/1
f 13/3/1 6/3/1 5/3/1
f 14/2/1 7/2/1 6/2/1
f 14/3/1 6/3/1 13/3/1
f 15/3/1 12/3/1 11/3/1
f 15/2/1 11/2/1 10/2/1
f 16/3/1 12/3/1 15/3/1
f 17/3/1 13/3/1 5/3/1
f 18/2/1 14/2/1 13/2/1
f 18/3/1 13/3/1 17/3/1
f 19/2/1 7/2/1 14/2/1
f 19/2/1 14/2/1 18/2/1
f 20/2/1 15/2/1 10/2/1
f 20/2/1 16/2/1 15/2/1
f 21/3/1 12/3/1 16/3/1
f 21/2/1 16/2/1 20/2/1
f 22/3/1 12/3/1 21/3/1
f 27/2/1 24/2/1 23/2/1
f 27/2/1 26/2/1 25/2/1
f 27/2/1 25/2/1 24/2/1
f 28/2/1 26/2/1 27/2/1
f 29/2/2 30/2/2 33/2/2
f 33/2/2 30/2/2 34/2/2
f 31/2/2 32/2/2 35/2/2
f 35/2/2 32/2/2 36/2/2
f 37/2/2 38/2/2 41/2/2
f 41/2/2 38/2/2 42/2/2
f 39/2/2 40/2/2 43/2/2
f 43/2/2 40/2/2 44/2/2
f 45/2/2 46/2/2 49/2/2
f 49/2/2 46/2/2 50/2/2
f 47/2/2 48/2/2 51/2/2
f 51/2/2 48/2/2 52/2/2
f 53/2/2 54/2/2 57/2/2
f 57/2/2 54/2/2 58/2/2
f 55/2/2 56/2/2 59/2/2
f 59/2/2 56/2/2 60/2/2
f 61/2/2 62/2/2 65/2/2
f 65/2/2 62/2/2 66/2/2
f 63/2/2 64/2/2 67/2/2
f 67/2/2 64/2/2 68/2/2
f 69/2/2 70/2/2 73/2/2
f 73/2/2 70/2/2 74/2/2
f 71/2/2 72/2/2 75/2/2
f 75/2/2 72/2/2 76/2/2
f 77/2/2 78/2/2 81/2/2
f 81/2/2 78/2/2 82/2/2
f 79/2/2 80/2/2 83/2/2
f 83/2/2 80/2/2 84/2/2
f 85/2/2 86/2/2 89/2/2
f 89/2/2 86/2/2 90/2/2
f 87/2/2 88/2/2 91/2/2
f 91/2/2 88/2/2 92/2/2
f 93/2/2 94/2/2 97/2/2
f 97/2/2 94/2/2 98/2/2
f 95/2/2 96/2/2 99/2/2
f 99/2/2 96/2/2 100/2/2
f 101/2/2 102/2/2 105/2/2
f 105/2/2 102/2/2 106/2/2
f 103/2/2 104/2/2 107/2/2
f 107/2/2 104/2/2 108/2/2
f 109/2/2 110/2/2 113/2/2
f 113/2/2 110/2/2 114/2/2
f 111/2/2 112/2/2 115/2/2
f 115/2/2 112/2/2 116/2/2
f 117/2/2 118/2/2 121/2/2
f 121/2/2 118/2/2 122/2/2
f 119/2/2 120/2/2 123/2/2
f 123/2/2 120/2/2 124/2/2
f 125/2/2 126/2/2 129/2/2
f 129/2/2 126/2/2 130/2/2
f 127/2/2 128/2/2 131/2/2
f 131/2/2 128/2/2 132/2/2
f 133/2/2 134/2/2 137/2/2
f 137/2/2 134/2/2 138/2/2
f 135/2/2 136/2/2 139/2/2
f 139/2/2 136/2/2 140/2/2
f 141/4/2 142/4/2 143/4/2
f 143/4/2 142/4/2 144/4/2
f 143/3/2 144/3/2 145/3/2
f 145/3/2 144/3/2 146/3/2
f 150/4/3 148/4/3 147/4/3
f 150/3/3 149/3/3 148/3/3
f 151/3/3 149/3/3 150/3/3
f 152/2/3 151/2/3 150/2/3
f 152/3/3 149/3/3 151/3/3
f 153/3/3 149/3/3 152/3/3
f 154/4/3 150/4/3 147/4/3
f 154/2/3 152/2/3 150/2/3
f 154/2/3 153/2/3 152/2/3
f 155/2/3 153/2/3 154/2/3
f 156/4/3 154/4/3 147/4/3
f 157/4/3 154/4/3 156/4/3
f 158/4/3 156/4/3 147/4/3
f 158/1/3 157/1/3 156/1/3
f 159/1/3 157/1/3 158/1/3
f 160/4/3 158/4/3 147/4/3
f 160/4/3 159/4/3 158/4/3
f 161/4/3 159/4/3 160/4/3
f 163/2/3 161/2/3 160/2/3
f 163/2/3 162/2/3 161/2/3
f 163/4/3 160/4/3 147/4/3
f 164/2/3 162/2/3 163/2/3
f 165/2/3 162/2/3 164/2/3
f 166/4/3 163/4/3 147/4/3
f 166/4/3 164/4/3 163/4/3
f 167/3/3 165/3/3 164/3/3
f 167/4/3 164/4/3 166/4/3
f 168/3/3 165/3/3 167/3/3
f 171/2/3 170/2/3 169/2/3
f 172/2/3 170/2/3 171/2/3
f 175/2/3 174/2/3 173/2/3
f 176/2/3 174/2/3 175/2/3
f 179/2/3 178/2/3 177/2/3
f 180/2/3 178/2/3 179/2/3
f 183/2/3 182/2/3 181/2/3
f 184/2/3 182/2/3 183/2/3
f 187/2/3 186/2/3 185/2/3
f 188/2/3 186/2/3 187/2/3
f 191/2/3 190/2/3 189/2/3
f 192/2/3 190/2/3 191/2/3
f 195/2/3 194/2/3 193/2/3
f 196/2/3 194/2/3 195/2/3
f 199/2/3 198/2/3 197/2/3
f 200/2/3 198/2/3 199/2/3
f 203/2/3 202/2/3 201/2/3
f 204/2/3 202/2/3 203/2/3
f 207/2/3 206/2/3 205/2/3
f 208/2/3 206/2/3 207/2/3
f 211/2/3 210/2/3 209/2/3
f 212/2/3 210/2/3 211/2/3
f 215/2/3 214/2/3 213/2/3
f 216/2/3 214/2/3 215/2/3
f 219/2/3 218/2/3 217/2/3
f 220/2/3 218/2/3 219/2/3
f 223/2/3 222/2/3 221/2/3
f 224/2/3 222/2/3 223/2/3
f 225/2/4 226/2/4 227/2/4
f 227/2/4 226/2/4 228/2/4
f 229/2/4 230/2/4 231/2/4
f 231/2/4 230/2/4 232/2/4
f 233/2/4 234/2/4 235/2/4
f 235/2/4 234/2/4 236/2/4
f 237/2/4 238/2/4 239/2/4
f 239/2/4 238/2/4 240/2/4
f 241/2/4 242/2/4 243/2/4
f 243/2/4 242/2/4 244/2/4
f 245/2/4 246/2/4 247/2/4
f 247/2/4 246/2/4 248/2/4
f 249/2/4 250/2/4 251/2/4
f 251/2/4 250/2/4 252/2/4
f 253/2/4 254/2/4 255/2/4
f 255/2/4 254/2/4 256/2/4
f 257/2/4 258/2/4 259/2/4
f 259/2/4 258/2/4 260/2/4
f 261/2/4 262/2/4 263/2/4
f 263/2/4 262/2/4 264/2/4
f 265/2/4 266/2/4 267/2/4
f 267/2/4 266/2/4 268/2/4
f 269/2/4 270/2/4 271/2/4
f 271/2/4 270/2/4 272/2/4
f 273/2/4 274/2/4 275/2/4
f 275/2/4 274/2/4 276/2/4
f 277/2/4 278/2/4 279/2/4
f 279/2/4 278/2/4 280/2/4
f 281/4/4 282/4/4 284/4/4
f 282/3/4 283/3/4 284/3/4
f 284/3/4 283/3/4 285/3/4
f 281/4/4 284/4/4 286/4/4
f 284/2/4 285/2/4 286/2/4
f 286/2/4 285/2/4 287/2/4
f 281/4/4 286/4/4 288/4/4
f 288/4/4 286/4/4 289/4/4
f 281/4/4 288/4/4 290/4/4
f 288/1/4 289/1/4 290/1/4
f 290/1/4 289/1/4 291/1/4
f 281/4/4 290/4/4 292/4/4
f 290/4/4 291/4/4 292/4/4
f 292/4/4 291/4/4 293/4/4
f 292/2/4 293/2/4 295/2/4
f 293/2/4 294/2/4 295/2/4
f 281/4/4 292/4/4 295/4/4
f 295/2/4 294/2/4 296/2/4
f 296/2/4 294/2/4 297/2/4
f 281/4/4 295/4/4 298/4/4
f 295/4/4 296/4/4 298/4/4
f 296/3/4 297/3/4 299/3/4
f 298/4/4 296/4/4 299/4/4
f 299/3/4 297/3/4 300/3/4
f 303/4/5 302/4/5 301/4/5
f 304/4/5 302/4/5 303/4/5
f 305/4/6 306/4/6 310/4/6
f 307/4/6 308/4/6 311/4/6
f 306/1/6 307/1/6 311/1/6
f 311/4/6 308/4/6 312/4/6
f 309/4/6 310/4/6 314/4/6
f 310/4/6 306/4/6 315/4/6
f 306/1/6 311/1/6 315/1/6
f 314/4/6 310/4/6 315/4/6
f 311/1/6 312/1/6 315/1/6
f 315/1/6 312/1/6 316/1/6
f 313/4/6 314/4/6 318/4/6
f 314/4/6 315/4/6 318/4/6
f 315/4/6 316/4/6 318/4/6
f 317/4/6 318/4/6 320/4/6
f 319/4/6 320/4/6 322/4/6
f 321/4/6 322/4/6 324/4/6
f 323/4/6 324/4/6 326/4/6
f 325/4/6 326/4/6 328/4/6
f 327/4/6 328/4/6 330/4/6
f 329/4/6 330/4/6 332/4/6
f 331/4/6 332/4/6 334/4/6
f 333/4/6 334/4/6 336/4/6
f 335/4/6 336/4/6 338/4/6
f 337/4/6 338/4/6 340/4/6
f 340/4/6 338/4/6 341/4/6
f 341/4/6 338/4/6 342/4/6
f 339/4/6 340/4/6 343/4/6
f 340/4/6 341/4/6 343/4/6
f 341/1/6 342/1/6 344/1/6
f 343/4/6 341/4/6 344/4/6
f 343/1/6 344/1/6 345/1/6
f 342/4/6 338/4/6 346/4/6
f 345/1/6 344/1/6 346/1/6
f 344/1/6 342/1/6 346/1/6
f 345/4/6 346/4/6 347/4/6
f 347/4/6 346/4/6 348/4/6
f 348/4/6 346/4/6 349/4/6
f 338/4/6 336/4/6 350/4/6
f 349/4/6 346/4/6 350/4/6
f 346/4/6 338/4/6 350/4/6
f 350/4/6 336/4/6 351/4/6
f 336/4/6 334/4/6 352/4/6
f 351/4/6 336/4/6 352/4/6
f 352/4/6 334/4/6 353/4/6
f 334/4/6 332/4/6 354/4/6
f 353/4/6 334/4/6 354/4/6
f 354/4/6 332/4/6 355/4/6
f 332/4/6 330/4/6 356/4/6
f 355/4/6 332/4/6 356/4/6
f 356/4/6 330/4/6 357/4/6
f 330/4/6 328/4/6 358/4/6
f 357/4/6 330/4/6 358/4/6
f 358/4/6 328/4/6 359/4/6
f 328/4/6 326/4/6 360/4/6
f 359/4/6 328/4/6 360/4/6
f 360/4/6 326/4/6 361/4/6
f 326/4/6 324/4/6 362/4/6
f 361/4/6 326/4/6 362/4/6
f 362/4/6 324/4/6 363/4/6
f 324/4/6 322/4/6 364/4/6
f 363/4/6 324/4/6 364/4/6
f 364/4/6 322/4/6 365/4/6
f 322/4/6 320/4/6 366/4/6
f 365/4/6 322/4/6 366/4/6
f 366/4/6 320/4/6 367/4/6
f 320/4/6 318/4/6 368/4/6
f 367/4/6 320/4/6 368/4/6
f 368/4/6 318/4/6 369/4/6
f 318/4/6 316/4/6 370/4/6
f 369/4/6 318/4/6 370/4/6
f 370/4/6 316/4/6 371/4/6
f 371/4/6 316/4/6 372/4/6
f 372/4/6 316/4/6 373/4/6
f 373/4/6 316/4/6 374/4/6
f 372/4/6 373/4/6 375/4/6
f 373/1/6 374/1/6 375/1/6
f 375/1/6 374/1/6 376/1/6
f 372/4/6 375/4/6 377/4/6
f 375/4/6 376/4/6 377/4/6
f 377/4/6 376/4/6 378/4/6
f 378/4/6 376/4/6 379/4/6
f 376/1/6 374/1/6 380/1/6
f 379/4/6 376/4/6 380/4/6
f 374/4/6 316/4/6 381/4/6
f 380/1/6 374/1/6 381/1/6
f 381/4/6 316/4/6 382/4/6
f 383/3/6 384/3/6 389/3/6
f 384/2/6 385/2/6 390/2/6
f 389/3/6 384/3/6 390/3/6
f 390/2/6 385/2/6 391/2/6
f 391/2/6 385/2/6 392/2/6
f 383/3/6 389/3/6 393/3/6
f 389/2/6 390/2/6 394/2/6
f 393/3/6 389/3/6 394/3/6
f 390/2/6 391/2/6 394/2/6
f 393/2/6 394/2/6 395/2/6
f 394/2/6 391/2/6 395/2/6
f 395/2/6 391/2/6 396/2/6
f 383/3/6 393/3/6 397/3/6
f 393/2/6 395/2/6 398/2/6
f 397/3/6 393/3/6 398/3/6
f 397/2/6 398/2/6 399/2/6
f 398/2/6 395/2/6 399/2/6
f 399/2/6 395/2/6 400/2/6
f 383/3/6 397/3/6 401/3/6
f 397/2/6 399/2/6 402/2/6
f 401/3/6 397/3/6 402/3/6
f 383/3/6 401/3/6 403/3/6
f 401/2/6 402/2/6 404/2/6
f 403/3/6 401/3/6 404/3/6
f 402/2/6 399/2/6 405/2/6
f 404/2/6 402/2/6 405/2/6
f 405/2/6 399/2/6 406/2/6
f 383/3/6 403/3/6 407/3/6
f 403/2/6 404/2/6 408/2/6
f 407/3/6 403/3/6 408/3/6
f 404/2/6 405/2/6 408/2/6
f 408/2/6 405/2/6 409/2/6
f 409/2/6 405/2/6 410/2/6
f 383/3/6 407/3/6 411/3/6
f 407/2/6 408/2/6 412/2/6
f 411/3/6 407/3/6 412/3/6
f 408/2/6 409/2/6 412/2/6
f 383/3/6 411/3/6 413/3/6
f 411/2/6 412/2/6 414/2/6
f 413/3/6 411/3/6 414/3/6
f 412/2/6 409/2/6 415/2/6
f 414/2/6 412/2/6 415/2/6
f 415/2/6 409/2/6 416/2/6
f 383/3/6 413/3/6 417/3/6
f 413/2/6 414/2/6 418/2/6
f 417/3/6 413/3/6 418/3/6
f 414/2/6 415/2/6 418/2/6
f 418/2/6 415/2/6 419/2/6
f 419/2/6 415/2/6 420/2/6
f 383/3/6 417/3/6 421/3/6
f 417/2/6 418/2/6 422/2/6
f 421/3/6 417/3/6 422/3/6
f 418/2/6 419/2/6 422/2/6
f 422/2/6 419/2/6 423/2/6
f 423/2/6 419/2/6 424/2/6
f 383/3/6 421/3/6 425/3/6
f 421/2/6 422/2/6 426/2/6
f 425/3/6 421/3/6 426/3/6
f 422/2/6 423/2/6 426/2/6
f 426/2/6 423/2/6 427/2/6
f 427/2/6 423/2/6 428/2/6
f 383/3/6 425/3/6 429/3/6
f 425/2/6 426/2/6 430/2/6
f 429/3/6 425/3/6 430/3/6
f 426/2/6 427/2/6 430/2/6
f 430/2/6 427/2/6 431/2/6
f 431/2/6 427/2/6 432/2/6
f 383/3/6 429/3/6 433/3/6
f 429/2/6 430/2/6 434/2/6
f 433/3/6 429/3/6 434/3/6
f 430/2/6 431/2/6 434/2/6
f 434/2/6 431/2/6 435/2/6
f 435/2/6 431/2/6 436/2/6
f 433/2/6 434/2/6 437/2/6
f 434/2/6 435/2/6 437/2/6
f 437/2/6 435/2/6 438/2/6
f 433/2/6 437/2/6 439/2/6
f 439/2/6 437/2/6 440/2/6
f 433/2/6 439/2/6 441/2/6
f 441/2/6 439/2/6 442/2/6
f 443/2/6 444/2/6 445/2/6
f 445/2/6 446/2/6 447/2/6
f 445/2/6 447/2/6 449/2/6
f 447/2/6 448/2/6 449/2/6
f 443/2/6 445/2/6 449/2/6
f 449/2/6 448/2/6 450/2/6
f 450/2/6 448/2/6 451/2/6
f 450/2/6 451/2/6 453/2/6
f 451/2/6 452/2/6 453/2/6
f 449/3/6 450/3/6 453/3/6
f 453/2/6 452/2/6 454/2/6
f 454/2/6 452/2/6 455/2/6
f 454/2/6 455/2/6 457/2/6
f 455/2/6 456/2/6 457/2/6
f 453/3/6 454/3/6 457/3/6
f 457/2/6 456/2/6 458/2/6
f 458/2/6 456/2/6 459/2/6
f 458/2/6 459/2/6 461/2/6
f 459/2/6 460/2/6 461/2/6
f 457/3/6 458/3/6 461/3/6
f 461/2/6 460/2/6 462/2/6
f 462/2/6 460/2/6 463/2/6
f 462/2/6 463/2/6 465/2/6
f 463/2/6 464/2/6 465/2/6
f 461/3/6 462/3/6 465/3/6
f 465/2/6 464/2/6 466/2/6
f 466/2/6 464/2/6 467/2/6
f 466/2/6 467/2/6 469/2/6
f 467/2/6 468/2/6 469/2/6
f 465/3/6 466/3/6 469/3/6
f 469/2/6 468/2/6 470/2/6
f 470/2/6 468/2/6 471/2/6
f 470/2/6 471/2/6 473/2/6
f 471/2/6 472/2/6 473/2/6
f 469/3/6 470/3/6 473/3/6
f 473/2/6 472/2/6 474/2/6
f 473/3/6 474/3/6 475/3/6
f 474/2/6 472/2/6 475/2/6
f 475/2/6 472/2/6 476/2/6
f 476/2/6 472/2/6 477/2/6
f 476/2/6 477/2/6 479/2/6
f 477/2/6 478/2/6 479/2/6
f 475/3/6 476/3/6 479/3/6
f 479/2/6 478/2/6 480/2/6
f 480/2/6 478/2/6 481/2/6
f 480/2/6 481/2/6 483/2/6
f 481/2/6 482/2/6 483/2/6
f 479/3/6 480/3/6 483/3/6
f 483/2/6 482/2/6 484/2/6
f 484/2/6 482/2/6 485/2/6
f 484/2/6 485/2/6 487/2/6
f 485/2/6 486/2/6 487/2/6
f 483/3/6 484/3/6 487/3/6
f 487/2/6 486/2/6 488/2/6
f 488/2/6 486/2/6 489/2/6
f 488/2/6 489/2/6 491/2/6
f 489/2/6 490/2/6 491/2/6
f 487/3/6 488/3/6 491/3/6
f 491/2/6 490/2/6 492/2/6
f 491/3/6 492/3/6 493/3/6
f 492/2/6 490/2/6 493/2/6
f 493/2/6 490/2/6 494/2/6
f 494/2/6 490/2/6 495/2/6
f 483/3/6 487/3/6 497/3/6
f 475/3/6 479/3/6 497/3/6
f 493/3/6 494/3/6 497/3/6
f 491/3/6 493/3/6 497/3/6
f 487/3/6 491/3/6 497/3/6
f 469/3/6 473/3/6 497/3/6
f 479/3/6 483/3/6 497/3/6
f 465/3/6 469/3/6 497/3/6
f 449/3/6 453/3/6 497/3/6
f 473/3/6 475/3/6 497/3/6
f 453/3/6 457/3/6 497/3/6
f 457/3/6 461/3/6 497/3/6
f 461/3/6 465/3/6 497/3/6
f 494/2/6 495/2/6 498/2/6
f 497/3/6 494/3/6 498/3/6
f 495/2/6 496/2/6 498/2/6
f 498/2/6 496/2/6 499/2/6
f 386/2/6 387/2/6 500/2/6
f 387/3/6 388/3/6 501/3/6
f 500/2/6 387/2/6 501/2/6
f 501/3/6 388/3/6 502/3/6
