# MagicaVoxel @ Ephtracy

# group
o 

# material
mtllib Ak-47.mtl
usemtl palette

# normals
vn -1 0 0
vn 1 0 0
vn 0 0 1
vn 0 0 -1
vn 0 -1 0
vn 0 1 0

# texcoords
vt 0.0683594 0.5
vt 0.982422 0.5
vt 0.990234 0.5

# verts
v -1.7 0.1 2
v -1.7 0.1 1.8
v -1.7 0.3 2
v -1.7 0.3 1.8
v -1.1 0.3 2
v -1.1 0.3 1.8
v -1.1 0.5 2
v -1.1 0.5 1.8
v -0.9 -0.5 2
v -0.9 -0.5 1.8
v -0.9 -0.2 2
v -0.9 -0.2 1.8
v -0.8 -0.2 2
v -0.8 -0.2 1.8
v -0.8 -0.1 2
v -0.8 -0.1 1.8
v -0.7 -0.1 2
v -0.7 -0.1 1.8
v -0.7 0.1 2
v -0.7 0.1 1.8
v -0.1 -0.3 2
v -0.1 -0.3 1.8
v -0.1 0.1 2
v -0.1 0.1 1.8
v 0.3 -0.1 2
v 0.3 -0.1 1.8
v 0.3 0.1 2
v 0.3 0.1 1.8
v 0.5 -0.3 2
v 0.5 -0.3 1.8
v 0.5 -0.1 2
v 0.5 -0.1 1.8
v -0.5 -0.5 2
v -0.5 -0.5 1.8
v -0.5 -0.4 2
v -0.5 -0.4 1.8
v -0.4 -0.4 2
v -0.4 -0.4 1.8
v -0.4 -0.2 2
v -0.4 -0.2 1.8
v -0.3 -0.2 2
v -0.3 -0.2 1.8
v -0.3 0.1 2
v -0.3 0.1 1.8
v 0.0999999 -0.3 2
v 0.0999999 -0.3 1.8
v 0.0999999 0.1 2
v 0.0999999 0.1 1.8
v 0.0999999 0.3 2
v 0.0999999 0.3 1.8
v 0.0999999 0.5 2
v 0.0999999 0.5 1.8
v 0.7 -0.3 2
v 0.7 -0.3 1.8
v 0.7 0.3 2
v 0.7 0.3 1.8
v -1.7 0.1 2
v -1.7 0.3 2
v -1.1 0.1 2
v -1.1 0.3 2
v -1.1 0.5 2
v -0.9 -0.5 2
v -0.9 -0.2 2
v -0.8 -0.2 2
v -0.8 -0.1 2
v -0.8 0.1 2
v -0.8 0.3 2
v -0.8 0.5 2
v -0.7 -0.1 2
v -0.7 0.1 2
v -0.5 -0.5 2
v -0.5 -0.4 2
v -0.4 -0.4 2
v -0.4 -0.2 2
v -0.3 -0.2 2
v -0.3 0.1 2
v -0.1 -0.3 2
v -0.1 0.1 2
v 0.0999999 -0.3 2
v 0.0999999 0.1 2
v 0.0999999 0.3 2
v 0.0999999 0.5 2
v 0.3 -0.1 2
v 0.3 0.1 2
v 0.5 -0.3 2
v 0.5 -0.1 2
v 0.7 -0.3 2
v 0.7 0.3 2
v -1.7 0.1 1.8
v -1.7 0.3 1.8
v -1.1 0.1 1.8
v -1.1 0.3 1.8
v -1.1 0.5 1.8
v -0.9 -0.5 1.8
v -0.9 -0.2 1.8
v -0.8 -0.2 1.8
v -0.8 -0.1 1.8
v -0.8 0.1 1.8
v -0.8 0.3 1.8
v -0.8 0.5 1.8
v -0.7 -0.1 1.8
v -0.7 0.1 1.8
v -0.5 -0.5 1.8
v -0.5 -0.4 1.8
v -0.4 -0.4 1.8
v -0.4 -0.2 1.8
v -0.3 -0.2 1.8
v -0.3 0.1 1.8
v -0.1 -0.3 1.8
v -0.1 0.1 1.8
v 0.0999999 -0.3 1.8
v 0.0999999 0.1 1.8
v 0.0999999 0.3 1.8
v 0.0999999 0.5 1.8
v 0.3 -0.1 1.8
v 0.3 0.1 1.8
v 0.5 -0.3 1.8
v 0.5 -0.1 1.8
v 0.7 -0.3 1.8
v 0.7 0.3 1.8
v -0.9 -0.5 2
v -0.5 -0.5 2
v -0.9 -0.5 1.8
v -0.5 -0.5 1.8
v -0.5 -0.4 2
v -0.4 -0.4 2
v -0.5 -0.4 1.8
v -0.4 -0.4 1.8
v -0.1 -0.3 2
v 0.0999999 -0.3 2
v 0.5 -0.3 2
v 0.7 -0.3 2
v -0.1 -0.3 1.8
v 0.0999999 -0.3 1.8
v 0.5 -0.3 1.8
v 0.7 -0.3 1.8
v -0.4 -0.2 2
v -0.3 -0.2 2
v -0.4 -0.2 1.8
v -0.3 -0.2 1.8
v 0.3 -0.1 2
v 0.5 -0.1 2
v 0.3 -0.1 1.8
v 0.5 -0.1 1.8
v -1.7 0.1 2
v -1.1 0.1 2
v -0.8 0.1 2
v -0.7 0.1 2
v -0.3 0.1 2
v -0.1 0.1 2
v 0.0999999 0.1 2
v 0.3 0.1 2
v -1.7 0.1 1.8
v -1.1 0.1 1.8
v -0.8 0.1 1.8
v -0.7 0.1 1.8
v -0.3 0.1 1.8
v -0.1 0.1 1.8
v 0.0999999 0.1 1.8
v 0.3 0.1 1.8
v -0.9 -0.2 2
v -0.8 -0.2 2
v -0.9 -0.2 1.8
v -0.8 -0.2 1.8
v -0.8 -0.1 2
v -0.7 -0.1 2
v -0.8 -0.1 1.8
v -0.7 -0.1 1.8
v -1.7 0.3 2
v -1.1 0.3 2
v 0.0999999 0.3 2
v 0.7 0.3 2
v -1.7 0.3 1.8
v -1.1 0.3 1.8
v 0.0999999 0.3 1.8
v 0.7 0.3 1.8
v -1.1 0.5 2
v -0.8 0.5 2
v 0.0999999 0.5 2
v -1.1 0.5 1.8
v -0.8 0.5 1.8
v 0.0999999 0.5 1.8

# faces
f 3/2/1 2/2/1 1/2/1
f 4/2/1 2/2/1 3/2/1
f 7/1/1 6/1/1 5/1/1
f 8/1/1 6/1/1 7/1/1
f 11/3/1 10/3/1 9/3/1
f 12/3/1 10/3/1 11/3/1
f 15/3/1 14/3/1 13/3/1
f 16/3/1 14/3/1 15/3/1
f 19/3/1 18/3/1 17/3/1
f 20/3/1 18/3/1 19/3/1
f 23/1/1 22/1/1 21/1/1
f 24/1/1 22/1/1 23/1/1
f 27/1/1 26/1/1 25/1/1
f 28/1/1 26/1/1 27/1/1
f 31/1/1 30/1/1 29/1/1
f 32/1/1 30/1/1 31/1/1
f 33/3/2 34/3/2 35/3/2
f 35/3/2 34/3/2 36/3/2
f 37/3/2 38/3/2 39/3/2
f 39/3/2 38/3/2 40/3/2
f 41/3/2 42/3/2 43/3/2
f 43/3/2 42/3/2 44/3/2
f 45/1/2 46/1/2 47/1/2
f 47/1/2 46/1/2 48/1/2
f 49/3/2 50/3/2 51/3/2
f 51/3/2 50/3/2 52/3/2
f 53/1/2 54/1/2 55/1/2
f 55/1/2 54/1/2 56/1/2
f 59/2/3 58/2/3 57/2/3
f 60/2/3 58/2/3 59/2/3
f 64/3/3 63/3/3 62/3/3
f 66/1/3 60/1/3 59/1/3
f 66/1/3 61/1/3 60/1/3
f 67/1/3 61/1/3 66/1/3
f 68/1/3 61/1/3 67/1/3
f 69/3/3 65/3/3 64/3/3
f 70/2/3 67/2/3 66/2/3
f 71/3/3 64/3/3 62/3/3
f 71/3/3 70/3/3 69/3/3
f 71/3/3 69/3/3 64/3/3
f 72/3/3 70/3/3 71/3/3
f 73/3/3 70/3/3 72/3/3
f 74/3/3 70/3/3 73/3/3
f 75/3/3 70/3/3 74/3/3
f 76/2/3 67/2/3 70/2/3
f 76/3/3 70/3/3 75/3/3
f 78/2/3 67/2/3 76/2/3
f 79/1/3 78/1/3 77/1/3
f 80/2/3 67/2/3 78/2/3
f 80/1/3 78/1/3 79/1/3
f 81/3/3 68/3/3 67/3/3
f 81/2/3 67/2/3 80/2/3
f 82/3/3 68/3/3 81/3/3
f 84/1/3 81/1/3 80/1/3
f 86/1/3 84/1/3 83/1/3
f 87/1/3 86/1/3 85/1/3
f 88/1/3 81/1/3 84/1/3
f 88/1/3 86/1/3 87/1/3
f 88/1/3 84/1/3 86/1/3
f 89/2/4 90/2/4 91/2/4
f 91/2/4 90/2/4 92/2/4
f 94/3/4 95/3/4 96/3/4
f 91/1/4 92/1/4 98/1/4
f 92/1/4 93/1/4 98/1/4
f 98/1/4 93/1/4 99/1/4
f 99/1/4 93/1/4 100/1/4
f 96/3/4 97/3/4 101/3/4
f 98/2/4 99/2/4 102/2/4
f 94/3/4 96/3/4 103/3/4
f 101/3/4 102/3/4 103/3/4
f 96/3/4 101/3/4 103/3/4
f 103/3/4 102/3/4 104/3/4
f 104/3/4 102/3/4 105/3/4
f 105/3/4 102/3/4 106/3/4
f 106/3/4 102/3/4 107/3/4
f 102/2/4 99/2/4 108/2/4
f 107/3/4 102/3/4 108/3/4
f 108/2/4 99/2/4 110/2/4
f 109/1/4 110/1/4 111/1/4
f 110/2/4 99/2/4 112/2/4
f 111/1/4 110/1/4 112/1/4
f 99/3/4 100/3/4 113/3/4
f 112/2/4 99/2/4 113/2/4
f 113/3/4 100/3/4 114/3/4
f 112/1/4 113/1/4 116/1/4
f 115/1/4 116/1/4 118/1/4
f 117/1/4 118/1/4 119/1/4
f 116/1/4 113/1/4 120/1/4
f 119/1/4 118/1/4 120/1/4
f 118/1/4 116/1/4 120/1/4
f 123/3/5 122/3/5 121/3/5
f 124/3/5 122/3/5 123/3/5
f 127/3/5 126/3/5 125/3/5
f 128/3/5 126/3/5 127/3/5
f 133/1/5 130/1/5 129/1/5
f 134/1/5 130/1/5 133/1/5
f 135/1/5 132/1/5 131/1/5
f 136/1/5 132/1/5 135/1/5
f 139/3/5 138/3/5 137/3/5
f 140/3/5 138/3/5 139/3/5
f 143/1/5 142/1/5 141/1/5
f 144/1/5 142/1/5 143/1/5
f 153/2/5 146/2/5 145/2/5
f 154/1/5 147/1/5 146/1/5
f 154/2/5 146/2/5 153/2/5
f 155/2/5 148/2/5 147/2/5
f 155/1/5 147/1/5 154/1/5
f 156/2/5 148/2/5 155/2/5
f 157/2/5 150/2/5 149/2/5
f 158/2/5 150/2/5 157/2/5
f 159/1/5 152/1/5 151/1/5
f 160/1/5 152/1/5 159/1/5
f 161/3/6 162/3/6 163/3/6
f 163/3/6 162/3/6 164/3/6
f 165/3/6 166/3/6 167/3/6
f 167/3/6 166/3/6 168/3/6
f 169/2/6 170/2/6 173/2/6
f 173/2/6 170/2/6 174/2/6
f 171/1/6 172/1/6 175/1/6
f 175/1/6 172/1/6 176/1/6
f 177/1/6 178/1/6 180/1/6
f 178/3/6 179/3/6 181/3/6
f 180/1/6 178/1/6 181/1/6
f 181/3/6 179/3/6 182/3/6
