# MagicaVoxel @ Ephtracy

# group
o zil-130

# material
mtllib wheels-1-zil-130.mtl
usemtl palette

# normals
vn -1 0 0
vn 1 0 0
vn 0 0 1
vn 0 0 -1
vn 0 -1 0
vn 0 1 0

# texcoords
vt 0.962891 0.5
vt 0.994141 0.5

# verts
v -0.3 -1.1 0.3
v -0.3 -1.1 -0.3
v -0.3 -1 0.6
v -0.3 -1 0.3
v -0.3 -1 -0.3
v -0.3 -1 -0.6
v -0.3 -0.9 0.7
v -0.3 -0.9 0.6
v -0.3 -0.9 -0.6
v -0.3 -0.9 -0.7
v -0.3 -0.8 0.8
v -0.3 -0.8 0.7
v -0.3 -0.8 -0.7
v -0.3 -0.8 -0.8
v -0.3 -0.7 0.9
v -0.3 -0.7 0.8
v -0.3 -0.7 0.3
v -0.3 -0.7 -0.3
v -0.3 -0.7 -0.8
v -0.3 -0.7 -0.9
v -0.3 -0.6 1
v -0.3 -0.6 0.9
v -0.3 -0.6 0.4
v -0.3 -0.6 0.3
v -0.3 -0.6 -0.3
v -0.3 -0.6 -0.4
v -0.3 -0.6 -0.9
v -0.3 -0.6 -1
v -0.3 -0.5 0.5
v -0.3 -0.5 0.4
v -0.3 -0.5 -0.4
v -0.3 -0.5 -0.5
v -0.3 -0.4 0.6
v -0.3 -0.4 0.5
v -0.3 -0.4 -0.5
v -0.3 -0.4 -0.6
v -0.3 -0.3 1.1
v -0.3 -0.3 1
v -0.3 -0.3 0.7
v -0.3 -0.3 0.6
v -0.3 -0.3 -0.6
v -0.3 -0.3 -0.7
v -0.3 -0.3 -1
v -0.3 -0.3 -1.1
v -0.3 0.3 1.1
v -0.3 0.3 1
v -0.3 0.3 0.7
v -0.3 0.3 0.6
v -0.3 0.3 -0.6
v -0.3 0.3 -0.7
v -0.3 0.3 -1
v -0.3 0.3 -1.1
v -0.3 0.4 0.6
v -0.3 0.4 0.5
v -0.3 0.4 -0.5
v -0.3 0.4 -0.6
v -0.3 0.5 0.5
v -0.3 0.5 0.4
v -0.3 0.5 -0.4
v -0.3 0.5 -0.5
v -0.3 0.6 1
v -0.3 0.6 0.9
v -0.3 0.6 0.4
v -0.3 0.6 0.3
v -0.3 0.6 -0.3
v -0.3 0.6 -0.4
v -0.3 0.6 -0.9
v -0.3 0.6 -1
v -0.3 0.7 0.9
v -0.3 0.7 0.8
v -0.3 0.7 0.3
v -0.3 0.7 -0.3
v -0.3 0.7 -0.8
v -0.3 0.7 -0.9
v -0.3 0.8 0.8
v -0.3 0.8 0.7
v -0.3 0.8 -0.7
v -0.3 0.8 -0.8
v -0.3 0.9 0.7
v -0.3 0.9 0.6
v -0.3 0.9 -0.6
v -0.3 0.9 -0.7
v -0.3 1 0.6
v -0.3 1 0.3
v -0.3 1 -0.3
v -0.3 1 -0.6
v -0.3 1.1 0.3
v -0.3 1.1 -0.3
v 0.2 -1.1 0.3
v 0.2 -1.1 -0.3
v 0.2 -1 0.6
v 0.2 -1 0.3
v 0.2 -1 -0.3
v 0.2 -1 -0.6
v 0.2 -0.9 0.7
v 0.2 -0.9 0.6
v 0.2 -0.9 -0.6
v 0.2 -0.9 -0.7
v 0.2 -0.8 0.8
v 0.2 -0.8 0.7
v 0.2 -0.8 -0.7
v 0.2 -0.8 -0.8
v 0.2 -0.7 0.9
v 0.2 -0.7 0.8
v 0.2 -0.7 0.3
v 0.2 -0.7 -0.3
v 0.2 -0.7 -0.8
v 0.2 -0.7 -0.9
v 0.2 -0.6 1
v 0.2 -0.6 0.9
v 0.2 -0.6 0.4
v 0.2 -0.6 0.3
v 0.2 -0.6 -0.3
v 0.2 -0.6 -0.4
v 0.2 -0.6 -0.9
v 0.2 -0.6 -1
v 0.2 -0.5 0.5
v 0.2 -0.5 0.4
v 0.2 -0.5 0.2
v 0.2 -0.5 -0.2
v 0.2 -0.5 -0.4
v 0.2 -0.5 -0.5
v 0.2 -0.4 0.6
v 0.2 -0.4 0.5
v 0.2 -0.4 0.3
v 0.2 -0.4 0.2
v 0.2 -0.4 -0.2
v 0.2 -0.4 -0.3
v 0.2 -0.4 -0.5
v 0.2 -0.4 -0.6
v 0.2 -0.3 1.1
v 0.2 -0.3 1
v 0.2 -0.3 0.7
v 0.2 -0.3 0.6
v 0.2 -0.3 0.4
v 0.2 -0.3 0.3
v 0.2 -0.3 -0.3
v 0.2 -0.3 -0.4
v 0.2 -0.3 -0.6
v 0.2 -0.3 -0.7
v 0.2 -0.3 -1
v 0.2 -0.3 -1.1
v 0.2 -0.2 0.5
v 0.2 -0.2 0.4
v 0.2 -0.2 -0.4
v 0.2 -0.2 -0.5
v 0.2 0.2 0.5
v 0.2 0.2 0.4
v 0.2 0.2 -0.4
v 0.2 0.2 -0.5
v 0.2 0.3 1.1
v 0.2 0.3 1
v 0.2 0.3 0.7
v 0.2 0.3 0.6
v 0.2 0.3 0.4
v 0.2 0.3 0.3
v 0.2 0.3 -0.3
v 0.2 0.3 -0.4
v 0.2 0.3 -0.6
v 0.2 0.3 -0.7
v 0.2 0.3 -1
v 0.2 0.3 -1.1
v 0.2 0.4 0.6
v 0.2 0.4 0.5
v 0.2 0.4 0.3
v 0.2 0.4 0.2
v 0.2 0.4 -0.2
v 0.2 0.4 -0.3
v 0.2 0.4 -0.5
v 0.2 0.4 -0.6
v 0.2 0.5 0.5
v 0.2 0.5 0.4
v 0.2 0.5 0.2
v 0.2 0.5 -0.2
v 0.2 0.5 -0.4
v 0.2 0.5 -0.5
v 0.2 0.6 1
v 0.2 0.6 0.9
v 0.2 0.6 0.4
v 0.2 0.6 0.3
v 0.2 0.6 -0.3
v 0.2 0.6 -0.4
v 0.2 0.6 -0.9
v 0.2 0.6 -1
v 0.2 0.7 0.9
v 0.2 0.7 0.8
v 0.2 0.7 0.3
v 0.2 0.7 -0.3
v 0.2 0.7 -0.8
v 0.2 0.7 -0.9
v 0.2 0.8 0.8
v 0.2 0.8 0.7
v 0.2 0.8 -0.7
v 0.2 0.8 -0.8
v 0.2 0.9 0.7
v 0.2 0.9 0.6
v 0.2 0.9 -0.6
v 0.2 0.9 -0.7
v 0.2 1 0.6
v 0.2 1 0.3
v 0.2 1 -0.3
v 0.2 1 -0.6
v 0.2 1.1 0.3
v 0.2 1.1 -0.3
v 0.3 -0.5 0.2
v 0.3 -0.5 -0.2
v 0.3 -0.4 0.3
v 0.3 -0.4 0.2
v 0.3 -0.4 -0.2
v 0.3 -0.4 -0.3
v 0.3 -0.3 0.4
v 0.3 -0.3 0.3
v 0.3 -0.3 -0.3
v 0.3 -0.3 -0.4
v 0.3 -0.2 0.5
v 0.3 -0.2 0.4
v 0.3 -0.2 -0.4
v 0.3 -0.2 -0.5
v 0.3 -0.1 0.1
v 0.3 -0.1 -0.1
v 0.3 0.1 0.1
v 0.3 0.1 -0.1
v 0.3 0.2 0.5
v 0.3 0.2 0.4
v 0.3 0.2 -0.4
v 0.3 0.2 -0.5
v 0.3 0.3 0.4
v 0.3 0.3 0.3
v 0.3 0.3 -0.3
v 0.3 0.3 -0.4
v 0.3 0.4 0.3
v 0.3 0.4 0.2
v 0.3 0.4 -0.2
v 0.3 0.4 -0.3
v 0.3 0.5 0.2
v 0.3 0.5 -0.2
v 0.4 -0.1 0.1
v 0.4 -0.1 -0.1
v 0.4 0.1 0.1
v 0.4 0.1 -0.1
v -0.3 -0.3 1.1
v -0.3 0.3 1.1
v 0.2 -0.3 1.1
v 0.2 0.3 1.1
v -0.3 -0.6 1
v -0.3 -0.3 1
v -0.3 0.3 1
v -0.3 0.6 1
v 0.2 -0.6 1
v 0.2 -0.3 1
v 0.2 0.3 1
v 0.2 0.6 1
v -0.3 -0.7 0.9
v -0.3 -0.6 0.9
v -0.3 0.6 0.9
v -0.3 0.7 0.9
v 0.2 -0.7 0.9
v 0.2 -0.6 0.9
v 0.2 0.6 0.9
v 0.2 0.7 0.9
v -0.3 -0.8 0.8
v -0.3 -0.7 0.8
v -0.3 0.7 0.8
v -0.3 0.8 0.8
v 0.2 -0.8 0.8
v 0.2 -0.7 0.8
v 0.2 0.7 0.8
v 0.2 0.8 0.8
v -0.3 -0.9 0.7
v -0.3 -0.8 0.7
v -0.3 0.8 0.7
v -0.3 0.9 0.7
v 0.2 -0.9 0.7
v 0.2 -0.8 0.7
v 0.2 0.8 0.7
v 0.2 0.9 0.7
v -0.3 -1 0.6
v -0.3 -0.9 0.6
v -0.3 0.9 0.6
v -0.3 1 0.6
v 0.2 -1 0.6
v 0.2 -0.9 0.6
v 0.2 0.9 0.6
v 0.2 1 0.6
v 0.2 -0.2 0.5
v 0.2 0.2 0.5
v 0.3 -0.2 0.5
v 0.3 0.2 0.5
v 0.2 -0.3 0.4
v 0.2 -0.2 0.4
v 0.2 0.2 0.4
v 0.2 0.3 0.4
v 0.3 -0.3 0.4
v 0.3 -0.2 0.4
v 0.3 0.2 0.4
v 0.3 0.3 0.4
v -0.3 -1.1 0.3
v -0.3 -1 0.3
v -0.3 1 0.3
v -0.3 1.1 0.3
v 0.2 -1.1 0.3
v 0.2 -1 0.3
v 0.2 -0.4 0.3
v 0.2 -0.3 0.3
v 0.2 0.3 0.3
v 0.2 0.4 0.3
v 0.2 1 0.3
v 0.2 1.1 0.3
v 0.3 -0.4 0.3
v 0.3 -0.3 0.3
v 0.3 0.3 0.3
v 0.3 0.4 0.3
v 0.2 -0.5 0.2
v 0.2 -0.4 0.2
v 0.2 0.4 0.2
v 0.2 0.5 0.2
v 0.3 -0.5 0.2
v 0.3 -0.4 0.2
v 0.3 0.4 0.2
v 0.3 0.5 0.2
v 0.3 -0.1 0.1
v 0.3 0.1 0.1
v 0.4 -0.1 0.1
v 0.4 0.1 0.1
v 0.3 -0.1 -0.1
v 0.3 0.1 -0.1
v 0.4 -0.1 -0.1
v 0.4 0.1 -0.1
v 0.2 -0.5 -0.2
v 0.2 -0.4 -0.2
v 0.2 0.4 -0.2
v 0.2 0.5 -0.2
v 0.3 -0.5 -0.2
v 0.3 -0.4 -0.2
v 0.3 0.4 -0.2
v 0.3 0.5 -0.2
v -0.3 -1.1 -0.3
v -0.3 -1 -0.3
v -0.3 1 -0.3
v -0.3 1.1 -0.3
v 0.2 -1.1 -0.3
v 0.2 -1 -0.3
v 0.2 -0.4 -0.3
v 0.2 -0.3 -0.3
v 0.2 0.3 -0.3
v 0.2 0.4 -0.3
v 0.2 1 -0.3
v 0.2 1.1 -0.3
v 0.3 -0.4 -0.3
v 0.3 -0.3 -0.3
v 0.3 0.3 -0.3
v 0.3 0.4 -0.3
v 0.2 -0.3 -0.4
v 0.2 -0.2 -0.4
v 0.2 0.2 -0.4
v 0.2 0.3 -0.4
v 0.3 -0.3 -0.4
v 0.3 -0.2 -0.4
v 0.3 0.2 -0.4
v 0.3 0.3 -0.4
v 0.2 -0.2 -0.5
v 0.2 0.2 -0.5
v 0.3 -0.2 -0.5
v 0.3 0.2 -0.5
v -0.3 -1 -0.6
v -0.3 -0.9 -0.6
v -0.3 0.9 -0.6
v -0.3 1 -0.6
v 0.2 -1 -0.6
v 0.2 -0.9 -0.6
v 0.2 0.9 -0.6
v 0.2 1 -0.6
v -0.3 -0.9 -0.7
v -0.3 -0.8 -0.7
v -0.3 0.8 -0.7
v -0.3 0.9 -0.7
v 0.2 -0.9 -0.7
v 0.2 -0.8 -0.7
v 0.2 0.8 -0.7
v 0.2 0.9 -0.7
v -0.3 -0.8 -0.8
v -0.3 -0.7 -0.8
v -0.3 0.7 -0.8
v -0.3 0.8 -0.8
v 0.2 -0.8 -0.8
v 0.2 -0.7 -0.8
v 0.2 0.7 -0.8
v 0.2 0.8 -0.8
v -0.3 -0.7 -0.9
v -0.3 -0.6 -0.9
v -0.3 0.6 -0.9
v -0.3 0.7 -0.9
v 0.2 -0.7 -0.9
v 0.2 -0.6 -0.9
v 0.2 0.6 -0.9
v 0.2 0.7 -0.9
v -0.3 -0.6 -1
v -0.3 -0.3 -1
v -0.3 0.3 -1
v -0.3 0.6 -1
v 0.2 -0.6 -1
v 0.2 -0.3 -1
v 0.2 0.3 -1
v 0.2 0.6 -1
v -0.3 -0.3 -1.1
v -0.3 0.3 -1.1
v 0.2 -0.3 -1.1
v 0.2 0.3 -1.1
v -0.3 -1.1 0.3
v 0.2 -1.1 0.3
v -0.3 -1.1 -0.3
v 0.2 -1.1 -0.3
v -0.3 -1 0.6
v 0.2 -1 0.6
v -0.3 -1 0.3
v 0.2 -1 0.3
v -0.3 -1 -0.3
v 0.2 -1 -0.3
v -0.3 -1 -0.6
v 0.2 -1 -0.6
v -0.3 -0.9 0.7
v 0.2 -0.9 0.7
v -0.3 -0.9 0.6
v 0.2 -0.9 0.6
v -0.3 -0.9 -0.6
v 0.2 -0.9 -0.6
v -0.3 -0.9 -0.7
v 0.2 -0.9 -0.7
v -0.3 -0.8 0.8
v 0.2 -0.8 0.8
v -0.3 -0.8 0.7
v 0.2 -0.8 0.7
v -0.3 -0.8 -0.7
v 0.2 -0.8 -0.7
v -0.3 -0.8 -0.8
v 0.2 -0.8 -0.8
v -0.3 -0.7 0.9
v 0.2 -0.7 0.9
v -0.3 -0.7 0.8
v 0.2 -0.7 0.8
v -0.3 -0.7 -0.8
v 0.2 -0.7 -0.8
v -0.3 -0.7 -0.9
v 0.2 -0.7 -0.9
v -0.3 -0.6 1
v 0.2 -0.6 1
v -0.3 -0.6 0.9
v 0.2 -0.6 0.9
v -0.3 -0.6 -0.9
v 0.2 -0.6 -0.9
v -0.3 -0.6 -1
v 0.2 -0.6 -1
v 0.2 -0.5 0.2
v 0.3 -0.5 0.2
v 0.2 -0.5 -0.2
v 0.3 -0.5 -0.2
v 0.2 -0.4 0.3
v 0.3 -0.4 0.3
v 0.2 -0.4 0.2
v 0.3 -0.4 0.2
v 0.2 -0.4 -0.2
v 0.3 -0.4 -0.2
v 0.2 -0.4 -0.3
v 0.3 -0.4 -0.3
v -0.3 -0.3 1.1
v 0.2 -0.3 1.1
v -0.3 -0.3 1
v 0.2 -0.3 1
v 0.2 -0.3 0.4
v 0.3 -0.3 0.4
v 0.2 -0.3 0.3
v 0.3 -0.3 0.3
v 0.2 -0.3 -0.3
v 0.3 -0.3 -0.3
v 0.2 -0.3 -0.4
v 0.3 -0.3 -0.4
v -0.3 -0.3 -1
v 0.2 -0.3 -1
v -0.3 -0.3 -1.1
v 0.2 -0.3 -1.1
v 0.2 -0.2 0.5
v 0.3 -0.2 0.5
v 0.2 -0.2 0.4
v 0.3 -0.2 0.4
v 0.2 -0.2 -0.4
v 0.3 -0.2 -0.4
v 0.2 -0.2 -0.5
v 0.3 -0.2 -0.5
v 0.3 -0.1 0.1
v 0.4 -0.1 0.1
v 0.3 -0.1 -0.1
v 0.4 -0.1 -0.1
v 0.3 0.1 0.1
v 0.4 0.1 0.1
v 0.3 0.1 -0.1
v 0.4 0.1 -0.1
v 0.2 0.2 0.5
v 0.3 0.2 0.5
v 0.2 0.2 0.4
v 0.3 0.2 0.4
v 0.2 0.2 -0.4
v 0.3 0.2 -0.4
v 0.2 0.2 -0.5
v 0.3 0.2 -0.5
v -0.3 0.3 1.1
v 0.2 0.3 1.1
v -0.3 0.3 1
v 0.2 0.3 1
v 0.2 0.3 0.4
v 0.3 0.3 0.4
v 0.2 0.3 0.3
v 0.3 0.3 0.3
v 0.2 0.3 -0.3
v 0.3 0.3 -0.3
v 0.2 0.3 -0.4
v 0.3 0.3 -0.4
v -0.3 0.3 -1
v 0.2 0.3 -1
v -0.3 0.3 -1.1
v 0.2 0.3 -1.1
v 0.2 0.4 0.3
v 0.3 0.4 0.3
v 0.2 0.4 0.2
v 0.3 0.4 0.2
v 0.2 0.4 -0.2
v 0.3 0.4 -0.2
v 0.2 0.4 -0.3
v 0.3 0.4 -0.3
v 0.2 0.5 0.2
v 0.3 0.5 0.2
v 0.2 0.5 -0.2
v 0.3 0.5 -0.2
v -0.3 0.6 1
v 0.2 0.6 1
v -0.3 0.6 0.9
v 0.2 0.6 0.9
v -0.3 0.6 -0.9
v 0.2 0.6 -0.9
v -0.3 0.6 -1
v 0.2 0.6 -1
v -0.3 0.7 0.9
v 0.2 0.7 0.9
v -0.3 0.7 0.8
v 0.2 0.7 0.8
v -0.3 0.7 -0.8
v 0.2 0.7 -0.8
v -0.3 0.7 -0.9
v 0.2 0.7 -0.9
v -0.3 0.8 0.8
v 0.2 0.8 0.8
v -0.3 0.8 0.7
v 0.2 0.8 0.7
v -0.3 0.8 -0.7
v 0.2 0.8 -0.7
v -0.3 0.8 -0.8
v 0.2 0.8 -0.8
v -0.3 0.9 0.7
v 0.2 0.9 0.7
v -0.3 0.9 0.6
v 0.2 0.9 0.6
v -0.3 0.9 -0.6
v 0.2 0.9 -0.6
v -0.3 0.9 -0.7
v 0.2 0.9 -0.7
v -0.3 1 0.6
v 0.2 1 0.6
v -0.3 1 0.3
v 0.2 1 0.3
v -0.3 1 -0.3
v 0.2 1 -0.3
v -0.3 1 -0.6
v 0.2 1 -0.6
v -0.3 1.1 0.3
v 0.2 1.1 0.3
v -0.3 1.1 -0.3
v 0.2 1.1 -0.3

# faces
f 4/2/1 2/2/1 1/2/1
f 5/2/1 2/2/1 4/2/1
f 8/2/1 4/2/1 3/2/1
f 8/2/1 6/2/1 5/2/1
f 8/2/1 5/2/1 4/2/1
f 9/2/1 6/2/1 8/2/1
f 12/2/1 8/2/1 7/2/1
f 12/2/1 10/2/1 9/2/1
f 12/2/1 9/2/1 8/2/1
f 13/2/1 10/2/1 12/2/1
f 16/2/1 12/2/1 11/2/1
f 16/2/1 14/2/1 13/2/1
f 16/2/1 13/2/1 12/2/1
f 17/2/1 14/2/1 16/2/1
f 18/2/1 14/2/1 17/2/1
f 19/2/1 14/2/1 18/2/1
f 22/2/1 16/2/1 15/2/1
f 22/2/1 17/2/1 16/2/1
f 23/2/1 17/2/1 22/2/1
f 24/1/1 18/1/1 17/1/1
f 24/2/1 17/2/1 23/2/1
f 25/2/1 20/2/1 19/2/1
f 25/1/1 18/1/1 24/1/1
f 25/2/1 19/2/1 18/2/1
f 26/2/1 20/2/1 25/2/1
f 27/2/1 20/2/1 26/2/1
f 29/2/1 22/2/1 21/2/1
f 29/2/1 23/2/1 22/2/1
f 30/1/1 24/1/1 23/1/1
f 30/2/1 23/2/1 29/2/1
f 30/1/1 25/1/1 24/1/1
f 30/1/1 26/1/1 25/1/1
f 31/2/1 28/2/1 27/2/1
f 31/1/1 26/1/1 30/1/1
f 31/2/1 27/2/1 26/2/1
f 32/2/1 28/2/1 31/2/1
f 33/2/1 29/2/1 21/2/1
f 34/1/1 30/1/1 29/1/1
f 34/2/1 29/2/1 33/2/1
f 34/1/1 31/1/1 30/1/1
f 34/1/1 32/1/1 31/1/1
f 35/2/1 28/2/1 32/2/1
f 35/1/1 32/1/1 34/1/1
f 36/2/1 28/2/1 35/2/1
f 38/2/1 33/2/1 21/2/1
f 39/2/1 33/2/1 38/2/1
f 40/1/1 34/1/1 33/1/1
f 40/2/1 33/2/1 39/2/1
f 40/1/1 35/1/1 34/1/1
f 40/1/1 36/1/1 35/1/1
f 41/2/1 28/2/1 36/2/1
f 41/1/1 36/1/1 40/1/1
f 42/2/1 28/2/1 41/2/1
f 43/2/1 28/2/1 42/2/1
f 45/2/1 39/2/1 38/2/1
f 45/2/1 38/2/1 37/2/1
f 46/2/1 39/2/1 45/2/1
f 47/1/1 40/1/1 39/1/1
f 47/2/1 39/2/1 46/2/1
f 47/1/1 41/1/1 40/1/1
f 47/1/1 42/1/1 41/1/1
f 48/1/1 42/1/1 47/1/1
f 49/1/1 42/1/1 48/1/1
f 50/2/1 44/2/1 43/2/1
f 50/1/1 42/1/1 49/1/1
f 50/2/1 43/2/1 42/2/1
f 51/2/1 44/2/1 50/2/1
f 52/2/1 44/2/1 51/2/1
f 53/1/1 49/1/1 48/1/1
f 53/2/1 48/2/1 47/2/1
f 53/2/1 47/2/1 46/2/1
f 54/1/1 49/1/1 53/1/1
f 55/1/1 49/1/1 54/1/1
f 56/2/1 51/2/1 50/2/1
f 56/1/1 49/1/1 55/1/1
f 56/2/1 50/2/1 49/2/1
f 57/1/1 55/1/1 54/1/1
f 57/2/1 54/2/1 53/2/1
f 58/1/1 55/1/1 57/1/1
f 59/1/1 55/1/1 58/1/1
f 60/2/1 56/2/1 55/2/1
f 60/1/1 55/1/1 59/1/1
f 61/2/1 53/2/1 46/2/1
f 61/2/1 57/2/1 53/2/1
f 61/2/1 58/2/1 57/2/1
f 62/2/1 58/2/1 61/2/1
f 63/1/1 59/1/1 58/1/1
f 63/2/1 58/2/1 62/2/1
f 64/1/1 59/1/1 63/1/1
f 65/1/1 59/1/1 64/1/1
f 66/2/1 60/2/1 59/2/1
f 66/1/1 59/1/1 65/1/1
f 67/2/1 51/2/1 56/2/1
f 67/2/1 60/2/1 66/2/1
f 67/2/1 56/2/1 60/2/1
f 68/2/1 51/2/1 67/2/1
f 69/2/1 64/2/1 63/2/1
f 69/2/1 63/2/1 62/2/1
f 70/2/1 64/2/1 69/2/1
f 71/1/1 65/1/1 64/1/1
f 71/2/1 64/2/1 70/2/1
f 72/2/1 66/2/1 65/2/1
f 72/1/1 65/1/1 71/1/1
f 72/2/1 67/2/1 66/2/1
f 73/2/1 67/2/1 72/2/1
f 74/2/1 67/2/1 73/2/1
f 75/2/1 71/2/1 70/2/1
f 75/2/1 73/2/1 72/2/1
f 75/2/1 72/2/1 71/2/1
f 76/2/1 73/2/1 75/2/1
f 77/2/1 73/2/1 76/2/1
f 78/2/1 73/2/1 77/2/1
f 79/2/1 77/2/1 76/2/1
f 80/2/1 77/2/1 79/2/1
f 81/2/1 77/2/1 80/2/1
f 82/2/1 77/2/1 81/2/1
f 83/2/1 81/2/1 80/2/1
f 84/2/1 81/2/1 83/2/1
f 85/2/1 81/2/1 84/2/1
f 86/2/1 81/2/1 85/2/1
f 87/2/1 85/2/1 84/2/1
f 88/2/1 85/2/1 87/2/1
f 89/2/2 90/2/2 92/2/2
f 92/2/2 90/2/2 93/2/2
f 91/2/2 92/2/2 96/2/2
f 93/2/2 94/2/2 96/2/2
f 92/2/2 93/2/2 96/2/2
f 96/2/2 94/2/2 97/2/2
f 95/2/2 96/2/2 100/2/2
f 97/2/2 98/2/2 100/2/2
f 96/2/2 97/2/2 100/2/2
f 100/2/2 98/2/2 101/2/2
f 99/2/2 100/2/2 104/2/2
f 101/2/2 102/2/2 104/2/2
f 100/2/2 101/2/2 104/2/2
f 104/2/2 102/2/2 105/2/2
f 105/2/2 102/2/2 106/2/2
f 106/2/2 102/2/2 107/2/2
f 103/2/2 104/2/2 110/2/2
f 104/2/2 105/2/2 110/2/2
f 110/2/2 105/2/2 111/2/2
f 105/1/2 106/1/2 112/1/2
f 111/2/2 105/2/2 112/2/2
f 107/2/2 108/2/2 113/2/2
f 112/1/2 106/1/2 113/1/2
f 106/2/2 107/2/2 113/2/2
f 113/2/2 108/2/2 114/2/2
f 114/2/2 108/2/2 115/2/2
f 109/2/2 110/2/2 117/2/2
f 110/2/2 111/2/2 117/2/2
f 111/1/2 112/1/2 118/1/2
f 117/2/2 111/2/2 118/2/2
f 112/1/2 113/1/2 118/1/2
f 113/1/2 114/1/2 118/1/2
f 118/1/2 114/1/2 119/1/2
f 119/1/2 114/1/2 120/1/2
f 115/2/2 116/2/2 121/2/2
f 120/1/2 114/1/2 121/1/2
f 114/2/2 115/2/2 121/2/2
f 121/2/2 116/2/2 122/2/2
f 109/2/2 117/2/2 123/2/2
f 118/1/2 119/1/2 124/1/2
f 123/2/2 117/2/2 124/2/2
f 117/1/2 118/1/2 124/1/2
f 124/1/2 119/1/2 125/1/2
f 125/1/2 119/1/2 126/1/2
f 121/1/2 122/1/2 127/1/2
f 120/1/2 121/1/2 127/1/2
f 127/1/2 122/1/2 128/1/2
f 122/2/2 116/2/2 129/2/2
f 128/1/2 122/1/2 129/1/2
f 129/2/2 116/2/2 130/2/2
f 109/2/2 123/2/2 132/2/2
f 132/2/2 123/2/2 133/2/2
f 124/1/2 125/1/2 134/1/2
f 133/2/2 123/2/2 134/2/2
f 123/1/2 124/1/2 134/1/2
f 134/1/2 125/1/2 135/1/2
f 135/1/2 125/1/2 136/1/2
f 129/1/2 130/1/2 137/1/2
f 128/1/2 129/1/2 137/1/2
f 137/1/2 130/1/2 138/1/2
f 130/2/2 116/2/2 139/2/2
f 138/1/2 130/1/2 139/1/2
f 139/2/2 116/2/2 140/2/2
f 140/2/2 116/2/2 141/2/2
f 134/1/2 135/1/2 143/1/2
f 133/1/2 134/1/2 143/1/2
f 143/1/2 135/1/2 144/1/2
f 139/1/2 140/1/2 145/1/2
f 138/1/2 139/1/2 145/1/2
f 145/1/2 140/1/2 146/1/2
f 133/1/2 143/1/2 147/1/2
f 146/1/2 140/1/2 150/1/2
f 132/2/2 133/2/2 151/2/2
f 131/2/2 132/2/2 151/2/2
f 151/2/2 133/2/2 152/2/2
f 147/1/2 148/1/2 153/1/2
f 152/2/2 133/2/2 153/2/2
f 133/1/2 147/1/2 153/1/2
f 153/1/2 148/1/2 154/1/2
f 154/1/2 148/1/2 155/1/2
f 149/1/2 150/1/2 158/1/2
f 150/1/2 140/1/2 159/1/2
f 158/1/2 150/1/2 159/1/2
f 141/2/2 142/2/2 160/2/2
f 159/1/2 140/1/2 160/1/2
f 140/2/2 141/2/2 160/2/2
f 160/2/2 142/2/2 161/2/2
f 161/2/2 142/2/2 162/2/2
f 155/1/2 156/1/2 163/1/2
f 152/2/2 153/2/2 163/2/2
f 153/2/2 154/2/2 163/2/2
f 154/1/2 155/1/2 163/1/2
f 163/1/2 156/1/2 164/1/2
f 164/1/2 156/1/2 165/1/2
f 158/1/2 159/1/2 168/1/2
f 157/1/2 158/1/2 168/1/2
f 168/1/2 159/1/2 169/1/2
f 160/2/2 161/2/2 170/2/2
f 169/1/2 159/1/2 170/1/2
f 159/2/2 160/2/2 170/2/2
f 165/1/2 166/1/2 171/1/2
f 164/1/2 165/1/2 171/1/2
f 163/2/2 164/2/2 171/2/2
f 171/1/2 166/1/2 172/1/2
f 172/1/2 166/1/2 173/1/2
f 168/1/2 169/1/2 174/1/2
f 167/1/2 168/1/2 174/1/2
f 174/1/2 169/1/2 175/1/2
f 169/2/2 170/2/2 176/2/2
f 175/1/2 169/1/2 176/1/2
f 171/2/2 172/2/2 177/2/2
f 152/2/2 163/2/2 177/2/2
f 163/2/2 171/2/2 177/2/2
f 177/2/2 172/2/2 178/2/2
f 172/1/2 173/1/2 179/1/2
f 178/2/2 172/2/2 179/2/2
f 174/1/2 175/1/2 179/1/2
f 173/1/2 174/1/2 179/1/2
f 179/1/2 175/1/2 180/1/2
f 180/1/2 175/1/2 181/1/2
f 175/2/2 176/2/2 182/2/2
f 181/1/2 175/1/2 182/1/2
f 170/2/2 161/2/2 183/2/2
f 182/2/2 176/2/2 183/2/2
f 176/2/2 170/2/2 183/2/2
f 183/2/2 161/2/2 184/2/2
f 179/2/2 180/2/2 185/2/2
f 178/2/2 179/2/2 185/2/2
f 185/2/2 180/2/2 186/2/2
f 180/1/2 181/1/2 187/1/2
f 186/2/2 180/2/2 187/2/2
f 181/2/2 182/2/2 188/2/2
f 187/1/2 181/1/2 188/1/2
f 182/2/2 183/2/2 188/2/2
f 188/2/2 183/2/2 189/2/2
f 189/2/2 183/2/2 190/2/2
f 186/2/2 187/2/2 191/2/2
f 188/2/2 189/2/2 191/2/2
f 187/2/2 188/2/2 191/2/2
f 191/2/2 189/2/2 192/2/2
f 192/2/2 189/2/2 193/2/2
f 193/2/2 189/2/2 194/2/2
f 192/2/2 193/2/2 195/2/2
f 195/2/2 193/2/2 196/2/2
f 196/2/2 193/2/2 197/2/2
f 197/2/2 193/2/2 198/2/2
f 196/2/2 197/2/2 199/2/2
f 199/2/2 197/2/2 200/2/2
f 200/2/2 197/2/2 201/2/2
f 201/2/2 197/2/2 202/2/2
f 200/2/2 201/2/2 203/2/2
f 203/2/2 201/2/2 204/2/2
f 205/1/2 206/1/2 208/1/2
f 208/1/2 206/1/2 209/1/2
f 207/1/2 208/1/2 212/1/2
f 209/1/2 210/1/2 212/1/2
f 208/1/2 209/1/2 212/1/2
f 212/1/2 210/1/2 213/1/2
f 211/1/2 212/1/2 216/1/2
f 213/1/2 214/1/2 216/1/2
f 212/1/2 213/1/2 216/1/2
f 216/1/2 214/1/2 217/1/2
f 215/1/2 216/1/2 219/1/2
f 217/1/2 218/1/2 219/1/2
f 216/1/2 217/1/2 219/1/2
f 219/1/2 218/1/2 220/1/2
f 215/1/2 219/1/2 221/1/2
f 220/1/2 218/1/2 222/1/2
f 215/1/2 221/1/2 223/1/2
f 221/1/2 222/1/2 223/1/2
f 223/1/2 222/1/2 224/1/2
f 222/1/2 218/1/2 225/1/2
f 224/1/2 222/1/2 225/1/2
f 225/1/2 218/1/2 226/1/2
f 224/1/2 225/1/2 227/1/2
f 227/1/2 225/1/2 228/1/2
f 228/1/2 225/1/2 229/1/2
f 229/1/2 225/1/2 230/1/2
f 228/1/2 229/1/2 231/1/2
f 231/1/2 229/1/2 232/1/2
f 232/1/2 229/1/2 233/1/2
f 233/1/2 229/1/2 234/1/2
f 232/1/2 233/1/2 235/1/2
f 235/1/2 233/1/2 236/1/2
f 237/1/2 238/1/2 239/1/2
f 239/1/2 238/1/2 240/1/2
f 243/2/3 242/2/3 241/2/3
f 244/2/3 242/2/3 243/2/3
f 249/2/3 246/2/3 245/2/3
f 250/2/3 246/2/3 249/2/3
f 251/2/3 248/2/3 247/2/3
f 252/2/3 248/2/3 251/2/3
f 257/2/3 254/2/3 253/2/3
f 258/2/3 254/2/3 257/2/3
f 259/2/3 256/2/3 255/2/3
f 260/2/3 256/2/3 259/2/3
f 265/2/3 262/2/3 261/2/3
f 266/2/3 262/2/3 265/2/3
f 267/2/3 264/2/3 263/2/3
f 268/2/3 264/2/3 267/2/3
f 273/2/3 270/2/3 269/2/3
f 274/2/3 270/2/3 273/2/3
f 275/2/3 272/2/3 271/2/3
f 276/2/3 272/2/3 275/2/3
f 281/2/3 278/2/3 277/2/3
f 282/2/3 278/2/3 281/2/3
f 283/2/3 280/2/3 279/2/3
f 284/2/3 280/2/3 283/2/3
f 287/1/3 286/1/3 285/1/3
f 288/1/3 286/1/3 287/1/3
f 293/1/3 290/1/3 289/1/3
f 294/1/3 290/1/3 293/1/3
f 295/1/3 292/1/3 291/1/3
f 296/1/3 292/1/3 295/1/3
f 301/2/3 298/2/3 297/2/3
f 302/2/3 298/2/3 301/2/3
f 307/2/3 300/2/3 299/2/3
f 308/2/3 300/2/3 307/2/3
f 309/1/3 304/1/3 303/1/3
f 310/1/3 304/1/3 309/1/3
f 311/1/3 306/1/3 305/1/3
f 312/1/3 306/1/3 311/1/3
f 317/1/3 314/1/3 313/1/3
f 318/1/3 314/1/3 317/1/3
f 319/1/3 316/1/3 315/1/3
f 320/1/3 316/1/3 319/1/3
f 323/1/3 322/1/3 321/1/3
f 324/1/3 322/1/3 323/1/3
f 325/1/4 326/1/4 327/1/4
f 327/1/4 326/1/4 328/1/4
f 329/1/4 330/1/4 333/1/4
f 333/1/4 330/1/4 334/1/4
f 331/1/4 332/1/4 335/1/4
f 335/1/4 332/1/4 336/1/4
f 337/2/4 338/2/4 341/2/4
f 341/2/4 338/2/4 342/2/4
f 339/2/4 340/2/4 347/2/4
f 347/2/4 340/2/4 348/2/4
f 343/1/4 344/1/4 349/1/4
f 349/1/4 344/1/4 350/1/4
f 345/1/4 346/1/4 351/1/4
f 351/1/4 346/1/4 352/1/4
f 353/1/4 354/1/4 357/1/4
f 357/1/4 354/1/4 358/1/4
f 355/1/4 356/1/4 359/1/4
f 359/1/4 356/1/4 360/1/4
f 361/1/4 362/1/4 363/1/4
f 363/1/4 362/1/4 364/1/4
f 365/2/4 366/2/4 369/2/4
f 369/2/4 366/2/4 370/2/4
f 367/2/4 368/2/4 371/2/4
f 371/2/4 368/2/4 372/2/4
f 373/2/4 374/2/4 377/2/4
f 377/2/4 374/2/4 378/2/4
f 375/2/4 376/2/4 379/2/4
f 379/2/4 376/2/4 380/2/4
f 381/2/4 382/2/4 385/2/4
f 385/2/4 382/2/4 386/2/4
f 383/2/4 384/2/4 387/2/4
f 387/2/4 384/2/4 388/2/4
f 389/2/4 390/2/4 393/2/4
f 393/2/4 390/2/4 394/2/4
f 391/2/4 392/2/4 395/2/4
f 395/2/4 392/2/4 396/2/4
f 397/2/4 398/2/4 401/2/4
f 401/2/4 398/2/4 402/2/4
f 399/2/4 400/2/4 403/2/4
f 403/2/4 400/2/4 404/2/4
f 405/2/4 406/2/4 407/2/4
f 407/2/4 406/2/4 408/2/4
f 411/2/5 410/2/5 409/2/5
f 412/2/5 410/2/5 411/2/5
f 415/2/5 414/2/5 413/2/5
f 416/2/5 414/2/5 415/2/5
f 419/2/5 418/2/5 417/2/5
f 420/2/5 418/2/5 419/2/5
f 423/2/5 422/2/5 421/2/5
f 424/2/5 422/2/5 423/2/5
f 427/2/5 426/2/5 425/2/5
f 428/2/5 426/2/5 427/2/5
f 431/2/5 430/2/5 429/2/5
f 432/2/5 430/2/5 431/2/5
f 435/2/5 434/2/5 433/2/5
f 436/2/5 434/2/5 435/2/5
f 439/2/5 438/2/5 437/2/5
f 440/2/5 438/2/5 439/2/5
f 443/2/5 442/2/5 441/2/5
f 444/2/5 442/2/5 443/2/5
f 447/2/5 446/2/5 445/2/5
f 448/2/5 446/2/5 447/2/5
f 451/2/5 450/2/5 449/2/5
f 452/2/5 450/2/5 451/2/5
f 455/1/5 454/1/5 453/1/5
f 456/1/5 454/1/5 455/1/5
f 459/1/5 458/1/5 457/1/5
f 460/1/5 458/1/5 459/1/5
f 463/1/5 462/1/5 461/1/5
f 464/1/5 462/1/5 463/1/5
f 467/2/5 466/2/5 465/2/5
f 468/2/5 466/2/5 467/2/5
f 471/1/5 470/1/5 469/1/5
f 472/1/5 470/1/5 471/1/5
f 475/1/5 474/1/5 473/1/5
f 476/1/5 474/1/5 475/1/5
f 479/2/5 478/2/5 477/2/5
f 480/2/5 478/2/5 479/2/5
f 483/1/5 482/1/5 481/1/5
f 484/1/5 482/1/5 483/1/5
f 487/1/5 486/1/5 485/1/5
f 488/1/5 486/1/5 487/1/5
f 491/1/5 490/1/5 489/1/5
f 492/1/5 490/1/5 491/1/5
f 493/1/6 494/1/6 495/1/6
f 495/1/6 494/1/6 496/1/6
f 497/1/6 498/1/6 499/1/6
f 499/1/6 498/1/6 500/1/6
f 501/1/6 502/1/6 503/1/6
f 503/1/6 502/1/6 504/1/6
f 505/2/6 506/2/6 507/2/6
f 507/2/6 506/2/6 508/2/6
f 509/1/6 510/1/6 511/1/6
f 511/1/6 510/1/6 512/1/6
f 513/1/6 514/1/6 515/1/6
f 515/1/6 514/1/6 516/1/6
f 517/2/6 518/2/6 519/2/6
f 519/2/6 518/2/6 520/2/6
f 521/1/6 522/1/6 523/1/6
f 523/1/6 522/1/6 524/1/6
f 525/1/6 526/1/6 527/1/6
f 527/1/6 526/1/6 528/1/6
f 529/1/6 530/1/6 531/1/6
f 531/1/6 530/1/6 532/1/6
f 533/2/6 534/2/6 535/2/6
f 535/2/6 534/2/6 536/2/6
f 537/2/6 538/2/6 539/2/6
f 539/2/6 538/2/6 540/2/6
f 541/2/6 542/2/6 543/2/6
f 543/2/6 542/2/6 544/2/6
f 545/2/6 546/2/6 547/2/6
f 547/2/6 546/2/6 548/2/6
f 549/2/6 550/2/6 551/2/6
f 551/2/6 550/2/6 552/2/6
f 553/2/6 554/2/6 555/2/6
f 555/2/6 554/2/6 556/2/6
f 557/2/6 558/2/6 559/2/6
f 559/2/6 558/2/6 560/2/6
f 561/2/6 562/2/6 563/2/6
f 563/2/6 562/2/6 564/2/6
f 565/2/6 566/2/6 567/2/6
f 567/2/6 566/2/6 568/2/6
f 569/2/6 570/2/6 571/2/6
f 571/2/6 570/2/6 572/2/6
f 573/2/6 574/2/6 575/2/6
f 575/2/6 574/2/6 576/2/6
