# MagicaVoxel @ Ephtracy

# group
o 

# material
mtllib zil-130-2.mtl
usemtl palette

# normals
vn 1 0 0
vn -1 0 0
vn 0 0 1
vn 0 0 -1
vn 0 -1 0
vn 0 1 0

# texcoords
vt 0.962891 0.5
vt 0.994141 0.5

# verts
v -1.8 0 4.7
v -1.8 0 4
v -1.8 0.1 4.9
v -1.8 0.1 4.7
v -1.8 0.1 4
v -1.8 0.1 3.8
v -1.8 0.2 5.1
v -1.8 0.2 4.9
v -1.8 0.2 3.8
v -1.8 0.2 3.7
v -1.8 0.3 5.2
v -1.8 0.3 5.1
v -1.8 0.3 3.7
v -1.8 0.3 3.5
v -1.8 0.4 5.3
v -1.8 0.4 5.2
v -1.8 0.4 4.6
v -1.8 0.4 4.1
v -1.8 0.4 3.5
v -1.8 0.4 3.4
v -1.8 0.5 4.8
v -1.8 0.5 4.6
v -1.8 0.5 4.1
v -1.8 0.5 3.9
v -1.8 0.6 5.4
v -1.8 0.6 5.3
v -1.8 0.6 4.9
v -1.8 0.6 4.8
v -1.8 0.6 3.9
v -1.8 0.6 3.8
v -1.8 0.6 3.4
v -1.8 0.6 3.3
v -1.8 0.7 5
v -1.8 0.7 4.9
v -1.8 0.7 3.8
v -1.8 0.7 3.7
v -1.8 0.8 5.5
v -1.8 0.8 5.4
v -1.8 0.8 3.3
v -1.8 0.8 3.2
v -1.8 0.9 5.1
v -1.8 0.9 5
v -1.8 0.9 3.7
v -1.8 0.9 3.6
v -1.8 1.1 4.4
v -1.8 1.1 4.3
v -1.8 1.2 4.4
v -1.8 1.2 4.3
v -1.8 1.4 5.1
v -1.8 1.4 5
v -1.8 1.4 3.7
v -1.8 1.4 3.6
v -1.8 1.5 5.5
v -1.8 1.5 5.4
v -1.8 1.5 3.3
v -1.8 1.5 3.2
v -1.8 1.6 5
v -1.8 1.6 4.9
v -1.8 1.6 3.8
v -1.8 1.6 3.7
v -1.8 1.7 5.4
v -1.8 1.7 5.3
v -1.8 1.7 4.9
v -1.8 1.7 4.8
v -1.8 1.7 3.9
v -1.8 1.7 3.8
v -1.8 1.7 3.4
v -1.8 1.7 3.3
v -1.8 1.8 4.8
v -1.8 1.8 4.6
v -1.8 1.8 4.1
v -1.8 1.8 3.9
v -1.8 1.9 5.3
v -1.8 1.9 5.2
v -1.8 1.9 4.6
v -1.8 1.9 4.1
v -1.8 1.9 3.5
v -1.8 1.9 3.4
v -1.8 2 5.2
v -1.8 2 5.1
v -1.8 2 3.6
v -1.8 2 3.5
v -1.8 2.1 5.1
v -1.8 2.1 4.9
v -1.8 2.1 3.8
v -1.8 2.1 3.6
v -1.8 2.2 4.9
v -1.8 2.2 4.7
v -1.8 2.2 4
v -1.8 2.2 3.8
v -1.8 2.3 4.7
v -1.8 2.3 4
v -2.3 0 4.7
v -2.3 0 4
v -2.3 0.1 4.9
v -2.3 0.1 4.7
v -2.3 0.1 4
v -2.3 0.1 3.8
v -2.3 0.2 5.1
v -2.3 0.2 4.9
v -2.3 0.2 3.8
v -2.3 0.2 3.7
v -2.3 0.3 5.2
v -2.3 0.3 5.1
v -2.3 0.3 3.7
v -2.3 0.3 3.5
v -2.3 0.4 5.3
v -2.3 0.4 5.2
v -2.3 0.4 4.6
v -2.3 0.4 4
v -2.3 0.4 3.5
v -2.3 0.4 3.4
v -2.3 0.5 4.8
v -2.3 0.5 4.6
v -2.3 0.5 4.1
v -2.3 0.5 4
v -2.3 0.5 3.9
v -2.3 0.6 5.4
v -2.3 0.6 5.3
v -2.3 0.6 4.9
v -2.3 0.6 4.8
v -2.3 0.6 4.6
v -2.3 0.6 4.1
v -2.3 0.6 3.9
v -2.3 0.6 3.8
v -2.3 0.6 3.4
v -2.3 0.6 3.3
v -2.3 0.7 5
v -2.3 0.7 4.9
v -2.3 0.7 4.8
v -2.3 0.7 3.9
v -2.3 0.7 3.8
v -2.3 0.7 3.7
v -2.3 0.8 5.5
v -2.3 0.8 5.4
v -2.3 0.8 3.3
v -2.3 0.8 3.2
v -2.3 0.9 5.1
v -2.3 0.9 5
v -2.3 0.9 4.9
v -2.3 0.9 3.8
v -2.3 0.9 3.7
v -2.3 0.9 3.6
v -2.3 1.4 5.1
v -2.3 1.4 5
v -2.3 1.4 4.9
v -2.3 1.4 3.8
v -2.3 1.4 3.7
v -2.3 1.4 3.6
v -2.3 1.5 5.5
v -2.3 1.5 5.4
v -2.3 1.5 3.3
v -2.3 1.5 3.2
v -2.3 1.6 5
v -2.3 1.6 4.9
v -2.3 1.6 4.8
v -2.3 1.6 3.9
v -2.3 1.6 3.8
v -2.3 1.6 3.7
v -2.3 1.7 5.4
v -2.3 1.7 5.3
v -2.3 1.7 4.9
v -2.3 1.7 4.8
v -2.3 1.7 4.6
v -2.3 1.7 4.1
v -2.3 1.7 3.9
v -2.3 1.7 3.8
v -2.3 1.7 3.4
v -2.3 1.7 3.3
v -2.3 1.8 4.8
v -2.3 1.8 4.6
v -2.3 1.8 4.1
v -2.3 1.8 4
v -2.3 1.8 3.9
v -2.3 1.9 5.3
v -2.3 1.9 5.2
v -2.3 1.9 4.6
v -2.3 1.9 4
v -2.3 1.9 3.5
v -2.3 1.9 3.4
v -2.3 2 5.2
v -2.3 2 5.1
v -2.3 2 3.6
v -2.3 2 3.5
v -2.3 2.1 5.1
v -2.3 2.1 4.9
v -2.3 2.1 3.8
v -2.3 2.1 3.6
v -2.3 2.2 4.9
v -2.3 2.2 4.7
v -2.3 2.2 4
v -2.3 2.2 3.8
v -2.3 2.3 4.7
v -2.3 2.3 4
v -2.4 0.5 4.6
v -2.4 0.5 4.1
v -2.4 0.6 4.8
v -2.4 0.6 4.6
v -2.4 0.6 4.1
v -2.4 0.6 3.9
v -2.4 0.7 4.9
v -2.4 0.7 4.8
v -2.4 0.7 3.9
v -2.4 0.7 3.8
v -2.4 0.9 5
v -2.4 0.9 4.9
v -2.4 0.9 3.8
v -2.4 0.9 3.7
v -2.4 1 4.5
v -2.4 1 4.2
v -2.4 1.3 4.5
v -2.4 1.3 4.2
v -2.4 1.4 5
v -2.4 1.4 4.9
v -2.4 1.4 3.8
v -2.4 1.4 3.7
v -2.4 1.6 4.9
v -2.4 1.6 4.8
v -2.4 1.6 3.9
v -2.4 1.6 3.8
v -2.4 1.7 4.8
v -2.4 1.7 4.6
v -2.4 1.7 4.1
v -2.4 1.7 3.9
v -2.4 1.8 4.6
v -2.4 1.8 4.1
v -2.5 1 4.5
v -2.5 1 4.2
v -2.5 1.3 4.5
v -2.5 1.3 4.2
v -1.8 0.8 5.5
v -1.8 1.5 5.5
v -2.3 0.8 5.5
v -2.3 1.5 5.5
v -1.8 0.6 5.4
v -1.8 0.8 5.4
v -1.8 1.5 5.4
v -1.8 1.7 5.4
v -2.3 0.6 5.4
v -2.3 0.8 5.4
v -2.3 1.5 5.4
v -2.3 1.7 5.4
v -1.8 0.4 5.3
v -1.8 0.6 5.3
v -1.8 1.7 5.3
v -1.8 1.9 5.3
v -2.3 0.4 5.3
v -2.3 0.6 5.3
v -2.3 1.7 5.3
v -2.3 1.9 5.3
v -1.8 0.3 5.2
v -1.8 0.4 5.2
v -1.8 1.9 5.2
v -1.8 2 5.2
v -2.3 0.3 5.2
v -2.3 0.4 5.2
v -2.3 1.9 5.2
v -2.3 2 5.2
v -1.8 0.2 5.1
v -1.8 0.3 5.1
v -1.8 2 5.1
v -1.8 2.1 5.1
v -2.3 0.2 5.1
v -2.3 0.3 5.1
v -2.3 2 5.1
v -2.3 2.1 5.1
v -2.3 0.9 5
v -2.3 1.4 5
v -2.4 0.9 5
v -2.4 1.4 5
v -1.8 0.1 4.9
v -1.8 0.2 4.9
v -1.8 2.1 4.9
v -1.8 2.2 4.9
v -2.3 0.1 4.9
v -2.3 0.2 4.9
v -2.3 0.7 4.9
v -2.3 0.9 4.9
v -2.3 1.4 4.9
v -2.3 1.6 4.9
v -2.3 2.1 4.9
v -2.3 2.2 4.9
v -2.4 0.7 4.9
v -2.4 0.9 4.9
v -2.4 1.4 4.9
v -2.4 1.6 4.9
v -2.3 0.6 4.8
v -2.3 0.7 4.8
v -2.3 1.6 4.8
v -2.3 1.7 4.8
v -2.4 0.6 4.8
v -2.4 0.7 4.8
v -2.4 1.6 4.8
v -2.4 1.7 4.8
v -1.8 0 4.7
v -1.8 0.1 4.7
v -1.8 2.2 4.7
v -1.8 2.3 4.7
v -2.3 0 4.7
v -2.3 0.1 4.7
v -2.3 2.2 4.7
v -2.3 2.3 4.7
v -2.3 0.5 4.6
v -2.3 0.6 4.6
v -2.3 1.7 4.6
v -2.3 1.8 4.6
v -2.4 0.5 4.6
v -2.4 0.6 4.6
v -2.4 1.7 4.6
v -2.4 1.8 4.6
v -2.4 1 4.5
v -2.4 1.3 4.5
v -2.5 1 4.5
v -2.5 1.3 4.5
v -2.4 1 4.2
v -2.4 1.3 4.2
v -2.5 1 4.2
v -2.5 1.3 4.2
v -2.3 0.5 4.1
v -2.3 0.6 4.1
v -2.3 1.7 4.1
v -2.3 1.8 4.1
v -2.4 0.5 4.1
v -2.4 0.6 4.1
v -2.4 1.7 4.1
v -2.4 1.8 4.1
v -1.8 0 4
v -1.8 0.1 4
v -1.8 2.2 4
v -1.8 2.3 4
v -2.3 0 4
v -2.3 0.1 4
v -2.3 2.2 4
v -2.3 2.3 4
v -2.3 0.6 3.9
v -2.3 0.7 3.9
v -2.3 1.6 3.9
v -2.3 1.7 3.9
v -2.4 0.6 3.9
v -2.4 0.7 3.9
v -2.4 1.6 3.9
v -2.4 1.7 3.9
v -1.8 0.1 3.8
v -1.8 0.2 3.8
v -1.8 2.1 3.8
v -1.8 2.2 3.8
v -2.3 0.1 3.8
v -2.3 0.2 3.8
v -2.3 0.7 3.8
v -2.3 0.9 3.8
v -2.3 1.4 3.8
v -2.3 1.6 3.8
v -2.3 2.1 3.8
v -2.3 2.2 3.8
v -2.4 0.7 3.8
v -2.4 0.9 3.8
v -2.4 1.4 3.8
v -2.4 1.6 3.8
v -1.8 0.2 3.7
v -1.8 0.3 3.7
v -2.3 0.2 3.7
v -2.3 0.3 3.7
v -2.3 0.9 3.7
v -2.3 1.4 3.7
v -2.4 0.9 3.7
v -2.4 1.4 3.7
v -1.8 2 3.6
v -1.8 2.1 3.6
v -2.3 2 3.6
v -2.3 2.1 3.6
v -1.8 0.3 3.5
v -1.8 0.4 3.5
v -1.8 1.9 3.5
v -1.8 2 3.5
v -2.3 0.3 3.5
v -2.3 0.4 3.5
v -2.3 1.9 3.5
v -2.3 2 3.5
v -1.8 0.4 3.4
v -1.8 0.6 3.4
v -1.8 1.7 3.4
v -1.8 1.9 3.4
v -2.3 0.4 3.4
v -2.3 0.6 3.4
v -2.3 1.7 3.4
v -2.3 1.9 3.4
v -1.8 0.6 3.3
v -1.8 0.8 3.3
v -1.8 1.5 3.3
v -1.8 1.7 3.3
v -2.3 0.6 3.3
v -2.3 0.8 3.3
v -2.3 1.5 3.3
v -2.3 1.7 3.3
v -1.8 0.8 3.2
v -1.8 1.5 3.2
v -2.3 0.8 3.2
v -2.3 1.5 3.2
v -1.8 0 4.7
v -2.3 0 4.7
v -1.8 0 4
v -2.3 0 4
v -1.8 0.1 4.9
v -2.3 0.1 4.9
v -1.8 0.1 4.7
v -2.3 0.1 4.7
v -1.8 0.1 4
v -2.3 0.1 4
v -1.8 0.1 3.8
v -2.3 0.1 3.8
v -1.8 0.2 5.1
v -2.3 0.2 5.1
v -1.8 0.2 4.9
v -2.3 0.2 4.9
v -1.8 0.2 3.8
v -2.3 0.2 3.8
v -1.8 0.2 3.7
v -2.3 0.2 3.7
v -1.8 0.3 5.2
v -2.3 0.3 5.2
v -1.8 0.3 5.1
v -2.3 0.3 5.1
v -1.8 0.3 3.7
v -2.3 0.3 3.7
v -1.8 0.3 3.5
v -2.3 0.3 3.5
v -1.8 0.4 5.3
v -2.3 0.4 5.3
v -1.8 0.4 5.2
v -2.3 0.4 5.2
v -1.8 0.4 3.5
v -2.3 0.4 3.5
v -1.8 0.4 3.4
v -2.3 0.4 3.4
v -2.3 0.5 4.6
v -2.4 0.5 4.6
v -2.3 0.5 4.1
v -2.4 0.5 4.1
v -1.8 0.6 5.4
v -2.3 0.6 5.4
v -1.8 0.6 5.3
v -2.3 0.6 5.3
v -2.3 0.6 4.8
v -2.4 0.6 4.8
v -2.3 0.6 4.6
v -2.4 0.6 4.6
v -2.3 0.6 4.1
v -2.4 0.6 4.1
v -2.3 0.6 3.9
v -2.4 0.6 3.9
v -1.8 0.6 3.4
v -2.3 0.6 3.4
v -1.8 0.6 3.3
v -2.3 0.6 3.3
v -2.3 0.7 4.9
v -2.4 0.7 4.9
v -2.3 0.7 4.8
v -2.4 0.7 4.8
v -2.3 0.7 3.9
v -2.4 0.7 3.9
v -2.3 0.7 3.8
v -2.4 0.7 3.8
v -1.8 0.8 5.5
v -2.3 0.8 5.5
v -1.8 0.8 5.4
v -2.3 0.8 5.4
v -1.8 0.8 3.3
v -2.3 0.8 3.3
v -1.8 0.8 3.2
v -2.3 0.8 3.2
v -2.3 0.9 5
v -2.4 0.9 5
v -2.3 0.9 4.9
v -2.4 0.9 4.9
v -2.3 0.9 3.8
v -2.4 0.9 3.8
v -2.3 0.9 3.7
v -2.4 0.9 3.7
v -2.4 1 4.5
v -2.5 1 4.5
v -2.4 1 4.2
v -2.5 1 4.2
v -2.4 1.3 4.5
v -2.5 1.3 4.5
v -2.4 1.3 4.2
v -2.5 1.3 4.2
v -2.3 1.4 5
v -2.4 1.4 5
v -2.3 1.4 4.9
v -2.4 1.4 4.9
v -2.3 1.4 3.8
v -2.4 1.4 3.8
v -2.3 1.4 3.7
v -2.4 1.4 3.7
v -1.8 1.5 5.5
v -2.3 1.5 5.5
v -1.8 1.5 5.4
v -2.3 1.5 5.4
v -1.8 1.5 3.3
v -2.3 1.5 3.3
v -1.8 1.5 3.2
v -2.3 1.5 3.2
v -2.3 1.6 4.9
v -2.4 1.6 4.9
v -2.3 1.6 4.8
v -2.4 1.6 4.8
v -2.3 1.6 3.9
v -2.4 1.6 3.9
v -2.3 1.6 3.8
v -2.4 1.6 3.8
v -1.8 1.7 5.4
v -2.3 1.7 5.4
v -1.8 1.7 5.3
v -2.3 1.7 5.3
v -2.3 1.7 4.8
v -2.4 1.7 4.8
v -2.3 1.7 4.6
v -2.4 1.7 4.6
v -2.3 1.7 4.1
v -2.4 1.7 4.1
v -2.3 1.7 3.9
v -2.4 1.7 3.9
v -1.8 1.7 3.4
v -2.3 1.7 3.4
v -1.8 1.7 3.3
v -2.3 1.7 3.3
v -2.3 1.8 4.6
v -2.4 1.8 4.6
v -2.3 1.8 4.1
v -2.4 1.8 4.1
v -1.8 1.9 5.3
v -2.3 1.9 5.3
v -1.8 1.9 5.2
v -2.3 1.9 5.2
v -1.8 1.9 3.5
v -2.3 1.9 3.5
v -1.8 1.9 3.4
v -2.3 1.9 3.4
v -1.8 2 5.2
v -2.3 2 5.2
v -1.8 2 5.1
v -2.3 2 5.1
v -1.8 2 3.6
v -2.3 2 3.6
v -1.8 2 3.5
v -2.3 2 3.5
v -1.8 2.1 5.1
v -2.3 2.1 5.1
v -1.8 2.1 4.9
v -2.3 2.1 4.9
v -1.8 2.1 3.8
v -2.3 2.1 3.8
v -1.8 2.1 3.6
v -2.3 2.1 3.6
v -1.8 2.2 4.9
v -2.3 2.2 4.9
v -1.8 2.2 4.7
v -2.3 2.2 4.7
v -1.8 2.2 4
v -2.3 2.2 4
v -1.8 2.2 3.8
v -2.3 2.2 3.8
v -1.8 2.3 4.7
v -2.3 2.3 4.7
v -1.8 2.3 4
v -2.3 2.3 4

# faces
f 1/2/1 2/2/1 4/2/1
f 4/2/1 2/2/1 5/2/1
f 3/2/1 4/2/1 8/2/1
f 5/2/1 6/2/1 8/2/1
f 4/2/1 5/2/1 8/2/1
f 8/2/1 6/2/1 9/2/1
f 7/2/1 8/2/1 12/2/1
f 9/2/1 10/2/1 12/2/1
f 8/2/1 9/2/1 12/2/1
f 12/2/1 10/2/1 13/2/1
f 11/2/1 12/2/1 16/2/1
f 13/2/1 14/2/1 16/2/1
f 12/2/1 13/2/1 16/2/1
f 16/2/1 14/2/1 17/2/1
f 17/2/1 14/2/1 18/2/1
f 18/2/1 14/2/1 19/2/1
f 15/2/1 16/2/1 21/2/1
f 16/2/1 17/2/1 21/2/1
f 17/1/1 18/1/1 22/1/1
f 21/2/1 17/2/1 22/2/1
f 19/2/1 20/2/1 23/2/1
f 22/1/1 18/1/1 23/1/1
f 18/2/1 19/2/1 23/2/1
f 23/2/1 20/2/1 24/2/1
f 15/2/1 21/2/1 26/2/1
f 26/2/1 21/2/1 27/2/1
f 21/1/1 22/1/1 28/1/1
f 27/2/1 21/2/1 28/2/1
f 22/1/1 23/1/1 28/1/1
f 23/1/1 24/1/1 28/1/1
f 24/2/1 20/2/1 29/2/1
f 28/1/1 24/1/1 29/1/1
f 29/2/1 20/2/1 30/2/1
f 30/2/1 20/2/1 31/2/1
f 26/2/1 27/2/1 33/2/1
f 25/2/1 26/2/1 33/2/1
f 27/1/1 28/1/1 34/1/1
f 33/2/1 27/2/1 34/2/1
f 28/1/1 29/1/1 34/1/1
f 29/1/1 30/1/1 34/1/1
f 31/2/1 32/2/1 35/2/1
f 34/1/1 30/1/1 35/1/1
f 30/2/1 31/2/1 35/2/1
f 35/2/1 32/2/1 36/2/1
f 25/2/1 33/2/1 38/2/1
f 36/2/1 32/2/1 39/2/1
f 37/2/1 38/2/1 41/2/1
f 38/2/1 33/2/1 41/2/1
f 33/1/1 34/1/1 42/1/1
f 41/2/1 33/2/1 42/2/1
f 34/1/1 35/1/1 42/1/1
f 35/1/1 36/1/1 42/1/1
f 39/2/1 40/2/1 43/2/1
f 42/1/1 36/1/1 43/1/1
f 36/2/1 39/2/1 43/2/1
f 43/2/1 40/2/1 44/2/1
f 41/1/1 42/1/1 45/1/1
f 42/1/1 43/1/1 45/1/1
f 43/1/1 44/1/1 45/1/1
f 45/1/1 44/1/1 46/1/1
f 41/1/1 45/1/1 47/1/1
f 45/2/1 46/2/1 47/2/1
f 46/1/1 44/1/1 48/1/1
f 47/2/1 46/2/1 48/2/1
f 37/2/1 41/2/1 49/2/1
f 41/1/1 47/1/1 49/1/1
f 47/1/1 48/1/1 49/1/1
f 49/1/1 48/1/1 50/1/1
f 48/1/1 44/1/1 51/1/1
f 50/1/1 48/1/1 51/1/1
f 44/2/1 40/2/1 52/2/1
f 51/1/1 44/1/1 52/1/1
f 49/2/1 50/2/1 53/2/1
f 37/2/1 49/2/1 53/2/1
f 53/2/1 50/2/1 54/2/1
f 52/2/1 40/2/1 55/2/1
f 51/2/1 52/2/1 55/2/1
f 55/2/1 40/2/1 56/2/1
f 54/2/1 50/2/1 57/2/1
f 50/1/1 51/1/1 57/1/1
f 57/1/1 51/1/1 58/1/1
f 58/1/1 51/1/1 59/1/1
f 51/2/1 55/2/1 60/2/1
f 59/1/1 51/1/1 60/1/1
f 54/2/1 57/2/1 61/2/1
f 57/2/1 58/2/1 61/2/1
f 61/2/1 58/2/1 62/2/1
f 58/1/1 59/1/1 63/1/1
f 62/2/1 58/2/1 63/2/1
f 63/1/1 59/1/1 64/1/1
f 64/1/1 59/1/1 65/1/1
f 59/2/1 60/2/1 66/2/1
f 65/1/1 59/1/1 66/1/1
f 60/2/1 55/2/1 67/2/1
f 66/2/1 60/2/1 67/2/1
f 67/2/1 55/2/1 68/2/1
f 64/1/1 65/1/1 69/1/1
f 62/2/1 63/2/1 69/2/1
f 63/2/1 64/2/1 69/2/1
f 69/1/1 65/1/1 70/1/1
f 70/1/1 65/1/1 71/1/1
f 65/2/1 66/2/1 72/2/1
f 71/1/1 65/1/1 72/1/1
f 66/2/1 67/2/1 72/2/1
f 69/2/1 70/2/1 73/2/1
f 62/2/1 69/2/1 73/2/1
f 73/2/1 70/2/1 74/2/1
f 70/1/1 71/1/1 75/1/1
f 74/2/1 70/2/1 75/2/1
f 71/2/1 72/2/1 76/2/1
f 75/1/1 71/1/1 76/1/1
f 72/2/1 67/2/1 77/2/1
f 76/2/1 72/2/1 77/2/1
f 77/2/1 67/2/1 78/2/1
f 75/2/1 76/2/1 79/2/1
f 76/2/1 77/2/1 79/2/1
f 74/2/1 75/2/1 79/2/1
f 79/2/1 77/2/1 80/2/1
f 80/2/1 77/2/1 81/2/1
f 81/2/1 77/2/1 82/2/1
f 80/2/1 81/2/1 83/2/1
f 83/2/1 81/2/1 84/2/1
f 84/2/1 81/2/1 85/2/1
f 85/2/1 81/2/1 86/2/1
f 84/2/1 85/2/1 87/2/1
f 87/2/1 85/2/1 88/2/1
f 88/2/1 85/2/1 89/2/1
f 89/2/1 85/2/1 90/2/1
f 88/2/1 89/2/1 91/2/1
f 91/2/1 89/2/1 92/2/1
f 96/2/2 94/2/2 93/2/2
f 97/2/2 94/2/2 96/2/2
f 100/2/2 96/2/2 95/2/2
f 100/2/2 98/2/2 97/2/2
f 100/2/2 97/2/2 96/2/2
f 101/2/2 98/2/2 100/2/2
f 104/2/2 100/2/2 99/2/2
f 104/2/2 102/2/2 101/2/2
f 104/2/2 101/2/2 100/2/2
f 105/2/2 102/2/2 104/2/2
f 108/2/2 104/2/2 103/2/2
f 108/2/2 106/2/2 105/2/2
f 108/2/2 105/2/2 104/2/2
f 109/2/2 106/2/2 108/2/2
f 110/2/2 106/2/2 109/2/2
f 111/2/2 106/2/2 110/2/2
f 113/2/2 108/2/2 107/2/2
f 113/2/2 109/2/2 108/2/2
f 114/1/2 110/1/2 109/1/2
f 114/2/2 109/2/2 113/2/2
f 115/1/2 110/1/2 114/1/2
f 116/2/2 112/2/2 111/2/2
f 116/1/2 110/1/2 115/1/2
f 116/2/2 111/2/2 110/2/2
f 117/2/2 112/2/2 116/2/2
f 119/2/2 113/2/2 107/2/2
f 120/2/2 113/2/2 119/2/2
f 121/1/2 114/1/2 113/1/2
f 121/2/2 113/2/2 120/2/2
f 122/1/2 114/1/2 121/1/2
f 123/1/2 117/1/2 116/1/2
f 123/1/2 116/1/2 115/1/2
f 124/2/2 112/2/2 117/2/2
f 124/1/2 117/1/2 123/1/2
f 125/2/2 112/2/2 124/2/2
f 126/2/2 112/2/2 125/2/2
f 128/2/2 120/2/2 119/2/2
f 128/2/2 119/2/2 118/2/2
f 129/1/2 121/1/2 120/1/2
f 129/2/2 120/2/2 128/2/2
f 130/1/2 121/1/2 129/1/2
f 131/1/2 125/1/2 124/1/2
f 132/2/2 127/2/2 126/2/2
f 132/1/2 125/1/2 131/1/2
f 132/2/2 126/2/2 125/2/2
f 133/2/2 127/2/2 132/2/2
f 135/2/2 128/2/2 118/2/2
f 136/2/2 127/2/2 133/2/2
f 138/2/2 135/2/2 134/2/2
f 138/2/2 128/2/2 135/2/2
f 139/1/2 129/1/2 128/1/2
f 139/2/2 128/2/2 138/2/2
f 140/1/2 129/1/2 139/1/2
f 141/1/2 133/1/2 132/1/2
f 142/2/2 137/2/2 136/2/2
f 142/1/2 133/1/2 141/1/2
f 142/2/2 136/2/2 133/2/2
f 143/2/2 137/2/2 142/2/2
f 144/2/2 138/2/2 134/2/2
f 144/1/2 139/1/2 138/1/2
f 145/1/2 139/1/2 144/1/2
f 148/1/2 143/1/2 142/1/2
f 149/2/2 137/2/2 143/2/2
f 149/1/2 143/1/2 148/1/2
f 150/2/2 144/2/2 134/2/2
f 150/2/2 145/2/2 144/2/2
f 151/2/2 145/2/2 150/2/2
f 152/2/2 137/2/2 149/2/2
f 152/2/2 149/2/2 148/2/2
f 153/2/2 137/2/2 152/2/2
f 154/1/2 146/1/2 145/1/2
f 154/2/2 145/2/2 151/2/2
f 155/1/2 146/1/2 154/1/2
f 158/1/2 148/1/2 147/1/2
f 159/2/2 152/2/2 148/2/2
f 159/1/2 148/1/2 158/1/2
f 160/2/2 154/2/2 151/2/2
f 160/2/2 155/2/2 154/2/2
f 161/2/2 155/2/2 160/2/2
f 162/1/2 156/1/2 155/1/2
f 162/2/2 155/2/2 161/2/2
f 163/1/2 156/1/2 162/1/2
f 166/1/2 158/1/2 157/1/2
f 167/2/2 159/2/2 158/2/2
f 167/1/2 158/1/2 166/1/2
f 168/2/2 152/2/2 159/2/2
f 168/2/2 159/2/2 167/2/2
f 169/2/2 152/2/2 168/2/2
f 170/1/2 164/1/2 163/1/2
f 170/2/2 162/2/2 161/2/2
f 170/2/2 163/2/2 162/2/2
f 171/1/2 164/1/2 170/1/2
f 172/1/2 166/1/2 165/1/2
f 173/1/2 166/1/2 172/1/2
f 174/2/2 168/2/2 167/2/2
f 174/1/2 166/1/2 173/1/2
f 174/2/2 167/2/2 166/2/2
f 175/2/2 171/2/2 170/2/2
f 175/2/2 170/2/2 161/2/2
f 176/2/2 171/2/2 175/2/2
f 177/1/2 173/1/2 172/1/2
f 177/2/2 171/2/2 176/2/2
f 177/1/2 172/1/2 171/1/2
f 178/2/2 174/2/2 173/2/2
f 178/1/2 173/1/2 177/1/2
f 179/2/2 168/2/2 174/2/2
f 179/2/2 174/2/2 178/2/2
f 180/2/2 168/2/2 179/2/2
f 181/2/2 178/2/2 177/2/2
f 181/2/2 179/2/2 178/2/2
f 181/2/2 177/2/2 176/2/2
f 182/2/2 179/2/2 181/2/2
f 183/2/2 179/2/2 182/2/2
f 184/2/2 179/2/2 183/2/2
f 185/2/2 183/2/2 182/2/2
f 186/2/2 183/2/2 185/2/2
f 187/2/2 183/2/2 186/2/2
f 188/2/2 183/2/2 187/2/2
f 189/2/2 187/2/2 186/2/2
f 190/2/2 187/2/2 189/2/2
f 191/2/2 187/2/2 190/2/2
f 192/2/2 187/2/2 191/2/2
f 193/2/2 191/2/2 190/2/2
f 194/2/2 191/2/2 193/2/2
f 198/1/2 196/1/2 195/1/2
f 199/1/2 196/1/2 198/1/2
f 202/1/2 198/1/2 197/1/2
f 202/1/2 200/1/2 199/1/2
f 202/1/2 199/1/2 198/1/2
f 203/1/2 200/1/2 202/1/2
f 206/1/2 202/1/2 201/1/2
f 206/1/2 204/1/2 203/1/2
f 206/1/2 203/1/2 202/1/2
f 207/1/2 204/1/2 206/1/2
f 209/1/2 206/1/2 205/1/2
f 209/1/2 208/1/2 207/1/2
f 209/1/2 207/1/2 206/1/2
f 210/1/2 208/1/2 209/1/2
f 211/1/2 209/1/2 205/1/2
f 212/1/2 208/1/2 210/1/2
f 213/1/2 211/1/2 205/1/2
f 213/1/2 212/1/2 211/1/2
f 214/1/2 212/1/2 213/1/2
f 215/1/2 208/1/2 212/1/2
f 215/1/2 212/1/2 214/1/2
f 216/1/2 208/1/2 215/1/2
f 217/1/2 215/1/2 214/1/2
f 218/1/2 215/1/2 217/1/2
f 219/1/2 215/1/2 218/1/2
f 220/1/2 215/1/2 219/1/2
f 221/1/2 219/1/2 218/1/2
f 222/1/2 219/1/2 221/1/2
f 223/1/2 219/1/2 222/1/2
f 224/1/2 219/1/2 223/1/2
f 225/1/2 223/1/2 222/1/2
f 226/1/2 223/1/2 225/1/2
f 229/1/2 228/1/2 227/1/2
f 230/1/2 228/1/2 229/1/2
f 231/2/3 232/2/3 233/2/3
f 233/2/3 232/2/3 234/2/3
f 235/2/3 236/2/3 239/2/3
f 239/2/3 236/2/3 240/2/3
f 237/2/3 238/2/3 241/2/3
f 241/2/3 238/2/3 242/2/3
f 243/2/3 244/2/3 247/2/3
f 247/2/3 244/2/3 248/2/3
f 245/2/3 246/2/3 249/2/3
f 249/2/3 246/2/3 250/2/3
f 251/2/3 252/2/3 255/2/3
f 255/2/3 252/2/3 256/2/3
f 253/2/3 254/2/3 257/2/3
f 257/2/3 254/2/3 258/2/3
f 259/2/3 260/2/3 263/2/3
f 263/2/3 260/2/3 264/2/3
f 261/2/3 262/2/3 265/2/3
f 265/2/3 262/2/3 266/2/3
f 267/1/3 268/1/3 269/1/3
f 269/1/3 268/1/3 270/1/3
f 271/2/3 272/2/3 275/2/3
f 275/2/3 272/2/3 276/2/3
f 273/2/3 274/2/3 281/2/3
f 281/2/3 274/2/3 282/2/3
f 277/1/3 278/1/3 283/1/3
f 283/1/3 278/1/3 284/1/3
f 279/1/3 280/1/3 285/1/3
f 285/1/3 280/1/3 286/1/3
f 287/1/3 288/1/3 291/1/3
f 291/1/3 288/1/3 292/1/3
f 289/1/3 290/1/3 293/1/3
f 293/1/3 290/1/3 294/1/3
f 295/2/3 296/2/3 299/2/3
f 299/2/3 296/2/3 300/2/3
f 297/2/3 298/2/3 301/2/3
f 301/2/3 298/2/3 302/2/3
f 303/1/3 304/1/3 307/1/3
f 307/1/3 304/1/3 308/1/3
f 305/1/3 306/1/3 309/1/3
f 309/1/3 306/1/3 310/1/3
f 311/1/3 312/1/3 313/1/3
f 313/1/3 312/1/3 314/1/3
f 317/1/4 316/1/4 315/1/4
f 318/1/4 316/1/4 317/1/4
f 323/1/4 320/1/4 319/1/4
f 324/1/4 320/1/4 323/1/4
f 325/1/4 322/1/4 321/1/4
f 326/1/4 322/1/4 325/1/4
f 331/2/4 328/2/4 327/2/4
f 332/2/4 328/2/4 331/2/4
f 333/2/4 330/2/4 329/2/4
f 334/2/4 330/2/4 333/2/4
f 339/1/4 336/1/4 335/1/4
f 340/1/4 336/1/4 339/1/4
f 341/1/4 338/1/4 337/1/4
f 342/1/4 338/1/4 341/1/4
f 347/2/4 344/2/4 343/2/4
f 348/2/4 344/2/4 347/2/4
f 353/2/4 346/2/4 345/2/4
f 354/2/4 346/2/4 353/2/4
f 355/1/4 350/1/4 349/1/4
f 356/1/4 350/1/4 355/1/4
f 357/1/4 352/1/4 351/1/4
f 358/1/4 352/1/4 357/1/4
f 361/2/4 360/2/4 359/2/4
f 362/2/4 360/2/4 361/2/4
f 365/1/4 364/1/4 363/1/4
f 366/1/4 364/1/4 365/1/4
f 369/2/4 368/2/4 367/2/4
f 370/2/4 368/2/4 369/2/4
f 375/2/4 372/2/4 371/2/4
f 376/2/4 372/2/4 375/2/4
f 377/2/4 374/2/4 373/2/4
f 378/2/4 374/2/4 377/2/4
f 383/2/4 380/2/4 379/2/4
f 384/2/4 380/2/4 383/2/4
f 385/2/4 382/2/4 381/2/4
f 386/2/4 382/2/4 385/2/4
f 391/2/4 388/2/4 387/2/4
f 392/2/4 388/2/4 391/2/4
f 393/2/4 390/2/4 389/2/4
f 394/2/4 390/2/4 393/2/4
f 397/2/4 396/2/4 395/2/4
f 398/2/4 396/2/4 397/2/4
f 399/2/5 400/2/5 401/2/5
f 401/2/5 400/2/5 402/2/5
f 403/2/5 404/2/5 405/2/5
f 405/2/5 404/2/5 406/2/5
f 407/2/5 408/2/5 409/2/5
f 409/2/5 408/2/5 410/2/5
f 411/2/5 412/2/5 413/2/5
f 413/2/5 412/2/5 414/2/5
f 415/2/5 416/2/5 417/2/5
f 417/2/5 416/2/5 418/2/5
f 419/2/5 420/2/5 421/2/5
f 421/2/5 420/2/5 422/2/5
f 423/2/5 424/2/5 425/2/5
f 425/2/5 424/2/5 426/2/5
f 427/2/5 428/2/5 429/2/5
f 429/2/5 428/2/5 430/2/5
f 431/2/5 432/2/5 433/2/5
f 433/2/5 432/2/5 434/2/5
f 435/1/5 436/1/5 437/1/5
f 437/1/5 436/1/5 438/1/5
f 439/2/5 440/2/5 441/2/5
f 441/2/5 440/2/5 442/2/5
f 443/1/5 444/1/5 445/1/5
f 445/1/5 444/1/5 446/1/5
f 447/1/5 448/1/5 449/1/5
f 449/1/5 448/1/5 450/1/5
f 451/2/5 452/2/5 453/2/5
f 453/2/5 452/2/5 454/2/5
f 455/1/5 456/1/5 457/1/5
f 457/1/5 456/1/5 458/1/5
f 459/1/5 460/1/5 461/1/5
f 461/1/5 460/1/5 462/1/5
f 463/2/5 464/2/5 465/2/5
f 465/2/5 464/2/5 466/2/5
f 467/2/5 468/2/5 469/2/5
f 469/2/5 468/2/5 470/2/5
f 471/1/5 472/1/5 473/1/5
f 473/1/5 472/1/5 474/1/5
f 475/1/5 476/1/5 477/1/5
f 477/1/5 476/1/5 478/1/5
f 479/1/5 480/1/5 481/1/5
f 481/1/5 480/1/5 482/1/5
f 485/1/6 484/1/6 483/1/6
f 486/1/6 484/1/6 485/1/6
f 489/1/6 488/1/6 487/1/6
f 490/1/6 488/1/6 489/1/6
f 493/1/6 492/1/6 491/1/6
f 494/1/6 492/1/6 493/1/6
f 497/2/6 496/2/6 495/2/6
f 498/2/6 496/2/6 497/2/6
f 501/2/6 500/2/6 499/2/6
f 502/2/6 500/2/6 501/2/6
f 505/1/6 504/1/6 503/1/6
f 506/1/6 504/1/6 505/1/6
f 509/1/6 508/1/6 507/1/6
f 510/1/6 508/1/6 509/1/6
f 513/2/6 512/2/6 511/2/6
f 514/2/6 512/2/6 513/2/6
f 517/1/6 516/1/6 515/1/6
f 518/1/6 516/1/6 517/1/6
f 521/1/6 520/1/6 519/1/6
f 522/1/6 520/1/6 521/1/6
f 525/2/6 524/2/6 523/2/6
f 526/2/6 524/2/6 525/2/6
f 529/1/6 528/1/6 527/1/6
f 530/1/6 528/1/6 529/1/6
f 533/2/6 532/2/6 531/2/6
f 534/2/6 532/2/6 533/2/6
f 537/2/6 536/2/6 535/2/6
f 538/2/6 536/2/6 537/2/6
f 541/2/6 540/2/6 539/2/6
f 542/2/6 540/2/6 541/2/6
f 545/2/6 544/2/6 543/2/6
f 546/2/6 544/2/6 545/2/6
f 549/2/6 548/2/6 547/2/6
f 550/2/6 548/2/6 549/2/6
f 553/2/6 552/2/6 551/2/6
f 554/2/6 552/2/6 553/2/6
f 557/2/6 556/2/6 555/2/6
f 558/2/6 556/2/6 557/2/6
f 561/2/6 560/2/6 559/2/6
f 562/2/6 560/2/6 561/2/6
f 565/2/6 564/2/6 563/2/6
f 566/2/6 564/2/6 565/2/6
