# MagicaVoxel @ Ephtracy

# group
o 

# material
mtllib dom-12.mtl
usemtl palette

# normals
vn -1 0 0
vn 1 0 0
vn 0 0 1
vn 0 0 -1
vn 0 -1 0
vn 0 1 0

# texcoords
vt 0.962891 0.5
vt 0.966797 0.5
vt 0.982422 0.5
vt 0.986328 0.5

# verts
v -3.3 0 0.1
v -3.3 0 -0.1
v -3.3 6.7 0.1
v -3.3 6.7 -0.1
v -3.2 0.1 -0.1
v -3.2 0.1 -0.2
v -3.2 6.6 -0.1
v -3.2 6.6 -0.2
v -0.0999999 2.2 -0.1
v -0.0999999 2.2 -0.2
v -0.0999999 5.6 -0.1
v -0.0999999 5.6 -0.2
v 1.8 2.2 -0.1
v 1.8 2.2 -0.2
v 1.8 5.6 -0.1
v 1.8 5.6 -0.2
v -1.7 2.2 -0.1
v -1.7 2.2 -0.2
v -1.7 5.6 -0.1
v -1.7 5.6 -0.2
v 0.1 2.2 -0.1
v 0.1 2.2 -0.2
v 0.1 5.6 -0.1
v 0.1 5.6 -0.2
v 3.3 0.1 -0.1
v 3.3 0.1 -0.2
v 3.3 6.6 -0.1
v 3.3 6.6 -0.2
v 3.4 0 0.1
v 3.4 0 -0.1
v 3.4 6.7 0.1
v 3.4 6.7 -0.1
v -3.3 0 0.1
v -3.3 6.7 0.1
v 3.4 0 0.1
v 3.4 6.7 0.1
v -3.3 0 -0.1
v -3.3 6.7 -0.1
v -3.2 0.1 -0.1
v -3.2 6.6 -0.1
v -1.7 2.2 -0.1
v -1.7 5.6 -0.1
v -0.0999999 2.2 -0.1
v -0.0999999 5.6 -0.1
v 0.1 2.2 -0.1
v 0.1 5.6 -0.1
v 1.8 2.2 -0.1
v 1.8 5.6 -0.1
v 3.3 0.1 -0.1
v 3.3 6.6 -0.1
v 3.4 0 -0.1
v 3.4 6.7 -0.1
v -3.2 0.1 -0.2
v -3.2 6.6 -0.2
v -1.9 2 -0.2
v -1.9 5.8 -0.2
v -1.7 2.2 -0.2
v -1.7 5.6 -0.2
v -0.0999999 2.2 -0.2
v -0.0999999 5.6 -0.2
v 0.1 2.2 -0.2
v 0.1 5.6 -0.2
v 1.8 2.2 -0.2
v 1.8 5.6 -0.2
v 2 2 -0.2
v 2 5.8 -0.2
v 3.3 0.1 -0.2
v 3.3 6.6 -0.2
v -3.3 0 0.1
v 3.4 0 0.1
v -3.3 0 -0.1
v 3.4 0 -0.1
v -3.2 0.1 -0.1
v 3.3 0.1 -0.1
v -3.2 0.1 -0.2
v 3.3 0.1 -0.2
v -1.7 5.6 -0.1
v -0.0999999 5.6 -0.1
v 0.1 5.6 -0.1
v 1.8 5.6 -0.1
v -1.7 5.6 -0.2
v -0.0999999 5.6 -0.2
v 0.1 5.6 -0.2
v 1.8 5.6 -0.2
v -1.7 2.2 -0.1
v -0.0999999 2.2 -0.1
v 0.1 2.2 -0.1
v 1.8 2.2 -0.1
v -1.7 2.2 -0.2
v -0.0999999 2.2 -0.2
v 0.1 2.2 -0.2
v 1.8 2.2 -0.2
v -3.2 6.6 -0.1
v 3.3 6.6 -0.1
v -3.2 6.6 -0.2
v 3.3 6.6 -0.2
v -3.3 6.7 0.1
v 3.4 6.7 0.1
v -3.3 6.7 -0.1
v 3.4 6.7 -0.1

# faces
f 3/4/1 2/4/1 1/4/1
f 4/4/1 2/4/1 3/4/1
f 7/1/1 6/1/1 5/1/1
f 8/1/1 6/1/1 7/1/1
f 11/2/1 10/2/1 9/2/1
f 12/2/1 10/2/1 11/2/1
f 15/2/1 14/2/1 13/2/1
f 16/2/1 14/2/1 15/2/1
f 17/2/2 18/2/2 19/2/2
f 19/2/2 18/2/2 20/2/2
f 21/2/2 22/2/2 23/2/2
f 23/2/2 22/2/2 24/2/2
f 25/1/2 26/1/2 27/1/2
f 27/1/2 26/1/2 28/1/2
f 29/4/2 30/4/2 31/4/2
f 31/4/2 30/4/2 32/4/2
f 35/4/3 34/4/3 33/4/3
f 36/4/3 34/4/3 35/4/3
f 37/4/4 38/4/4 39/4/4
f 39/4/4 38/4/4 40/4/4
f 41/3/4 42/3/4 43/3/4
f 43/3/4 42/3/4 44/3/4
f 45/3/4 46/3/4 47/3/4
f 47/3/4 46/3/4 48/3/4
f 37/4/4 39/4/4 49/4/4
f 40/4/4 38/4/4 50/4/4
f 37/4/4 49/4/4 51/4/4
f 49/4/4 50/4/4 51/4/4
f 50/4/4 38/4/4 52/4/4
f 51/4/4 50/4/4 52/4/4
f 53/1/4 54/1/4 55/1/4
f 55/1/4 54/1/4 56/1/4
f 55/2/4 56/2/4 57/2/4
f 57/2/4 56/2/4 58/2/4
f 55/2/4 57/2/4 59/2/4
f 58/2/4 56/2/4 60/2/4
f 55/2/4 59/2/4 61/2/4
f 59/2/4 60/2/4 61/2/4
f 60/2/4 56/2/4 62/2/4
f 61/2/4 60/2/4 62/2/4
f 55/2/4 61/2/4 63/2/4
f 62/2/4 56/2/4 64/2/4
f 53/1/4 55/1/4 65/1/4
f 63/2/4 64/2/4 65/2/4
f 55/2/4 63/2/4 65/2/4
f 64/2/4 56/2/4 66/2/4
f 65/2/4 64/2/4 66/2/4
f 56/1/4 54/1/4 66/1/4
f 53/1/4 65/1/4 67/1/4
f 65/1/4 66/1/4 67/1/4
f 66/1/4 54/1/4 68/1/4
f 67/1/4 66/1/4 68/1/4
f 71/4/5 70/4/5 69/4/5
f 72/4/5 70/4/5 71/4/5
f 75/1/5 74/1/5 73/1/5
f 76/1/5 74/1/5 75/1/5
f 81/2/5 78/2/5 77/2/5
f 82/2/5 78/2/5 81/2/5
f 83/2/5 80/2/5 79/2/5
f 84/2/5 80/2/5 83/2/5
f 85/2/6 86/2/6 89/2/6
f 89/2/6 86/2/6 90/2/6
f 87/2/6 88/2/6 91/2/6
f 91/2/6 88/2/6 92/2/6
f 93/1/6 94/1/6 95/1/6
f 95/1/6 94/1/6 96/1/6
f 97/4/6 98/4/6 99/4/6
f 99/4/6 98/4/6 100/4/6
