# MagicaVoxel @ Ephtracy

# group
o 

# material
mtllib dom-8.mtl
usemtl palette

# normals
vn -1 0 0
vn 1 0 0
vn 0 0 1
vn 0 0 -1
vn 0 -1 0
vn 0 1 0

# texcoords
vt 0.982422 0.5
vt 0.986328 0.5

# verts
v -3.3 0 0.3
v -3.3 0 0.1
v -3.3 0 -0.2
v -3.3 2.8 -0.1
v -3.3 2.8 -0.2
v -3.3 2.9 0.1
v -3.3 2.9 -0.1
v -3.3 3 0.3
v -3.3 3 0.1
v 3.4 0 0.3
v 3.4 0 0.1
v 3.4 0 -0.2
v 3.4 2.8 -0.1
v 3.4 2.8 -0.2
v 3.4 2.9 0.1
v 3.4 2.9 -0.1
v 3.4 3 0.3
v 3.4 3 0.1
v -3.3 0 0.3
v -3.3 3 0.3
v 3.4 0 0.3
v 3.4 3 0.3
v -3.3 2.9 0.1
v -3.3 3 0.1
v 3.4 2.9 0.1
v 3.4 3 0.1
v -3.3 2.8 -0.1
v -3.3 2.9 -0.1
v 3.4 2.8 -0.1
v 3.4 2.9 -0.1
v -3.3 0 -0.2
v -3.3 2.8 -0.2
v 3.4 0 -0.2
v 3.4 2.8 -0.2
v -3.3 0 0.3
v 3.4 0 0.3
v -3.3 0 0.1
v 3.4 0 0.1
v -3.3 0 -0.2
v 3.4 0 -0.2
v -3.3 2.8 -0.1
v 3.4 2.8 -0.1
v -3.3 2.8 -0.2
v 3.4 2.8 -0.2
v -3.3 2.9 0.1
v 3.4 2.9 0.1
v -3.3 2.9 -0.1
v 3.4 2.9 -0.1
v -3.3 3 0.3
v 3.4 3 0.3
v -3.3 3 0.1
v 3.4 3 0.1

# faces
f 4/1/1 3/1/1 2/1/1
f 5/1/1 3/1/1 4/1/1
f 6/2/1 2/2/1 1/2/1
f 6/1/1 4/1/1 2/1/1
f 7/1/1 4/1/1 6/1/1
f 8/2/1 6/2/1 1/2/1
f 9/2/1 6/2/1 8/2/1
f 11/1/2 12/1/2 13/1/2
f 13/1/2 12/1/2 14/1/2
f 10/2/2 11/2/2 15/2/2
f 11/1/2 13/1/2 15/1/2
f 15/1/2 13/1/2 16/1/2
f 10/2/2 15/2/2 17/2/2
f 17/2/2 15/2/2 18/2/2
f 21/2/3 20/2/3 19/2/3
f 22/2/3 20/2/3 21/2/3
f 23/2/4 24/2/4 25/2/4
f 25/2/4 24/2/4 26/2/4
f 27/1/4 28/1/4 29/1/4
f 29/1/4 28/1/4 30/1/4
f 31/1/4 32/1/4 33/1/4
f 33/1/4 32/1/4 34/1/4
f 37/2/5 36/2/5 35/2/5
f 38/2/5 36/2/5 37/2/5
f 39/1/5 38/1/5 37/1/5
f 40/1/5 38/1/5 39/1/5
f 41/1/6 42/1/6 43/1/6
f 43/1/6 42/1/6 44/1/6
f 45/1/6 46/1/6 47/1/6
f 47/1/6 46/1/6 48/1/6
f 49/2/6 50/2/6 51/2/6
f 51/2/6 50/2/6 52/2/6
