# MagicaVoxel @ Ephtracy

# group
o 

# material
mtllib dom-2.mtl
usemtl palette

# normals
vn -1 0 0
vn 1 0 0
vn 0 0 1
vn 0 0 -1
vn 0 -1 0
vn 0 1 0

# texcoords
vt 0.962891 0.5
vt 0.986328 0.5

# verts
v -3.3 0 0.1
v -3.3 0 -0.1
v -3.3 6.7 0.1
v -3.3 6.7 -0.1
v -3.2 0.1 -0.1
v -3.2 0.1 -0.2
v -3.2 6.6 -0.1
v -3.2 6.6 -0.2
v 1.4 0 0.1
v 1.4 0 -0.1
v 1.4 0.1 -0.1
v 1.4 0.1 -0.2
v 1.4 4.9 0.1
v 1.4 4.9 -0.1
v 1.4 4.9 -0.2
v -1.3 0 0.1
v -1.3 0 -0.1
v -1.3 0.1 -0.1
v -1.3 0.1 -0.2
v -1.3 4.9 0.1
v -1.3 4.9 -0.1
v -1.3 4.9 -0.2
v 3.3 0.1 -0.1
v 3.3 0.1 -0.2
v 3.3 6.6 -0.1
v 3.3 6.6 -0.2
v 3.4 0 0.1
v 3.4 0 -0.1
v 3.4 6.7 0.1
v 3.4 6.7 -0.1
v -3.3 0 0.1
v -3.3 6.7 0.1
v -1.3 0 0.1
v -1.3 4.9 0.1
v 1.4 0 0.1
v 1.4 4.9 0.1
v 3.4 0 0.1
v 3.4 6.7 0.1
v -3.3 0 -0.1
v -3.3 6.7 -0.1
v -3.2 0.1 -0.1
v -3.2 6.6 -0.1
v -1.3 0 -0.1
v -1.3 0.1 -0.1
v 1.4 0 -0.1
v 1.4 0.1 -0.1
v 3.3 0.1 -0.1
v 3.3 6.6 -0.1
v 3.4 0 -0.1
v 3.4 6.7 -0.1
v -3.2 0.1 -0.2
v -3.2 6.6 -0.2
v -1.3 0.1 -0.2
v -1.3 4.9 -0.2
v 1.4 0.1 -0.2
v 1.4 4.9 -0.2
v 3.3 0.1 -0.2
v 3.3 6.6 -0.2
v -3.3 0 0.1
v -1.3 0 0.1
v 1.4 0 0.1
v 3.4 0 0.1
v -3.3 0 -0.1
v -1.3 0 -0.1
v 1.4 0 -0.1
v 3.4 0 -0.1
v -3.2 0.1 -0.1
v -1.3 0.1 -0.1
v 1.4 0.1 -0.1
v 3.3 0.1 -0.1
v -3.2 0.1 -0.2
v -1.3 0.1 -0.2
v 1.4 0.1 -0.2
v 3.3 0.1 -0.2
v -1.3 4.9 0.1
v 1.4 4.9 0.1
v -1.3 4.9 -0.1
v 1.4 4.9 -0.1
v -1.3 4.9 -0.2
v 1.4 4.9 -0.2
v -3.2 6.6 -0.1
v 3.3 6.6 -0.1
v -3.2 6.6 -0.2
v 3.3 6.6 -0.2
v -3.3 6.7 0.1
v 3.4 6.7 0.1
v -3.3 6.7 -0.1
v 3.4 6.7 -0.1

# faces
f 3/2/1 2/2/1 1/2/1
f 4/2/1 2/2/1 3/2/1
f 7/1/1 6/1/1 5/1/1
f 8/1/1 6/1/1 7/1/1
f 11/2/1 10/2/1 9/2/1
f 13/2/1 11/2/1 9/2/1
f 14/1/1 12/1/1 11/1/1
f 14/2/1 11/2/1 13/2/1
f 15/1/1 12/1/1 14/1/1
f 16/2/2 17/2/2 18/2/2
f 16/2/2 18/2/2 20/2/2
f 18/1/2 19/1/2 21/1/2
f 20/2/2 18/2/2 21/2/2
f 21/1/2 19/1/2 22/1/2
f 23/1/2 24/1/2 25/1/2
f 25/1/2 24/1/2 26/1/2
f 27/2/2 28/2/2 29/2/2
f 29/2/2 28/2/2 30/2/2
f 33/2/3 32/2/3 31/2/3
f 34/2/3 32/2/3 33/2/3
f 36/2/3 32/2/3 34/2/3
f 37/2/3 36/2/3 35/2/3
f 38/2/3 32/2/3 36/2/3
f 38/2/3 36/2/3 37/2/3
f 39/2/4 40/2/4 41/2/4
f 41/2/4 40/2/4 42/2/4
f 39/2/4 41/2/4 43/2/4
f 43/2/4 41/2/4 44/2/4
f 45/2/4 46/2/4 47/2/4
f 42/2/4 40/2/4 48/2/4
f 45/2/4 47/2/4 49/2/4
f 47/2/4 48/2/4 49/2/4
f 48/2/4 40/2/4 50/2/4
f 49/2/4 48/2/4 50/2/4
f 51/1/4 52/1/4 53/1/4
f 53/1/4 52/1/4 54/1/4
f 54/1/4 52/1/4 56/1/4
f 55/1/4 56/1/4 57/1/4
f 56/1/4 52/1/4 58/1/4
f 57/1/4 56/1/4 58/1/4
f 63/2/5 60/2/5 59/2/5
f 64/2/5 60/2/5 63/2/5
f 65/2/5 62/2/5 61/2/5
f 66/2/5 62/2/5 65/2/5
f 71/1/5 68/1/5 67/1/5
f 72/1/5 68/1/5 71/1/5
f 73/1/5 70/1/5 69/1/5
f 74/1/5 70/1/5 73/1/5
f 77/2/5 76/2/5 75/2/5
f 78/2/5 76/2/5 77/2/5
f 79/1/5 78/1/5 77/1/5
f 80/1/5 78/1/5 79/1/5
f 81/1/6 82/1/6 83/1/6
f 83/1/6 82/1/6 84/1/6
f 85/2/6 86/2/6 87/2/6
f 87/2/6 86/2/6 88/2/6
